<svg width="25" height="25" viewBox="0 0 25 25" fill="none" xmlns="http://www.w3.org/2000/svg">
<g clip-path="url(#clip0_2806_45248)">
<path d="M24.2676 5.42929H21.6076V2.67929H18.8976V0.0192871H5.64258V2.67929H2.98258V5.42929H0.267578V18.6793H2.98258V21.3043H5.64258V24.0193H18.8976V21.3043H21.6076V18.6793H24.2676V5.42929Z" fill="black"/>
<path d="M12.1298 4.71655H17.8571V6.42888H13.7662V17.8075H12.948V18.6256H12.1298V19.4438H8.85707V18.6256H8.03888V17.8075H7.2207V14.5347H8.03888V13.7166H8.85707V12.8984H12.1298V4.71655ZM12.1298 15.3529H11.3116V14.5347H9.67525V15.3529H8.85707V16.9893H9.67525V17.8075H11.3116V16.9893H12.1298V15.3529Z" fill="white"/>
</g>
<defs>
<clipPath id="clip0_2806_45248">
<rect width="24" height="24" fill="white" transform="translate(0.267578 0.0192871)"/>
</clipPath>
</defs>
</svg>
