<svg width="20" height="25" viewBox="0 0 20 25" fill="none" xmlns="http://www.w3.org/2000/svg">
<path d="M6 2.28809L8 2.28809V0.288086L6 0.288086V2.28809Z" fill="#9FA6AC"/>
<path d="M4 4.28809H6V2.28809H4L4 4.28809Z" fill="#9FA6AC"/>
<path d="M8 2.28809L10 2.28809V0.288086L8 0.288086V2.28809Z" fill="#9FA6AC"/>
<path d="M10 2.28809L12 2.28809V0.288086L10 0.288086V2.28809Z" fill="#9FA6AC"/>
<path d="M12 2.28809L14 2.28809V0.288086L12 0.288086V2.28809Z" fill="#9FA6AC"/>
<path d="M4 12.2881V10.2881H2V12.2881H4Z" fill="#9FA6AC"/>
<path d="M6 14.2881V12.2881H4V14.2881H6Z" fill="#9FA6AC"/>
<path d="M4 10.2881V8.28809H2V10.2881H4Z" fill="#9FA6AC"/>
<path d="M4 8.28809V6.28809H2V8.28809H4Z" fill="#9FA6AC"/>
<path d="M4 6.28809V4.28809H2V6.28809H4Z" fill="#9FA6AC"/>
<path d="M14 14.2881H12V16.2881H14V14.2881Z" fill="#9FA6AC"/>
<path d="M16 12.2881H14V14.2881H16V12.2881Z" fill="#9FA6AC"/>
<path d="M12 14.2881H10V16.2881H12V14.2881Z" fill="#9FA6AC"/>
<path d="M10 14.2881H8V16.2881H10V14.2881Z" fill="#9FA6AC"/>
<path d="M8 14.2881H6V16.2881H8V14.2881Z" fill="#9FA6AC"/>
<path d="M14 12.2881H12V14.2881H14V12.2881Z" fill="#9FA6AC"/>
<path d="M12 12.2881H10V14.2881H12V12.2881Z" fill="#9FA6AC"/>
<path d="M10 12.2881H8V14.2881H10V12.2881Z" fill="#9FA6AC"/>
<path d="M8 12.2881H6V14.2881H8V12.2881Z" fill="#9FA6AC"/>
<path d="M14 10.2881H12V12.2881H14V10.2881Z" fill="#9FA6AC"/>
<path d="M12 10.2881H10V12.2881H12V10.2881Z" fill="#9FA6AC"/>
<path d="M10 10.2881H8V12.2881H10V10.2881Z" fill="#9FA6AC"/>
<path d="M8 10.2881H6V12.2881H8V10.2881Z" fill="#9FA6AC"/>
<path d="M14 8.28809H12V10.2881H14V8.28809Z" fill="#9FA6AC"/>
<path d="M12 8.28809H10V10.2881H12V8.28809Z" fill="#9FA6AC"/>
<path d="M10 8.28809H8V10.2881H10V8.28809Z" fill="#9FA6AC"/>
<path d="M8 8.28809H6V10.2881H8V8.28809Z" fill="#9FA6AC"/>
<path d="M14 6.28809H12V8.28809H14V6.28809Z" fill="#9FA6AC"/>
<path d="M12 6.28809H10V8.28809H12V6.28809Z" fill="#9FA6AC"/>
<path d="M10 6.28809H8V8.28809H10V6.28809Z" fill="#9FA6AC"/>
<path d="M8 6.28809H6V8.28809H8V6.28809Z" fill="#9FA6AC"/>
<path d="M14 4.28809H12V6.28809H14V4.28809Z" fill="#9FA6AC"/>
<path d="M12 4.28809H10V6.28809H12V4.28809Z" fill="#9FA6AC"/>
<path d="M10 4.28809H8V6.28809H10V4.28809Z" fill="#9FA6AC"/>
<path d="M8 4.28809H6V6.28809H8V4.28809Z" fill="#9FA6AC"/>
<path d="M14 2.28809H12V4.28809H14V2.28809Z" fill="#9FA6AC"/>
<path d="M12 2.28809H10V4.28809H12V2.28809Z" fill="#9FA6AC"/>
<path d="M10 2.28809H8V4.28809H10V2.28809Z" fill="#9FA6AC"/>
<path d="M8 2.28809H6V4.28809H8V2.28809Z" fill="#9FA6AC"/>
<path d="M14 18.2881V20.2881H16V18.2881H14Z" fill="#9FA6AC"/>
<path d="M16 20.2881V22.2881H18V20.2881H16Z" fill="#9FA6AC"/>
<path d="M16 22.2881V24.2881H18V22.2881H16Z" fill="#9FA6AC"/>
<path d="M18 22.2881V24.2881H20V22.2881H18Z" fill="#9FA6AC"/>
<path d="M18 20.2881V22.2881H20V20.2881H18Z" fill="#9FA6AC"/>
<path d="M6 20.2881H8V18.2881H6V20.2881Z" fill="#9FA6AC"/>
<path d="M4 20.2881H6V18.2881H4L4 20.2881Z" fill="#9FA6AC"/>
<path d="M2 22.2881H4L4 20.2881H2L2 22.2881Z" fill="#9FA6AC"/>
<path d="M16 18.2881V20.2881H18V18.2881H16Z" fill="#9FA6AC"/>
<path d="M2 20.2881H4L4 18.2881H2L2 20.2881Z" fill="#9FA6AC"/>
<path d="M2 24.2881H4L4 22.2881H2L2 24.2881Z" fill="#9FA6AC"/>
<path d="M0 24.2881H2L2 22.2881H0L0 24.2881Z" fill="#9FA6AC"/>
<path d="M0 22.2881H2L2 20.2881H0L0 22.2881Z" fill="#9FA6AC"/>
<path d="M8 20.2881H10V18.2881H8V20.2881Z" fill="#9FA6AC"/>
<path d="M10 20.2881H12V18.2881H10V20.2881Z" fill="#9FA6AC"/>
<path d="M12 20.2881H14V18.2881H12V20.2881Z" fill="#9FA6AC"/>
<path d="M14 20.2881V22.2881H16V20.2881H14Z" fill="#9FA6AC"/>
<path d="M6 22.2881H8V20.2881H6V22.2881Z" fill="#9FA6AC"/>
<path d="M4 22.2881H6V20.2881H4L4 22.2881Z" fill="#9FA6AC"/>
<path d="M8 22.2881H10V20.2881H8V22.2881Z" fill="#9FA6AC"/>
<path d="M10 22.2881H12V20.2881H10V22.2881Z" fill="#9FA6AC"/>
<path d="M12 22.2881H14V20.2881H12V22.2881Z" fill="#9FA6AC"/>
<path d="M14 22.2881V24.2881H16V22.2881H14Z" fill="#9FA6AC"/>
<path d="M6 24.2881H8V22.2881H6V24.2881Z" fill="#9FA6AC"/>
<path d="M4 24.2881H6V22.2881H4L4 24.2881Z" fill="#9FA6AC"/>
<path d="M8 24.2881H10V22.2881H8V24.2881Z" fill="#9FA6AC"/>
<path d="M10 24.2881H12V22.2881H10V24.2881Z" fill="#9FA6AC"/>
<path d="M12 24.2881H14V22.2881H12V24.2881Z" fill="#9FA6AC"/>
<path d="M16 4.28809V6.28809H18V4.28809H16Z" fill="#9FA6AC"/>
<path d="M14 2.28809V4.28809H16V2.28809H14Z" fill="#9FA6AC"/>
<path d="M16 6.28809V8.28809H18V6.28809H16Z" fill="#9FA6AC"/>
<path d="M16 8.28809V10.2881H18V8.28809H16Z" fill="#9FA6AC"/>
<path d="M16 10.2881V12.2881H18V10.2881H16Z" fill="#9FA6AC"/>
<path d="M14 4.28809V6.28809H16V4.28809H14Z" fill="#9FA6AC"/>
<path d="M14 6.28809V8.28809H16V6.28809H14Z" fill="#9FA6AC"/>
<path d="M14 8.28809V10.2881H16V8.28809H14Z" fill="#9FA6AC"/>
<path d="M14 10.2881V12.2881H16V10.2881H14Z" fill="#9FA6AC"/>
<path d="M4 4.28809V6.28809H6V4.28809H4Z" fill="#9FA6AC"/>
<path d="M4 6.28809V8.28809H6V6.28809H4Z" fill="#9FA6AC"/>
<path d="M4 8.28809V10.2881H6V8.28809H4Z" fill="#9FA6AC"/>
<path d="M4 10.2881V12.2881H6V10.2881H4Z" fill="#9FA6AC"/>
</svg>
