<svg width="25" height="25" viewBox="0 0 25 25" fill="none" xmlns="http://www.w3.org/2000/svg">
<g clip-path="url(#clip0_4838_23125)">
<path d="M0.739746 3.16667H3.40641V1.83333H6.07308V0.5H11.4064V1.83333H15.4064V3.16667H18.0731V1.83333H20.7397V0.5H24.7397V21.8333H22.0731V23.1667H19.4064V24.5H14.0731V23.1667H10.0731V21.8333H7.40641V23.1667H4.73975V24.5H0.739746V3.16667ZM3.40641 5.83333V20.5H6.07308V19.1667H7.40641V4.5H4.73975V5.83333H3.40641ZM14.0731 4.5H10.0731V19.1667H11.4064V20.5H15.4064V5.83333H14.0731V4.5ZM19.4064 5.83333H18.0731V20.5H20.7397V19.1667H22.0731V4.5H19.4064V5.83333Z" fill="black"/>
<rect x="2.73975" y="4" width="5" height="17" fill="black"/>
<rect x="17.7397" y="4" width="5" height="17" fill="black"/>
</g>
<defs>
<clipPath id="clip0_4838_23125">
<rect width="24" height="24" fill="white" transform="translate(0.739746 0.5)"/>
</clipPath>
</defs>
</svg>
