<svg width="25" height="25" viewBox="0 0 25 25" fill="none" xmlns="http://www.w3.org/2000/svg">
<g clip-path="url(#clip0_4838_45775)">
<path d="M0.467773 3.61393H3.13444V2.2806H5.80111V0.947266H11.1344V2.2806H15.1344V3.61393H17.8011V2.2806H20.4678V0.947266H24.4678V22.2806H21.8011V23.6139H19.1344V24.9473H13.8011V23.6139H9.80111V22.2806H7.13444V23.6139H4.46777V24.9473H0.467773V3.61393ZM3.13444 6.2806V20.9473H5.80111V19.6139H7.13444V4.94727H4.46777V6.2806H3.13444ZM13.8011 4.94727H9.80111V19.6139H11.1344V20.9473H15.1344V6.2806H13.8011V4.94727ZM19.1344 6.2806H17.8011V20.9473H20.4678V19.6139H21.8011V4.94727H19.1344V6.2806Z" fill="#9FA6AC"/>
<rect x="2.46777" y="4.44727" width="5" height="17" fill="#9FA6AC"/>
<rect x="17.4678" y="4.44727" width="5" height="17" fill="#9FA6AC"/>
</g>
<defs>
<clipPath id="clip0_4838_45775">
<rect width="24" height="24" fill="white" transform="translate(0.467773 0.947266)"/>
</clipPath>
</defs>
</svg>
