<svg width="53" height="53" viewBox="0 0 53 53" fill="none" xmlns="http://www.w3.org/2000/svg">
<rect x="0.136719" y="0.447266" width="52" height="52" rx="26" fill="#4544FF"/>
<mask id="mask0_4208_55668" style="mask-type:alpha" maskUnits="userSpaceOnUse" x="9" y="10" width="30" height="30">
<rect x="9.90234" y="10.2122" width="29.0922" height="29.0922" fill="#D9D9D9"/>
</mask>
<g mask="url(#mask0_4208_55668)">
<path d="M17.0615 36.0202H18.9088L31.5808 23.3482L29.7335 21.5009L17.0615 34.1729V36.0202ZM14.4688 38.6129V33.1034L31.5808 16.0237C31.8401 15.7861 32.1264 15.6024 32.4396 15.4728C32.7529 15.3431 33.0824 15.2783 33.4281 15.2783C33.7738 15.2783 34.1087 15.3431 34.4328 15.4728C34.7569 15.6024 35.0378 15.7969 35.2755 16.0561L37.058 17.8711C37.3172 18.1087 37.5063 18.3896 37.6251 18.7137C37.744 19.0378 37.8034 19.3619 37.8034 19.686C37.8034 20.0317 37.744 20.3612 37.6251 20.6745C37.5063 20.9877 37.3172 21.274 37.058 21.5333L19.9783 38.6129H14.4688ZM30.6409 22.4408L29.7335 21.5009L31.5808 23.3482L30.6409 22.4408Z" fill="white"/>
</g>
</svg>
