<svg width="21" height="21" viewBox="0 0 21 21" fill="none" xmlns="http://www.w3.org/2000/svg">
<g clip-path="url(#clip0_4958_6969)">
<path d="M5.13672 2.11393V0.447266L3.47005 0.447266V2.11393H5.13672Z" fill="#9FA6AC"/>
<path d="M3.4707 3.7806V2.11393H1.80404V3.7806H3.4707Z" fill="#9FA6AC"/>
<path d="M6.80273 2.11393V0.447266L5.13607 0.447266V2.11393H6.80273Z" fill="#9FA6AC"/>
<path d="M8.4707 2.11393V0.447266L6.80404 0.447266V2.11393H8.4707Z" fill="#9FA6AC"/>
<path d="M10.1367 2.11393V0.447266L8.47005 0.447266V2.11393H10.1367Z" fill="#9FA6AC"/>
<path d="M1.80339 8.7806H0.136719V10.4473H1.80339V8.7806Z" fill="#9FA6AC"/>
<path d="M3.4694 10.4473H1.80273V12.1139H3.4694V10.4473Z" fill="#9FA6AC"/>
<path d="M1.80339 7.11393H0.136719V8.7806H1.80339V7.11393Z" fill="#9FA6AC"/>
<path d="M1.80339 5.44727H0.136719V7.11393H1.80339V5.44727Z" fill="#9FA6AC"/>
<path d="M1.80339 3.7806H0.136719V5.44726H1.80339V3.7806Z" fill="#9FA6AC"/>
<path d="M8.4707 12.1139V13.7806H10.1374V12.1139H8.4707Z" fill="#9FA6AC"/>
<path d="M10.1367 10.4473V12.1139H11.8034V10.4473H10.1367Z" fill="#9FA6AC"/>
<path d="M11.8027 12.1139V13.7806H13.4694V12.1139H11.8027Z" fill="#9FA6AC"/>
<path d="M11.8027 13.7806V15.4473H13.4694V13.7806H11.8027Z" fill="#9FA6AC"/>
<path d="M13.4707 12.1139V13.7806H15.1374V12.1139H13.4707Z" fill="#9FA6AC"/>
<path d="M13.4707 13.7806V15.4473H15.1374V13.7806H13.4707Z" fill="#9FA6AC"/>
<path d="M13.4707 15.4473V17.1139H15.1374V15.4473H13.4707Z" fill="#9FA6AC"/>
<path d="M15.1367 13.7806V15.4473H16.8034V13.7806H15.1367Z" fill="#9FA6AC"/>
<path d="M15.1367 15.4473V17.1139H16.8034V15.4473H15.1367Z" fill="#9FA6AC"/>
<path d="M15.1367 17.1139V18.7806H16.8034V17.1139H15.1367Z" fill="#9FA6AC"/>
<path d="M16.8027 15.4473V17.1139H18.4694V15.4473H16.8027Z" fill="#9FA6AC"/>
<path d="M16.8027 17.1139V18.7806H18.4694V17.1139H16.8027Z" fill="#9FA6AC"/>
<path d="M16.8027 18.7806V20.4473H18.4694V18.7806H16.8027Z" fill="#9FA6AC"/>
<path d="M18.4707 17.1139V18.7806H20.1374V17.1139H18.4707Z" fill="#9FA6AC"/>
<path d="M18.4707 18.7806V20.4473H20.1374V18.7806H18.4707Z" fill="#9FA6AC"/>
<path d="M6.80273 12.1139V13.7806H8.4694V12.1139H6.80273Z" fill="#9FA6AC"/>
<path d="M5.13672 12.1139V13.7806H6.80339V12.1139H5.13672Z" fill="#9FA6AC"/>
<path d="M3.4707 12.1139V13.7806H5.13737V12.1139H3.4707Z" fill="#9FA6AC"/>
<path d="M11.804 5.44727H13.4707V3.7806H11.804V5.44727Z" fill="#9FA6AC"/>
<path d="M10.1361 3.7806H11.8027V2.11393H10.1361V3.7806Z" fill="#9FA6AC"/>
<path d="M11.804 7.11393H13.4707V5.44727H11.804V7.11393Z" fill="#9FA6AC"/>
<path d="M11.804 8.7806H13.4707V7.11393H11.804V8.7806Z" fill="#9FA6AC"/>
<path d="M11.804 10.4473H13.4707V8.7806H11.804V10.4473Z" fill="#9FA6AC"/>
</g>
<defs>
<clipPath id="clip0_4958_6969">
<rect width="20" height="20" fill="white" transform="translate(0.136719 0.447266)"/>
</clipPath>
</defs>
</svg>
