<svg xmlns="http://www.w3.org/2000/svg" width="80" height="80" viewBox="0 0 80 80" fill="none">
  <path d="M26.6666 6.6665L33.3333 6.6665V-0.000162601L26.6666 -0.000162601V6.6665Z" fill="#9FA6AC"/>
  <path d="M19.9998 13.3333H26.6665V6.66659L19.9998 6.66659V13.3333Z" fill="#9FA6AC"/>
  <path d="M33.3333 6.6665L40 6.6665V-0.000162601L33.3333 -0.000162601V6.6665Z" fill="#9FA6AC"/>
  <path d="M39.9998 6.6665L46.6665 6.6665V-0.000162601L39.9998 -0.000162601V6.6665Z" fill="#9FA6AC"/>
  <path d="M46.6666 6.6665L53.3333 6.6665V-0.000162601L46.6666 -0.000162601V6.6665Z" fill="#9FA6AC"/>
  <path d="M20 39.9999V33.3333H13.3333V39.9999H20Z" fill="#9FA6AC"/>
  <path d="M26.6665 46.6667V40H19.9998V46.6667H26.6665Z" fill="#9FA6AC"/>
  <path d="M20 33.3332V26.6665H13.3333V33.3332H20Z" fill="#9FA6AC"/>
  <path d="M20 26.6667V20H13.3333V26.6667H20Z" fill="#9FA6AC"/>
  <path d="M20 19.9999V13.3333H13.3333V19.9999H20Z" fill="#9FA6AC"/>
  <path d="M53.3332 46.6665H46.6665V53.3332H53.3332V46.6665Z" fill="#9FA6AC"/>
  <path d="M59.9999 40H53.3333V46.6667H59.9999V40Z" fill="#9FA6AC"/>
  <path d="M46.6667 46.6665H40V53.3332H46.6667V46.6665Z" fill="#9FA6AC"/>
  <path d="M39.9999 46.6665H33.3333V53.3332H39.9999V46.6665Z" fill="#9FA6AC"/>
  <path d="M33.3332 46.6665H26.6665V53.3332H33.3332V46.6665Z" fill="#9FA6AC"/>
  <path d="M53.3332 40H46.6665V46.6667H53.3332V40Z" fill="#9FA6AC"/>
  <path d="M46.6667 40H40V46.6667H46.6667V40Z" fill="#9FA6AC"/>
  <path d="M39.9999 40H33.3333V46.6667H39.9999V40Z" fill="#9FA6AC"/>
  <path d="M33.3332 40H26.6665V46.6667H33.3332V40Z" fill="#9FA6AC"/>
  <path d="M53.3332 33.3333H46.6665V39.9999H53.3332V33.3333Z" fill="#9FA6AC"/>
  <path d="M46.6667 33.3333H40V39.9999H46.6667V33.3333Z" fill="#9FA6AC"/>
  <path d="M39.9999 33.3333H33.3333V39.9999H39.9999V33.3333Z" fill="#9FA6AC"/>
  <path d="M33.3332 33.3333H26.6665V39.9999H33.3332V33.3333Z" fill="#9FA6AC"/>
  <path d="M53.3332 26.6665H46.6665V33.3332H53.3332V26.6665Z" fill="#9FA6AC"/>
  <path d="M46.6667 26.6665H40V33.3332H46.6667V26.6665Z" fill="#9FA6AC"/>
  <path d="M39.9999 26.6665H33.3333V33.3332H39.9999V26.6665Z" fill="#9FA6AC"/>
  <path d="M33.3332 26.6665H26.6665V33.3332H33.3332V26.6665Z" fill="#9FA6AC"/>
  <path d="M53.3332 20H46.6665V26.6667H53.3332V20Z" fill="#9FA6AC"/>
  <path d="M46.6667 20H40V26.6667H46.6667V20Z" fill="#9FA6AC"/>
  <path d="M39.9999 20H33.3333V26.6667H39.9999V20Z" fill="#9FA6AC"/>
  <path d="M33.3332 20H26.6665V26.6667H33.3332V20Z" fill="#9FA6AC"/>
  <path d="M53.3332 13.3333H46.6665V19.9999H53.3332V13.3333Z" fill="#9FA6AC"/>
  <path d="M46.6667 13.3333H40V19.9999H46.6667V13.3333Z" fill="#9FA6AC"/>
  <path d="M39.9999 13.3333H33.3333V19.9999H39.9999V13.3333Z" fill="#9FA6AC"/>
  <path d="M33.3332 13.3333H26.6665V19.9999H33.3332V13.3333Z" fill="#9FA6AC"/>
  <path d="M53.3332 6.6665H46.6665V13.3332H53.3332V6.6665Z" fill="#9FA6AC"/>
  <path d="M46.6667 6.6665H40V13.3332H46.6667V6.6665Z" fill="#9FA6AC"/>
  <path d="M39.9999 6.6665H33.3333V13.3332H39.9999V6.6665Z" fill="#9FA6AC"/>
  <path d="M33.3332 6.6665H26.6665V13.3332H33.3332V6.6665Z" fill="#9FA6AC"/>
  <path d="M53.3333 59.9998V66.6665H59.9999V59.9998H53.3333Z" fill="#9FA6AC"/>
  <path d="M60 66.6666V73.3333H66.6667V66.6666H60Z" fill="#9FA6AC"/>
  <path d="M60 73.3333V80H66.6667V73.3333H60Z" fill="#9FA6AC"/>
  <path d="M66.6665 73.3333V80H73.3332V73.3333H66.6665Z" fill="#9FA6AC"/>
  <path d="M66.6665 66.6666V73.3333H73.3332V66.6666H66.6665Z" fill="#9FA6AC"/>
  <path d="M26.6666 66.6665H33.3333V59.9998H26.6666V66.6665Z" fill="#9FA6AC"/>
  <path d="M19.9998 66.6665H26.6665V59.9998H19.9998V66.6665Z" fill="#9FA6AC"/>
  <path d="M13.3333 73.3333H20V66.6666H13.3333V73.3333Z" fill="#9FA6AC"/>
  <path d="M60 59.9998V66.6665H66.6667V59.9998H60Z" fill="#9FA6AC"/>
  <path d="M13.3333 66.6665H20V59.9998H13.3333V66.6665Z" fill="#9FA6AC"/>
  <path d="M13.3333 80H20V73.3333H13.3333V80Z" fill="#9FA6AC"/>
  <path d="M6.66659 80H13.3333V73.3333H6.66659L6.66659 80Z" fill="#9FA6AC"/>
  <path d="M6.66659 73.3333H13.3333V66.6666H6.66659L6.66659 73.3333Z" fill="#9FA6AC"/>
  <path d="M33.3333 66.6665H40V59.9998H33.3333V66.6665Z" fill="#9FA6AC"/>
  <path d="M39.9998 66.6665H46.6665V59.9998H39.9998V66.6665Z" fill="#9FA6AC"/>
  <path d="M46.6666 66.6665H53.3333V59.9998H46.6666V66.6665Z" fill="#9FA6AC"/>
  <path d="M53.3333 66.6666V73.3333H59.9999V66.6666H53.3333Z" fill="#9FA6AC"/>
  <path d="M26.6666 73.3333H33.3333V66.6666H26.6666V73.3333Z" fill="#9FA6AC"/>
  <path d="M19.9998 73.3333H26.6665V66.6666H19.9998V73.3333Z" fill="#9FA6AC"/>
  <path d="M33.3333 73.3333H40V66.6666H33.3333V73.3333Z" fill="#9FA6AC"/>
  <path d="M39.9998 73.3333H46.6665V66.6666H39.9998V73.3333Z" fill="#9FA6AC"/>
  <path d="M46.6666 73.3333H53.3333V66.6666H46.6666V73.3333Z" fill="#9FA6AC"/>
  <path d="M53.3333 73.3333V80H59.9999V73.3333H53.3333Z" fill="#9FA6AC"/>
  <path d="M26.6666 80H33.3333V73.3333H26.6666V80Z" fill="#9FA6AC"/>
  <path d="M19.9998 80H26.6665V73.3333H19.9998V80Z" fill="#9FA6AC"/>
  <path d="M33.3333 80H40V73.3333H33.3333V80Z" fill="#9FA6AC"/>
  <path d="M39.9998 80H46.6665V73.3333H39.9998V80Z" fill="#9FA6AC"/>
  <path d="M46.6666 80H53.3333V73.3333H46.6666V80Z" fill="#9FA6AC"/>
  <path d="M60 13.3333V20H66.6667V13.3333H60Z" fill="#9FA6AC"/>
  <path d="M53.3333 6.66659V13.3333H59.9999V6.66659H53.3333Z" fill="#9FA6AC"/>
  <path d="M60 19.9998V26.6665H66.6667V19.9998H60Z" fill="#9FA6AC"/>
  <path d="M60 26.6666V33.3333H66.6667V26.6666H60Z" fill="#9FA6AC"/>
  <path d="M60 33.3333V40H66.6667V33.3333H60Z" fill="#9FA6AC"/>
  <path d="M53.3333 13.3333V20H59.9999V13.3333H53.3333Z" fill="#9FA6AC"/>
  <path d="M53.3333 19.9998V26.6665H59.9999V19.9998H53.3333Z" fill="#9FA6AC"/>
  <path d="M53.3333 26.6666V33.3333H59.9999V26.6666H53.3333Z" fill="#9FA6AC"/>
  <path d="M53.3333 33.3333V40H59.9999V33.3333H53.3333Z" fill="#9FA6AC"/>
  <path d="M20 13.3333V20H26.6667V13.3333H20Z" fill="#9FA6AC"/>
  <path d="M20 19.9998V26.6665H26.6667V19.9998H20Z" fill="#9FA6AC"/>
  <path d="M20 26.6666V33.3333H26.6667V26.6666H20Z" fill="#9FA6AC"/>
  <path d="M20 33.3333V40H26.6667V33.3333H20Z" fill="#9FA6AC"/>
</svg>