<svg xmlns="http://www.w3.org/2000/svg" width="32" height="32" viewBox="0 0 33 32" fill="none">
  <g clip-path="url(#clip0_56_642)">
    <path d="M8.28809 26.6682V29.3348H10.9548V26.6682H8.28809Z" fill="black"/>
    <path d="M2.95776 10.6681V13.3348H5.62443V10.6681H2.95776Z" fill="black"/>
    <path d="M0.288086 8.00075L0.288086 10.6674H2.95475V8.00075H0.288086Z" fill="black"/>
    <path d="M0.288086 10.6681L0.288086 13.3348H2.95475V10.6681H0.288086Z" fill="black"/>
    <path d="M0.288086 5.33333L0.288086 8H2.95475V5.33333H0.288086Z" fill="black"/>
    <path d="M2.95776 2.66817V5.33484H5.62443V2.66817H2.95776Z" fill="black"/>
    <path d="M5.61841 0.000752926V2.66742H8.28507V0.000752926H5.61841Z" fill="black"/>
    <path d="M26.9578 10.6681V13.3348H29.6244V10.6681H26.9578Z" fill="black"/>
    <path d="M29.6184 8.00075V10.6674H32.2851V8.00075H29.6184Z" fill="black"/>
    <path d="M29.6184 10.6681V13.3348H32.2851V10.6681H29.6184Z" fill="black"/>
    <path d="M29.6184 5.33333V8H32.2851V5.33333H29.6184Z" fill="black"/>
    <path d="M26.9578 2.66817V5.33484H29.6244V2.66817H26.9578Z" fill="black"/>
    <path d="M24.2881 0.000752926V2.66742H26.9548V0.000752926H24.2881Z" fill="black"/>
    <path d="M5.61841 8.00075V10.6674H8.28507V8.00075H5.61841Z" fill="black"/>
    <path d="M24.2881 8.00075V10.6674H26.9548V8.00075H24.2881Z" fill="black"/>
    <path d="M10.9578 26.6682V29.3348H13.6244V26.6682H10.9578Z" fill="black"/>
    <path d="M13.6184 26.6682V29.3348H16.2851V26.6682H13.6184Z" fill="black"/>
    <path d="M16.2881 26.6682V29.3348H18.9548V26.6682H16.2881Z" fill="black"/>
    <path d="M18.9578 26.6682V29.3348H21.6244V26.6682H18.9578Z" fill="black"/>
    <path d="M21.6184 26.6682V29.3348H24.2851V26.6682H21.6184Z" fill="black"/>
    <path d="M8.28809 29.3333V32H10.9548V29.3333H8.28809Z" fill="black"/>
    <path d="M10.9578 29.3333V32H13.6244V29.3333H10.9578Z" fill="black"/>
    <path d="M13.6184 29.3333V32H16.2851V29.3333H13.6184Z" fill="black"/>
    <path d="M16.2881 29.3333V32H18.9548V29.3333H16.2881Z" fill="black"/>
    <path d="M18.9578 29.3333V32H21.6244V29.3333H18.9578Z" fill="black"/>
    <path d="M21.6184 29.3333V32H24.2851V29.3333H21.6184Z" fill="black"/>
    <path d="M8.28809 24.0008V26.6674H10.9548V24.0008H8.28809Z" fill="black"/>
    <path d="M10.9578 24.0008V26.6674H13.6244V24.0008H10.9578Z" fill="black"/>
    <path d="M13.6184 24.0008V26.6674H16.2851V24.0008H13.6184Z" fill="black"/>
    <path d="M16.2881 24.0008V26.6674H18.9548V24.0008H16.2881Z" fill="black"/>
    <path d="M18.9578 24.0008V26.6674H21.6244V24.0008H18.9578Z" fill="black"/>
    <path d="M21.6184 24.0008V26.6674H24.2851V24.0008H21.6184Z" fill="black"/>
    <path d="M8.28809 21.3333V24H10.9548V21.3333H8.28809Z" fill="black"/>
    <path d="M10.9578 21.3333V24H13.6244V21.3333H10.9578Z" fill="black"/>
    <path d="M13.6184 21.3333V24H16.2851V21.3333H13.6184Z" fill="black"/>
    <path d="M16.2881 21.3333V24H18.9548V21.3333H16.2881Z" fill="black"/>
    <path d="M18.9578 21.3333V24H21.6244V21.3333H18.9578Z" fill="black"/>
    <path d="M21.6184 21.3333V24H24.2851V21.3333H21.6184Z" fill="black"/>
    <path d="M8.28809 18.6682V21.3348H10.9548V18.6682H8.28809Z" fill="black"/>
    <path d="M10.9578 18.6682V21.3348H13.6244V18.6682H10.9578Z" fill="black"/>
    <path d="M13.6184 18.6682V21.3348H16.2851V18.6682H13.6184Z" fill="black"/>
    <path d="M16.2881 18.6682V21.3348H18.9548V18.6682H16.2881Z" fill="black"/>
    <path d="M18.9578 18.6682V21.3348H21.6244V18.6682H18.9578Z" fill="black"/>
    <path d="M21.6184 18.6682V21.3348H24.2851V18.6682H21.6184Z" fill="black"/>
    <path d="M8.28809 16.0008V18.6674H10.9548V16.0008H8.28809Z" fill="black"/>
    <path d="M10.9578 16.0008V18.6674H13.6244V16.0008H10.9578Z" fill="black"/>
    <path d="M13.6184 16.0008V18.6674H16.2851V16.0008H13.6184Z" fill="black"/>
    <path d="M16.2881 16.0008V18.6674H18.9548V16.0008H16.2881Z" fill="black"/>
    <path d="M18.9578 16.0008V18.6674H21.6244V16.0008H18.9578Z" fill="black"/>
    <path d="M21.6184 16.0008V18.6674H24.2851V16.0008H21.6184Z" fill="black"/>
    <path d="M8.28809 13.3333V16H10.9548V13.3333H8.28809Z" fill="black"/>
    <path d="M10.9578 13.3333V16H13.6244V13.3333H10.9578Z" fill="black"/>
    <path d="M13.6184 13.3333V16H16.2851V13.3333H13.6184Z" fill="black"/>
    <path d="M16.2881 13.3333V16H18.9548V13.3333H16.2881Z" fill="black"/>
    <path d="M18.9578 13.3333V16H21.6244V13.3333H18.9578Z" fill="black"/>
    <path d="M21.6184 13.3333V16H24.2851V13.3333H21.6184Z" fill="black"/>
    <path d="M8.28809 10.6681V13.3348H10.9548V10.6681H8.28809Z" fill="black"/>
    <path d="M10.9578 10.6681V13.3348H13.6244V10.6681H10.9578Z" fill="black"/>
    <path d="M13.6184 10.6681V13.3348H16.2851V10.6681H13.6184Z" fill="black"/>
    <path d="M16.2881 10.6681V13.3348H18.9548V10.6681H16.2881Z" fill="black"/>
    <path d="M18.9578 10.6681V13.3348H21.6244V10.6681H18.9578Z" fill="black"/>
    <path d="M21.6184 10.6681V13.3348H24.2851V10.6681H21.6184Z" fill="black"/>
    <path d="M8.28809 8.00075V10.6674H10.9548V8.00075H8.28809Z" fill="black"/>
    <path d="M10.9578 8.00075V10.6674H13.6244V8.00075H10.9578Z" fill="black"/>
    <path d="M13.6184 8.00075V10.6674H16.2851V8.00075H13.6184Z" fill="black"/>
    <path d="M16.2881 8.00075V10.6674H18.9548V8.00075H16.2881Z" fill="black"/>
    <path d="M18.9578 8.00075V10.6674H21.6244V8.00075H18.9578Z" fill="black"/>
    <path d="M21.6184 8.00075V10.6674H24.2851V8.00075H21.6184Z" fill="black"/>
    <path d="M8.28809 5.33333V8H10.9548V5.33333H8.28809Z" fill="black"/>
    <path d="M10.9578 5.33333V8H13.6244V5.33333H10.9578Z" fill="black"/>
    <path d="M13.6184 5.33333V8H16.2851V5.33333H13.6184Z" fill="black"/>
    <path d="M16.2881 5.33333V8H18.9548V5.33333H16.2881Z" fill="black"/>
    <path d="M18.9578 5.33333V8H21.6244V5.33333H18.9578Z" fill="black"/>
    <path d="M21.6184 5.33333V8H24.2851V5.33333H21.6184Z" fill="black"/>
    <path d="M8.28809 2.66817V5.33484H10.9548V2.66817H8.28809Z" fill="black"/>
    <path d="M5.61841 5.33333V8H8.28507V5.33333H5.61841Z" fill="black"/>
    <path d="M5.61841 2.66817V5.33484H8.28507V2.66817H5.61841Z" fill="black"/>
    <path d="M2.95776 8.00075V10.6674H5.62443V8.00075H2.95776Z" fill="black"/>
    <path d="M2.95776 5.33333V8H5.62443V5.33333H2.95776Z" fill="black"/>
    <path d="M10.9578 2.66817V5.33484H13.6244V2.66817H10.9578Z" fill="black"/>
    <path d="M18.9578 2.66817V5.33484H21.6244V2.66817H18.9578Z" fill="black"/>
    <path d="M26.9578 8.00075V10.6674H29.6244V8.00075H26.9578Z" fill="black"/>
    <path d="M24.2881 5.33333V8H26.9548V5.33333H24.2881Z" fill="black"/>
    <path d="M26.9578 5.33333V8H29.6244V5.33333H26.9578Z" fill="black"/>
    <path d="M24.2881 2.66817V5.33484H26.9548V2.66817H24.2881Z" fill="black"/>
    <path d="M21.6184 2.66817V5.33484H24.2851V2.66817H21.6184Z" fill="black"/>
    <path d="M8.28809 0.000752926V2.66742H10.9548V0.000752926H8.28809Z" fill="black"/>
    <path d="M21.6184 0.000752926V2.66742H24.2851V0.000752926H21.6184Z" fill="black"/>
  </g>
  <defs>
    <clipPath id="clip0_56_642">
      <rect width="32" height="32" fill="white" transform="translate(0.288086)"/>
    </clipPath>
  </defs>
</svg>