<svg xmlns="http://www.w3.org/2000/svg" width="29" height="28" viewBox="0 0 29 28" fill="none">
  <g clip-path="url(#clip0_56_495)">
    <path d="M5.37903 2.54549V5.09094H7.92448V2.54549H5.37903Z" fill="black"/>
    <path d="M5.37903 1.66893e-05V2.54547H7.92448V1.66893e-05H5.37903Z" fill="black"/>
    <path d="M2.83362 5.09096V7.63641H5.37907V5.09096H2.83362Z" fill="black"/>
    <path d="M0.288086 5.09096L0.288086 7.63641H2.83354V5.09096H0.288086Z" fill="black"/>
    <path d="M2.83362 7.63637V10.1818H5.37907V7.63637H2.83362Z" fill="black"/>
    <path d="M0.288086 7.63637L0.288086 10.1818H2.83354V7.63637H0.288086Z" fill="black"/>
    <path d="M7.92444 5.09096V7.63641H10.4699V5.09096H7.92444Z" fill="black"/>
    <path d="M5.37903 5.09096V7.63641H7.92448V5.09096H5.37903Z" fill="black"/>
    <path d="M7.92444 7.63637V10.1818H10.4699V7.63637H7.92444Z" fill="black"/>
    <path d="M18.1063 17.8182V20.3636H20.6518V17.8182H18.1063Z" fill="black"/>
    <path d="M20.6517 20.3636V22.9091H23.1972V20.3636H20.6517Z" fill="black"/>
    <path d="M5.37898 22.9091H7.92444V20.3636H5.37898V22.9091Z" fill="black"/>
    <path d="M7.92452 20.3636H10.47V17.8182H7.92452V20.3636Z" fill="black"/>
    <path d="M18.1063 10.1818H20.6517V7.63637H18.1063V10.1818Z" fill="black"/>
    <path d="M20.6518 7.63641H23.1973V5.09096H20.6518V7.63641Z" fill="black"/>
    <path d="M10.47 5.09096V7.63641H13.0154V5.09096H10.47Z" fill="black"/>
    <path d="M10.47 2.54549V5.09094H13.0154V2.54549H10.47Z" fill="black"/>
    <path d="M5.37903 7.63637V10.1818H7.92448V7.63637H5.37903Z" fill="black"/>
    <path d="M5.37903 10.1818V12.7273H7.92448V10.1818H5.37903Z" fill="black"/>
    <path d="M2.83362 10.1818V12.7273H5.37907V10.1818H2.83362Z" fill="black"/>
    <path d="M7.92444 10.1818V12.7273H10.4699V10.1818H7.92444Z" fill="black"/>
    <path d="M10.47 7.63637V10.1818H13.0154V7.63637H10.47Z" fill="black"/>
    <path d="M7.92444 2.54549V5.09094H10.4699V2.54549H7.92444Z" fill="black"/>
    <path d="M7.92444 1.66893e-05V2.54547H10.4699V1.66893e-05H7.92444Z" fill="black"/>
    <path d="M25.7427 5.09094H23.1973V7.6364H25.7427V5.09094Z" fill="black"/>
    <path d="M28.2881 5.09094H25.7427V7.6364H28.2881V5.09094Z" fill="black"/>
    <path d="M23.1972 2.54547H20.6517V5.09093H23.1972V2.54547Z" fill="black"/>
    <path d="M23.1972 0H20.6517V2.54545H23.1972V0Z" fill="black"/>
    <path d="M20.6518 2.54547H18.1063V5.09093H20.6518V2.54547Z" fill="black"/>
    <path d="M20.6518 0H18.1063V2.54545H20.6518V0Z" fill="black"/>
    <path d="M23.1972 7.63641H20.6517V10.1819H23.1972V7.63641Z" fill="black"/>
    <path d="M23.1972 10.1818H20.6517V12.7273H23.1972V10.1818Z" fill="black"/>
    <path d="M25.7427 10.1818H23.1973V12.7273H25.7427V10.1818Z" fill="black"/>
    <path d="M20.6518 5.09094H18.1063V7.6364H20.6518V5.09094Z" fill="black"/>
    <path d="M18.1064 5.09094H15.5609V7.6364H18.1064V5.09094Z" fill="black"/>
    <path d="M18.1064 2.54547H15.5609V5.09093H18.1064V2.54547Z" fill="black"/>
    <path d="M18.1064 7.63641H15.5609V10.1819H18.1064V7.63641Z" fill="black"/>
    <path d="M20.6518 10.1818H18.1063V12.7273H20.6518V10.1818Z" fill="black"/>
    <path d="M13.0154 10.1818H10.47V12.7273H13.0154V10.1818Z" fill="black"/>
    <path d="M13.0154 15.2728H10.47V17.8182H13.0154V15.2728Z" fill="black"/>
    <path d="M18.1064 10.1818H15.5609V12.7273H18.1064V10.1818Z" fill="black"/>
    <path d="M18.1064 15.2728H15.5609V17.8182H18.1064V15.2728Z" fill="black"/>
    <path d="M25.7427 7.63641H23.1973V10.1819H25.7427V7.63641Z" fill="black"/>
    <path d="M28.2881 7.63641H25.7427V10.1819H28.2881V7.63641Z" fill="black"/>
    <path d="M23.1973 25.4545V22.9091H20.6518V25.4545H23.1973Z" fill="black"/>
    <path d="M23.1973 28V25.4546H20.6518V28H23.1973Z" fill="black"/>
    <path d="M25.7427 22.9091V20.3636H23.1972V22.9091H25.7427Z" fill="black"/>
    <path d="M28.2881 22.9091V20.3636H25.7426V22.9091H28.2881Z" fill="black"/>
    <path d="M25.7427 20.3636V17.8182H23.1972V20.3636H25.7427Z" fill="black"/>
    <path d="M28.2881 20.3636V17.8182H25.7426V20.3636H28.2881Z" fill="black"/>
    <path d="M20.6517 22.9091V20.3636H18.1063V22.9091H20.6517Z" fill="black"/>
    <path d="M18.1063 22.9091V20.3636H15.5609V22.9091H18.1063Z" fill="black"/>
    <path d="M18.1063 25.4545V22.9091H15.5609V25.4545H18.1063Z" fill="black"/>
    <path d="M23.1973 20.3636V17.8182H20.6518V20.3636H23.1973Z" fill="black"/>
    <path d="M23.1973 17.8182V15.2728H20.6518V17.8182H23.1973Z" fill="black"/>
    <path d="M25.7427 17.8182V15.2728H23.1972V17.8182H25.7427Z" fill="black"/>
    <path d="M20.6517 17.8182V15.2728H18.1063V17.8182H20.6517Z" fill="black"/>
    <path d="M18.1063 20.3636V17.8182H15.5609V20.3636H18.1063Z" fill="black"/>
    <path d="M20.6517 25.4545V22.9091H18.1063V25.4545H20.6517Z" fill="black"/>
    <path d="M20.6517 28V25.4546H18.1063V28H20.6517Z" fill="black"/>
    <path d="M2.83357 22.9091H5.37903V20.3636H2.83357L2.83357 22.9091Z" fill="black"/>
    <path d="M0.288164 22.9091H2.83362L2.83362 20.3636H0.288164L0.288164 22.9091Z" fill="black"/>
    <path d="M5.37898 25.4546H7.92444V22.9091H5.37898V25.4546Z" fill="black"/>
    <path d="M5.37898 28H7.92444V25.4545H5.37898V28Z" fill="black"/>
    <path d="M7.92452 25.4546H10.47V22.9091H7.92452V25.4546Z" fill="black"/>
    <path d="M7.92452 28H10.47V25.4545H7.92452V28Z" fill="black"/>
    <path d="M5.37898 20.3636H7.92444V17.8182H5.37898V20.3636Z" fill="black"/>
    <path d="M5.37898 17.8182H7.92444V15.2727H5.37898V17.8182Z" fill="black"/>
    <path d="M2.83357 17.8182H5.37903V15.2727H2.83357L2.83357 17.8182Z" fill="black"/>
    <path d="M7.92452 22.9091H10.47V20.3636H7.92452V22.9091Z" fill="black"/>
    <path d="M10.4699 22.9091H13.0154V20.3636H10.4699V22.9091Z" fill="black"/>
    <path d="M10.4699 25.4546H13.0154V22.9091H10.4699V25.4546Z" fill="black"/>
    <path d="M10.4699 20.3636H13.0154V17.8182H10.4699V20.3636Z" fill="black"/>
    <path d="M7.92452 17.8182H10.47V15.2727H7.92452V17.8182Z" fill="black"/>
    <path d="M2.83357 20.3636H5.37903V17.8182H2.83357L2.83357 20.3636Z" fill="black"/>
    <path d="M0.288164 20.3636H2.83362L2.83362 17.8182H0.288164L0.288164 20.3636Z" fill="black"/>
  </g>
  <defs>
    <clipPath id="clip0_56_495">
      <rect width="28" height="28" fill="white" transform="translate(0.288086)"/>
    </clipPath>
  </defs>
</svg>