<svg xmlns="http://www.w3.org/2000/svg" width="29" height="28" viewBox="0 0 29 28" fill="none">
  <g clip-path="url(#clip0_56_357)">
    <path d="M11.9547 14V16.3333H14.288V14H11.9547Z" fill="black"/>
    <path d="M14.2881 14V16.3333H16.6214V14H14.2881Z" fill="black"/>
    <path d="M11.9547 11.6667V14H14.288V11.6667H11.9547Z" fill="black"/>
    <path d="M9.62146 14V16.3333H11.9548V14H9.62146Z" fill="black"/>
    <path d="M9.62146 11.6667V14H11.9548V11.6667H9.62146Z" fill="black"/>
    <path d="M7.28809 14V16.3333H9.62142V14H7.28809Z" fill="black"/>
    <path d="M7.28809 11.6667V14H9.62142V11.6667H7.28809Z" fill="black"/>
    <path d="M16.6215 14V16.3333H18.9548V14H16.6215Z" fill="black"/>
    <path d="M16.6215 11.6667V14H18.9548V11.6667H16.6215Z" fill="black"/>
    <path d="M18.9547 14V16.3333H21.288V14H18.9547Z" fill="black"/>
    <path d="M18.9547 11.6667V14H21.288V11.6667H18.9547Z" fill="black"/>
    <path d="M14.2881 11.6667V14H16.6214V11.6667H14.2881Z" fill="black"/>
    <path d="M23.6215 14V16.3333H25.9548V14H23.6215Z" fill="black"/>
    <path d="M23.6215 11.6667V14H25.9548V11.6667H23.6215Z" fill="black"/>
    <path d="M21.2881 9.33329V11.6666H23.6214V9.33329H21.2881Z" fill="black"/>
    <path d="M21.2881 18.6667V21H23.6214V18.6667H21.2881Z" fill="black"/>
    <path d="M21.2881 16.3333V18.6666H23.6214V16.3333H21.2881Z" fill="black"/>
    <path d="M2.62146 14V16.3333H4.95479V14H2.62146Z" fill="black"/>
    <path d="M2.62146 11.6667V14H4.95479V11.6667H2.62146Z" fill="black"/>
    <path d="M4.95471 9.33329V11.6666H7.28805V9.33329H4.95471Z" fill="black"/>
    <path d="M4.95471 18.6667V21H7.28805V18.6667H4.95471Z" fill="black"/>
    <path d="M21.2881 21V23.3334H23.6214V21H21.2881Z" fill="black"/>
    <path d="M4.95471 21V23.3334H7.28805V21H4.95471Z" fill="black"/>
    <path d="M21.2881 23.3333V25.6666H23.6214V23.3333H21.2881Z" fill="black"/>
    <path d="M4.95471 23.3333V25.6666H7.28805V23.3333H4.95471Z" fill="black"/>
    <path d="M21.2881 2.33329V4.66663H23.6214V2.33329H21.2881Z" fill="black"/>
    <path d="M4.95471 2.33329V4.66663H7.28805V2.33329H4.95471Z" fill="black"/>
    <path d="M21.2881 6.99998V9.33331H23.6214V6.99998H21.2881Z" fill="black"/>
    <path d="M4.95471 6.99998V9.33331H7.28805V6.99998H4.95471Z" fill="black"/>
    <path d="M21.2881 4.66667V7H23.6214V4.66667H21.2881Z" fill="black"/>
    <path d="M21.2881 14V16.3333H23.6214V14H21.2881Z" fill="black"/>
    <path d="M21.2881 11.6667V14H23.6214V11.6667H21.2881Z" fill="black"/>
    <path d="M18.9547 9.33329V11.6666H21.288V9.33329H18.9547Z" fill="black"/>
    <path d="M18.9547 18.6667V21H21.288V18.6667H18.9547Z" fill="black"/>
    <path d="M18.9547 16.3333V18.6666H21.288V16.3333H18.9547Z" fill="black"/>
    <path d="M18.9547 21V23.3334H21.288V21H18.9547Z" fill="black"/>
    <path d="M18.9547 23.3333V25.6666H21.288V23.3333H18.9547Z" fill="black"/>
    <path d="M18.9547 2.33329V4.66663H21.288V2.33329H18.9547Z" fill="black"/>
    <path d="M18.9547 6.99998V9.33331H21.288V6.99998H18.9547Z" fill="black"/>
    <path d="M18.9547 4.66667V7H21.288V4.66667H18.9547Z" fill="black"/>
    <path d="M4.95471 14V16.3333H7.28805V14H4.95471Z" fill="black"/>
    <path d="M4.95471 11.6667V14H7.28805V11.6667H4.95471Z" fill="black"/>
    <path d="M7.28809 9.33329V11.6666H9.62142V9.33329H7.28809Z" fill="black"/>
    <path d="M7.28809 18.6667V21H9.62142V18.6667H7.28809Z" fill="black"/>
    <path d="M7.28809 16.3333V18.6666H9.62142V16.3333H7.28809Z" fill="black"/>
    <path d="M7.28809 21V23.3334H9.62142V21H7.28809Z" fill="black"/>
    <path d="M7.28809 23.3333V25.6666H9.62142V23.3333H7.28809Z" fill="black"/>
    <path d="M7.28809 2.33329V4.66663H9.62142V2.33329H7.28809Z" fill="black"/>
    <path d="M7.28809 6.99998V9.33331H9.62142V6.99998H7.28809Z" fill="black"/>
    <path d="M7.28809 4.66667V7H9.62142V4.66667H7.28809Z" fill="black"/>
    <path d="M25.9547 14V16.3333H28.288V14H25.9547Z" fill="black"/>
    <path d="M25.9547 11.6667V14H28.288V11.6667H25.9547Z" fill="black"/>
    <path d="M25.9547 9.33329V11.6666H28.288V9.33329H25.9547Z" fill="black"/>
    <path d="M25.9547 18.6667V21H28.288V18.6667H25.9547Z" fill="black"/>
    <path d="M25.9547 16.3333V18.6666H28.288V16.3333H25.9547Z" fill="black"/>
    <path d="M25.9547 6.99998V9.33331H28.288V6.99998H25.9547Z" fill="black"/>
    <path d="M23.6215 9.33329V11.6666H25.9548V9.33329H23.6215Z" fill="black"/>
    <path d="M23.6215 18.6667V21H25.9548V18.6667H23.6215Z" fill="black"/>
    <path d="M23.6215 16.3333V18.6666H25.9548V16.3333H23.6215Z" fill="black"/>
    <path d="M23.6215 6.99998V9.33331H25.9548V6.99998H23.6215Z" fill="black"/>
    <path d="M4.95471 4.66667V7H7.28805V4.66667H4.95471Z" fill="black"/>
    <path d="M4.95471 16.3333V18.6666H7.28805V16.3333H4.95471Z" fill="black"/>
    <path d="M0.288086 14L0.288086 16.3333H2.62142V14H0.288086Z" fill="black"/>
    <path d="M0.288086 11.6667L0.288086 14H2.62142V11.6667H0.288086Z" fill="black"/>
    <path d="M0.288086 9.33329L0.288086 11.6666H2.62142V9.33329H0.288086Z" fill="black"/>
    <path d="M0.288086 18.6667L0.288086 21H2.62142V18.6667H0.288086Z" fill="black"/>
    <path d="M0.288086 6.99998L0.288086 9.33331H2.62142V6.99998H0.288086Z" fill="black"/>
    <path d="M0.288086 16.3333L0.288086 18.6666H2.62142V16.3333H0.288086Z" fill="black"/>
    <path d="M2.62146 9.33329V11.6666H4.95479V9.33329H2.62146Z" fill="black"/>
    <path d="M2.62146 18.6667V21H4.95479V18.6667H2.62146Z" fill="black"/>
    <path d="M2.62146 6.99998V9.33331H4.95479V6.99998H2.62146Z" fill="black"/>
    <path d="M2.62146 16.3333V18.6666H4.95479V16.3333H2.62146Z" fill="black"/>
  </g>
  <defs>
    <clipPath id="clip0_56_357">
      <rect width="28" height="28" fill="white" transform="translate(0.288086)"/>
    </clipPath>
  </defs>
</svg>