<svg xmlns="http://www.w3.org/2000/svg" width="32" height="32" viewBox="0 0 29 28" fill="none">
  <g clip-path="url(#clip0_56_839)">
    <path d="M0.288127 2.33331L2.62146 2.33331L2.62146 -2.02656e-05L0.288127 -2.02656e-05L0.288127 2.33331Z" fill="black"/>
    <path d="M2.62138 2.33331L4.95471 2.33331V-2.02656e-05L2.62138 -2.02656e-05L2.62138 2.33331Z" fill="black"/>
    <path d="M4.95475 2.33331L7.28809 2.33331V-2.02656e-05L4.95475 -2.02656e-05V2.33331Z" fill="black"/>
    <path d="M7.28813 2.33331L9.62146 2.33331V-2.02656e-05L7.28813 -2.02656e-05V2.33331Z" fill="black"/>
    <path d="M2.62142 4.66669H0.288086V7.00002H2.62142V4.66669Z" fill="black"/>
    <path d="M2.62142 7H0.288086V9.33333H2.62142V7Z" fill="black"/>
    <path d="M2.62142 2.33331H0.288086V4.66665H2.62142V2.33331Z" fill="black"/>
    <path d="M9.62142 7H7.28809V9.33333H9.62142V7Z" fill="black"/>
    <path d="M7.28805 7H4.95471V9.33333H7.28805V7Z" fill="black"/>
    <path d="M4.95479 7H2.62146V9.33333H4.95479V7Z" fill="black"/>
    <path d="M7.28813 4.66669H9.62146V2.33335L7.28813 2.33335V4.66669Z" fill="black"/>
    <path d="M7.28813 7H9.62146V4.66667H7.28813V7Z" fill="black"/>
    <path d="M3.78813 5.83331H6.12146V3.49998L3.78813 3.49998L3.78813 5.83331Z" fill="black"/>
    <path d="M0.288127 21H2.62146L2.62146 18.6667H0.288127L0.288127 21Z" fill="black"/>
    <path d="M2.62138 21H4.95471V18.6667H2.62138L2.62138 21Z" fill="black"/>
    <path d="M4.95475 21H7.28809V18.6667H4.95475V21Z" fill="black"/>
    <path d="M7.28813 21H9.62146V18.6667H7.28813V21Z" fill="black"/>
    <path d="M2.62142 23.3333H0.288086V25.6666H2.62142V23.3333Z" fill="black"/>
    <path d="M2.62142 25.6667H0.288086V28H2.62142V25.6667Z" fill="black"/>
    <path d="M2.62142 21H0.288086V23.3333H2.62142V21Z" fill="black"/>
    <path d="M9.62142 25.6667H7.28809V28H9.62142V25.6667Z" fill="black"/>
    <path d="M7.28805 25.6667H4.95471V28H7.28805V25.6667Z" fill="black"/>
    <path d="M4.95479 25.6667H2.62146V28H4.95479V25.6667Z" fill="black"/>
    <path d="M7.28813 23.3333H9.62146V21H7.28813V23.3333Z" fill="black"/>
    <path d="M25.9548 28H28.2881V25.6667H25.9548V28Z" fill="black"/>
    <path d="M25.9548 25.6667H28.2881V23.3334H25.9548V25.6667Z" fill="black"/>
    <path d="M23.6214 25.6667H25.9547V23.3334H23.6214V25.6667Z" fill="black"/>
    <path d="M18.9548 28H21.2881V25.6667H18.9548V28Z" fill="black"/>
    <path d="M18.9548 25.6667H21.2881V23.3334H18.9548V25.6667Z" fill="black"/>
    <path d="M16.6214 25.6667H18.9547V23.3334H16.6214V25.6667Z" fill="black"/>
    <path d="M21.2881 23.3333H23.6215V21H21.2881V23.3333Z" fill="black"/>
    <path d="M18.9548 21H21.2881V18.6667H18.9548V21Z" fill="black"/>
    <path d="M16.6214 23.3333H18.9547V21H16.6214V23.3333Z" fill="black"/>
    <path d="M18.9548 18.6667H21.2881V16.3334H18.9548V18.6667Z" fill="black"/>
    <path d="M23.6214 21H25.9547V18.6667H23.6214V21Z" fill="black"/>
    <path d="M23.6214 18.6667H25.9547V16.3334H23.6214V18.6667Z" fill="black"/>
    <path d="M25.9548 18.6667H28.2881V16.3334H25.9548V18.6667Z" fill="black"/>
    <path d="M23.6214 16.9167H25.9547V14.5834H23.6214V16.9167Z" fill="black"/>
    <path d="M23.6214 16.3333H25.9547V14H23.6214V16.3333Z" fill="black"/>
    <path d="M21.2881 14H23.6215V11.6667H21.2881V14Z" fill="black"/>
    <path d="M25.9548 14H28.2881V11.6667H25.9548V14Z" fill="black"/>
    <path d="M16.6214 14H18.9547V11.6667H16.6214V14Z" fill="black"/>
    <path d="M16.6214 16.3333H18.9547V14H16.6214V16.3333Z" fill="black"/>
    <path d="M25.9548 23.3333H28.2881V21H25.9548V23.3333Z" fill="black"/>
    <path d="M14.2881 21H16.6215V18.6667H14.2881V21Z" fill="black"/>
    <path d="M11.9548 23.3333H14.2881V21H11.9548V23.3333Z" fill="black"/>
    <path d="M14.2881 25.6667H16.6215V23.3334H14.2881V25.6667Z" fill="black"/>
    <path d="M11.9548 28H14.2881V25.6667H11.9548V28Z" fill="black"/>
    <path d="M14.2881 18.6667H16.6215V16.3334H14.2881V18.6667Z" fill="black"/>
    <path d="M11.9548 18.6667H14.2881V16.3334H11.9548V18.6667Z" fill="black"/>
    <path d="M9.62138 16.3333H11.9547V14H9.62138V16.3333Z" fill="black"/>
    <path d="M14.2881 16.3333H16.6215V14H14.2881V16.3333Z" fill="black"/>
    <path d="M11.9548 14H14.2881V11.6667H11.9548V14Z" fill="black"/>
    <path d="M7.28813 14H9.62146V11.6667H7.28813V14Z" fill="black"/>
    <path d="M4.95475 16.3333H7.28809V14H4.95475V16.3333Z" fill="black"/>
    <path d="M2.62138 14H4.95471V11.6667H2.62138L2.62138 14Z" fill="black"/>
    <path d="M11.9548 9.33331H14.2881V6.99998H11.9548V9.33331Z" fill="black"/>
    <path d="M14.2881 4.66669H16.6215V2.33335L14.2881 2.33335V4.66669Z" fill="black"/>
    <path d="M11.9548 2.33331L14.2881 2.33331V-2.02656e-05L11.9548 -2.02656e-05V2.33331Z" fill="black"/>
    <path d="M14.2881 9.33331H16.6215V6.99998H14.2881V9.33331Z" fill="black"/>
    <path d="M14.2881 11.6667H16.6215V9.33335H14.2881V11.6667Z" fill="black"/>
    <path d="M7.28813 25.6667H9.62146V23.3334H7.28813V25.6667Z" fill="black"/>
    <path d="M3.78813 24.5H6.12146V22.1667H3.78813L3.78813 24.5Z" fill="black"/>
    <path d="M18.9548 2.33331L21.2881 2.33331V-2.02656e-05L18.9548 -2.02656e-05V2.33331Z" fill="black"/>
    <path d="M21.2881 2.33331L23.6215 2.33331V-2.02656e-05L21.2881 -2.02656e-05V2.33331Z" fill="black"/>
    <path d="M23.6214 2.33331L25.9547 2.33331V-2.02656e-05L23.6214 -2.02656e-05V2.33331Z" fill="black"/>
    <path d="M25.9548 2.33331L28.2881 2.33331V-2.02656e-05L25.9548 -2.02656e-05V2.33331Z" fill="black"/>
    <path d="M21.288 4.66669H18.9547V7.00002H21.288V4.66669Z" fill="black"/>
    <path d="M21.288 7H18.9547V9.33333H21.288V7Z" fill="black"/>
    <path d="M21.288 2.33331H18.9547V4.66665H21.288V2.33331Z" fill="black"/>
    <path d="M28.288 7H25.9547V9.33333H28.288V7Z" fill="black"/>
    <path d="M25.9548 7H23.6215V9.33333H25.9548V7Z" fill="black"/>
    <path d="M23.6214 7H21.2881V9.33333H23.6214V7Z" fill="black"/>
    <path d="M25.9548 4.66669H28.2881V2.33335L25.9548 2.33335V4.66669Z" fill="black"/>
    <path d="M25.9548 7H28.2881V4.66667H25.9548V7Z" fill="black"/>
    <path d="M22.4548 5.83331H24.7881V3.49998L22.4548 3.49998V5.83331Z" fill="black"/>
  </g>
  <defs>
    <clipPath id="clip0_56_839">
      <rect width="28" height="28" fill="white" transform="translate(0.288086)"/>
    </clipPath>
  </defs>
</svg>