<svg xmlns="http://www.w3.org/2000/svg" width="32" height="32" viewBox="0 0 32 32" fill="none">
  <g clip-path="url(#clip0_56_1171)">
    <path d="M14.288 2.33337L16.6213 2.33337V4.07696e-05L14.288 4.07696e-05V2.33337Z" fill="black"/>
    <path d="M11.9548 2.33337L14.2881 2.33337V4.07696e-05L11.9548 4.07696e-05V2.33337Z" fill="black"/>
    <path d="M14.288 7H16.6213V4.66667H14.288V7Z" fill="black"/>
    <path d="M16.6214 7H18.9547V4.66667H16.6214V7Z" fill="black"/>
    <path d="M11.9548 7H14.2881V4.66667H11.9548V7Z" fill="black"/>
    <path d="M9.62138 7H11.9547V4.66667H9.62138V7Z" fill="black"/>
    <path d="M9.62138 9.33337H11.9547V7.00004H9.62138V9.33337Z" fill="black"/>
    <path d="M11.9547 11.6667V9.33337H9.62138V11.6667H11.9547Z" fill="black"/>
    <path d="M14.2881 14V11.6667H11.9548V14H14.2881Z" fill="black"/>
    <path d="M16.6214 11.6667H14.2881V14H16.6214V11.6667Z" fill="black"/>
    <path d="M18.9547 9.33337H16.6213V11.6667H18.9547V9.33337Z" fill="black"/>
    <path d="M18.9547 7H16.6213V9.33333H18.9547V7Z" fill="black"/>
    <path d="M14.288 28H16.6213V25.6667H14.288V28Z" fill="black"/>
    <path d="M16.6214 25.6667H18.9547V23.3334H16.6214V25.6667Z" fill="black"/>
    <path d="M11.9548 28H14.2881V25.6667H11.9548V28Z" fill="black"/>
    <path d="M14.288 25.6667H16.6213V23.3334H14.288V25.6667Z" fill="black"/>
    <path d="M11.9548 25.6667H14.2881V23.3334H11.9548V25.6667Z" fill="black"/>
    <path d="M9.62138 25.6667H11.9547V23.3334H9.62138V25.6667Z" fill="black"/>
    <path d="M7.288 23.3334H9.62134V21H7.288V23.3334Z" fill="black"/>
    <path d="M9.62138 23.3334H11.9547V21H9.62138V23.3334Z" fill="black"/>
    <path d="M11.9548 23.3334H14.2881V21H11.9548V23.3334Z" fill="black"/>
    <path d="M14.288 23.3334H16.6213V21H14.288V23.3334Z" fill="black"/>
    <path d="M16.6214 23.3334H18.9547V21H16.6214V23.3334Z" fill="black"/>
    <path d="M18.9548 23.3334H21.2881V21H18.9548V23.3334Z" fill="black"/>
    <path d="M7.288 21H9.62134V18.6667H7.288V21Z" fill="black"/>
    <path d="M9.62138 21H11.9547V18.6667H9.62138V21Z" fill="black"/>
    <path d="M11.9548 21H14.2881V18.6667H11.9548V21Z" fill="black"/>
    <path d="M14.288 21H16.6213V18.6667H14.288V21Z" fill="black"/>
    <path d="M16.6214 21H18.9547V18.6667H16.6214V21Z" fill="black"/>
    <path d="M18.9548 21H21.2881V18.6667H18.9548V21Z" fill="black"/>
    <path d="M9.62138 2.33337L11.9547 2.33337V4.07696e-05L9.62138 4.07696e-05V2.33337Z" fill="black"/>
    <path d="M7.288 4.66669H9.62134V2.33335L7.288 2.33335V4.66669Z" fill="black"/>
    <path d="M4.95475 7H7.28809V4.66667H4.95475V7Z" fill="black"/>
    <path d="M4.95475 9.33337H7.28809V7.00004H4.95475V9.33337Z" fill="black"/>
    <path d="M4.95475 11.6667H7.28809V9.33335H4.95475V11.6667Z" fill="black"/>
    <path d="M7.288 7H9.62134V4.66667H7.288V7Z" fill="black"/>
    <path d="M7.288 9.33337H9.62134V7.00004H7.288V9.33337Z" fill="black"/>
    <path d="M7.288 11.6667H9.62134V9.33335H7.288V11.6667Z" fill="black"/>
    <path d="M4.95475 14H7.28809V11.6667H4.95475V14Z" fill="black"/>
    <path d="M21.288 7H23.6213V4.66667H21.288V7Z" fill="black"/>
    <path d="M21.288 9.33337H23.6213V7.00004H21.288V9.33337Z" fill="black"/>
    <path d="M21.288 11.6667H23.6213V9.33335H21.288V11.6667Z" fill="black"/>
    <path d="M21.288 14H23.6213V11.6667H21.288V14Z" fill="black"/>
    <path d="M21.288 16.3334H23.6213V14H21.288V16.3334Z" fill="black"/>
    <path d="M18.9548 9.33337H21.2881V7.00004H18.9548V9.33337Z" fill="black"/>
    <path d="M18.9548 11.6667H21.2881V9.33335H18.9548V11.6667Z" fill="black"/>
    <path d="M18.9548 14H21.2881V11.6667H18.9548V14Z" fill="black"/>
    <path d="M16.6214 14H18.9547V11.6667H16.6214V14Z" fill="black"/>
    <path d="M4.95475 16.3334H7.28809V14H4.95475V16.3334Z" fill="black"/>
    <path d="M7.288 16.3334H9.62134V14H7.288V16.3334Z" fill="black"/>
    <path d="M9.62138 16.3334H11.9547V14H9.62138V16.3334Z" fill="black"/>
    <path d="M7.288 14H9.62134V11.6667H7.288V14Z" fill="black"/>
    <path d="M9.62138 14H11.9547V11.6667H9.62138V14Z" fill="black"/>
    <path d="M11.9548 16.3334H14.2881V14H11.9548V16.3334Z" fill="black"/>
    <path d="M14.288 16.3334H16.6213V14H14.288V16.3334Z" fill="black"/>
    <path d="M16.6214 16.3334H18.9547V14H16.6214V16.3334Z" fill="black"/>
    <path d="M18.9548 16.3334H21.2881V14H18.9548V16.3334Z" fill="black"/>
    <path d="M18.9548 4.66669H21.2881V2.33335L18.9548 2.33335V4.66669Z" fill="black"/>
    <path d="M18.9548 7H21.2881V4.66667H18.9548V7Z" fill="black"/>
    <path d="M16.6214 2.33337L18.9547 2.33337V4.07696e-05L16.6214 4.07696e-05V2.33337Z" fill="black"/>
    <path d="M14.288 4.66669H16.6213V2.33335L14.288 2.33335V4.66669Z" fill="black"/>
    <path d="M11.9548 4.66669H14.2881V2.33335L11.9548 2.33335V4.66669Z" fill="black"/>
    <path d="M9.62138 4.66669H11.9547V2.33335L9.62138 2.33335V4.66669Z" fill="black"/>
    <path d="M16.6214 4.66669H18.9547V2.33335L16.6214 2.33335V4.66669Z" fill="black"/>
  </g>
  <defs>
    <clipPath id="clip0_56_1171">
      <rect width="28" height="28" fill="white" transform="translate(0.288086)"/>
    </clipPath>
  </defs>
</svg>