<svg xmlns="http://www.w3.org/2000/svg" width="32" height="32" viewBox="0 0 32 32" fill="none">
  <g clip-path="url(#clip0_56_119)">
    <path d="M12.9574 -0.000630617V2.3327H15.2907V-0.000630617H12.9574Z" fill="black"/>
    <path d="M10.624 2.33268V4.66602H12.9574V2.33268H10.624Z" fill="black"/>
    <path d="M10.624 4.66606V6.99939H12.9574V4.66606H10.624Z" fill="black"/>
    <path d="M8.29065 6.99937V9.3327H10.624V6.99937H8.29065Z" fill="black"/>
    <path d="M8.29065 9.33268V11.666H10.624V9.33268H8.29065Z" fill="black"/>
    <path d="M15.2906 4.66606V6.99939H17.624V4.66606H15.2906Z" fill="black"/>
    <path d="M12.9574 16.3327V18.6661H15.2907V16.3327H12.9574Z" fill="black"/>
    <path d="M17.624 16.3327V18.6661H19.9574V16.3327H17.624Z" fill="black"/>
    <path d="M15.2906 16.3327V18.6661H17.624V16.3327H15.2906Z" fill="black"/>
    <path d="M8.29065 16.3327V18.6661H10.624V16.3327H8.29065Z" fill="black"/>
    <path d="M12.9574 13.9994V16.3327H15.2907V13.9994H12.9574Z" fill="black"/>
    <path d="M10.624 13.9994V16.3327H12.9574V13.9994H10.624Z" fill="black"/>
    <path d="M15.2906 13.9994V16.3327H17.624V13.9994H15.2906Z" fill="black"/>
    <path d="M8.29065 13.9994V16.3327H10.624V13.9994H8.29065Z" fill="black"/>
    <path d="M12.9574 11.6661V13.9994H15.2907V11.6661H12.9574Z" fill="black"/>
    <path d="M10.624 11.6661V13.9994H12.9574V11.6661H10.624Z" fill="black"/>
    <path d="M17.624 11.6661V13.9994H19.9574V11.6661H17.624Z" fill="black"/>
    <path d="M15.2906 11.6661V13.9994H17.624V11.6661H15.2906Z" fill="black"/>
    <path d="M12.9574 9.33268V11.666H15.2907V9.33268H12.9574Z" fill="black"/>
    <path d="M10.624 9.33268V11.666H12.9574V9.33268H10.624Z" fill="black"/>
    <path d="M12.9574 6.99937V9.3327H15.2907V6.99937H12.9574Z" fill="black"/>
    <path d="M12.9574 4.66606V6.99939H15.2907V4.66606H12.9574Z" fill="black"/>
    <path d="M12.9574 2.33268V4.66602H15.2907V2.33268H12.9574Z" fill="black"/>
    <path d="M10.624 6.99937V9.3327H12.9574V6.99937H10.624Z" fill="black"/>
    <path d="M15.2906 6.99937V9.3327H17.624V6.99937H15.2906Z" fill="black"/>
    <path d="M8.29065 11.6661V13.9994H10.624V11.6661H8.29065Z" fill="black"/>
    <path d="M17.624 6.99937V9.3327H19.9574V6.99937H17.624Z" fill="black"/>
    <path d="M17.624 9.33268V11.666H19.9574V9.33268H17.624Z" fill="black"/>
    <path d="M5.9574 11.6661V13.9994H8.29073V11.6661H5.9574Z" fill="black"/>
    <path d="M19.9574 11.6661V13.9994H22.2907V11.6661H19.9574Z" fill="black"/>
    <path d="M5.9574 13.9994V16.3327H8.29073V13.9994H5.9574Z" fill="black"/>
    <path d="M5.9574 16.3327V18.6661H8.29073V16.3327H5.9574Z" fill="black"/>
    <path d="M8.29065 18.6661V20.9994H10.624V18.6661H8.29065Z" fill="black"/>
    <path d="M10.624 20.9994V23.3327H12.9574V20.9994H10.624Z" fill="black"/>
    <path d="M12.9574 20.9994V23.3327H15.2907V20.9994H12.9574Z" fill="black"/>
    <path d="M15.2906 20.9994V23.3327H17.624V20.9994H15.2906Z" fill="black"/>
    <path d="M19.9574 16.3327V18.6661H22.2907V16.3327H19.9574Z" fill="black"/>
    <path d="M17.624 18.6661V20.9994H19.9574V18.6661H17.624Z" fill="black"/>
    <path d="M12.9574 18.6661V20.9994H15.2907V18.6661H12.9574Z" fill="black"/>
    <path d="M15.2906 18.6661V20.9994H17.624V18.6661H15.2906Z" fill="black"/>
    <path d="M10.624 18.6661V20.9994H12.9574V18.6661H10.624Z" fill="black"/>
    <path d="M3.62402 16.3327V18.6661H5.95736V16.3327H3.62402Z" fill="black"/>
    <path d="M1.29065 18.6661L1.29065 20.9994H3.62398V18.6661H1.29065Z" fill="black"/>
    <path d="M24.624 18.6661V20.9994H26.9574V18.6661H24.624Z" fill="black"/>
    <path d="M3.62402 20.9994V23.3327H5.95736V20.9994H3.62402Z" fill="black"/>
    <path d="M22.2906 20.9994V23.3327H24.624V20.9994H22.2906Z" fill="black"/>
    <path d="M5.9574 23.3327V25.6661H8.29073V23.3327H5.9574Z" fill="black"/>
    <path d="M8.29065 23.3327V25.6661H10.624V23.3327H8.29065Z" fill="black"/>
    <path d="M17.624 23.3327V25.6661H19.9574V23.3327H17.624Z" fill="black"/>
    <path d="M19.9574 23.3327V25.6661H22.2907V23.3327H19.9574Z" fill="black"/>
    <path d="M10.624 25.6661V27.9994H12.9574V25.6661H10.624Z" fill="black"/>
    <path d="M12.9574 25.6661V27.9994H15.2907V25.6661H12.9574Z" fill="black"/>
    <path d="M15.2906 25.6661V27.9994H17.624V25.6661H15.2906Z" fill="black"/>
    <path d="M19.9574 13.9994V16.3327H22.2907V13.9994H19.9574Z" fill="black"/>
    <path d="M22.2906 16.3327V18.6661H24.624V16.3327H22.2906Z" fill="black"/>
    <path d="M15.2906 2.33268V4.66602H17.624V2.33268H15.2906Z" fill="black"/>
  </g>
  <defs>
    <clipPath id="clip0_56_119">
      <rect width="28" height="28" fill="white" transform="translate(0.288086)"/>
    </clipPath>
  </defs>
</svg>