<svg width="32" height="30" viewBox="0 0 32 30" fill="none" xmlns="http://www.w3.org/2000/svg">
<g clip-path="url(#clip0_3780_77638)">
<path d="M14.546 9.23413H17.4551V6.33413H14.546V9.23413Z" fill="#7F8992"/>
<path d="M17.4542 9.23413H20.3633V6.33413H17.4542V9.23413Z" fill="#7F8992"/>
<path d="M11.6358 6.33423H14.5449V3.43423L11.6358 3.43423V6.33423Z" fill="#7F8992"/>
<path d="M8.72763 3.43457L11.6367 3.43457V0.53457L8.72763 0.53457V3.43457Z" fill="#7F8992"/>
<path d="M5.81747 3.43457L8.72656 3.43457V0.53457L5.81747 0.53457V3.43457Z" fill="#7F8992"/>
<path d="M17.4542 6.33423H20.3633V3.43423L17.4542 3.43423V6.33423Z" fill="#7F8992"/>
<path d="M20.3643 3.43457L23.2734 3.43457V0.53457L20.3643 0.53457V3.43457Z" fill="#7F8992"/>
<path d="M23.2725 3.43457L26.1816 3.43457V0.53457L23.2725 0.53457V3.43457Z" fill="#7F8992"/>
<path d="M26.1827 6.33423H29.0918V3.43423L26.1827 3.43423V6.33423Z" fill="#7F8992"/>
<path d="M29.0909 9.23413H32V6.33413H29.0909V9.23413Z" fill="#7F8992"/>
<path d="M29.0909 12.1338H32V9.23379H29.0909V12.1338Z" fill="#7F8992"/>
<path d="M29.0909 15.0342H32V12.1342H29.0909V15.0342Z" fill="#7F8992"/>
<path d="M26.1827 17.9346H29.0918V15.0346H26.1827V17.9346Z" fill="#7F8992"/>
<path d="M23.2725 20.8342H26.1816V17.9342H23.2725V20.8342Z" fill="#7F8992"/>
<path d="M20.3643 23.7341H23.2734V20.8341H20.3643V23.7341Z" fill="#7F8992"/>
<path d="M17.4542 26.6338H20.3633V23.7338H17.4542V26.6338Z" fill="#7F8992"/>
<path d="M-0.000887871 12.1338H2.9082L2.9082 9.23379H-0.000887871L-0.000887871 12.1338Z" fill="#7F8992"/>
<path d="M-0.000887871 15.0342H2.9082L2.9082 12.1342H-0.000887871L-0.000887871 15.0342Z" fill="#7F8992"/>
<path d="M2.90927 17.9346H5.81836V15.0346H2.90927L2.90927 17.9346Z" fill="#7F8992"/>
<path d="M5.81747 20.8342H8.72656V17.9342H5.81747V20.8342Z" fill="#7F8992"/>
<path d="M8.72763 23.7341H11.6367V20.8341H8.72763V23.7341Z" fill="#7F8992"/>
<path d="M11.6358 23.7341H14.5449V20.8341H11.6358V23.7341Z" fill="#7F8992"/>
<path d="M11.6358 26.6338H14.5449V23.7338H11.6358V26.6338Z" fill="#7F8992"/>
<path d="M14.546 29.5342H17.4551V26.6342H14.546V29.5342Z" fill="#7F8992"/>
<path d="M2.90927 6.33423H5.81836V3.43423L2.90927 3.43423L2.90927 6.33423Z" fill="#7F8992"/>
<path d="M-0.000887871 9.23413H2.9082L2.9082 6.33413H-0.000887871L-0.000887871 9.23413Z" fill="#7F8992"/>
<path d="M2.90927 12.1338H5.81836V9.23379H2.90927L2.90927 12.1338Z" fill="#7F8992"/>
<path d="M2.90927 15.0342H5.81836V12.1342H2.90927L2.90927 15.0342Z" fill="#7F8992"/>
<path d="M2.90927 9.23413H5.81836V6.33413H2.90927L2.90927 9.23413Z" fill="#7F8992"/>
<path d="M5.81747 17.9346H8.72656V15.0346H5.81747V17.9346Z" fill="#7F8992"/>
<path d="M5.81747 6.33423H8.72656V3.43423L5.81747 3.43423V6.33423Z" fill="#7F8992"/>
<path d="M5.81747 12.1338H8.72656V9.23379H5.81747V12.1338Z" fill="#7F8992"/>
<path d="M5.81747 15.0342H8.72656V12.1342H5.81747V15.0342Z" fill="#7F8992"/>
<path d="M5.81747 9.23413H8.72656V6.33413H5.81747V9.23413Z" fill="#7F8992"/>
<path d="M8.72763 20.8342H11.6367V17.9342H8.72763V20.8342Z" fill="#7F8992"/>
<path d="M8.72763 17.9346H11.6367V15.0346H8.72763V17.9346Z" fill="#7F8992"/>
<path d="M8.72763 6.33423H11.6367V3.43423L8.72763 3.43423V6.33423Z" fill="#7F8992"/>
<path d="M8.72763 12.1338H11.6367V9.23379H8.72763V12.1338Z" fill="#7F8992"/>
<path d="M8.72763 15.0342H11.6367V12.1342H8.72763V15.0342Z" fill="#7F8992"/>
<path d="M8.72763 9.23413H11.6367V6.33413H8.72763V9.23413Z" fill="#7F8992"/>
<path d="M11.6358 20.8342H14.5449V17.9342H11.6358V20.8342Z" fill="#7F8992"/>
<path d="M11.6358 17.9346H14.5449V15.0346H11.6358V17.9346Z" fill="#7F8992"/>
<path d="M11.6358 12.1338H14.5449V9.23379H11.6358V12.1338Z" fill="#7F8992"/>
<path d="M11.6358 15.0342H14.5449V12.1342H11.6358V15.0342Z" fill="#7F8992"/>
<path d="M14.546 23.7341H17.4551V20.8341H14.546V23.7341Z" fill="#7F8992"/>
<path d="M14.546 26.6338H17.4551V23.7338H14.546V26.6338Z" fill="#7F8992"/>
<path d="M14.546 20.8342H17.4551V17.9342H14.546V20.8342Z" fill="#7F8992"/>
<path d="M14.546 17.9346H17.4551V15.0346H14.546V17.9346Z" fill="#7F8992"/>
<path d="M14.546 12.1338H17.4551V9.23379H14.546V12.1338Z" fill="#7F8992"/>
<path d="M14.546 15.0342H17.4551V12.1342H14.546V15.0342Z" fill="#7F8992"/>
<path d="M17.4542 23.7341H20.3633V20.8341H17.4542V23.7341Z" fill="#7F8992"/>
<path d="M17.4542 20.8342H20.3633V17.9342H17.4542V20.8342Z" fill="#7F8992"/>
<path d="M17.4542 17.9346H20.3633V15.0346H17.4542V17.9346Z" fill="#7F8992"/>
<path d="M17.4542 12.1338H20.3633V9.23379H17.4542V12.1338Z" fill="#7F8992"/>
<path d="M17.4542 15.0342H20.3633V12.1342H17.4542V15.0342Z" fill="#7F8992"/>
<path d="M20.3643 9.23413H23.2734V6.33413H20.3643V9.23413Z" fill="#7F8992"/>
<path d="M20.3643 6.33423H23.2734V3.43423L20.3643 3.43423V6.33423Z" fill="#7F8992"/>
<path d="M20.3643 20.8342H23.2734V17.9342H20.3643V20.8342Z" fill="#7F8992"/>
<path d="M20.3643 17.9346H23.2734V15.0346H20.3643V17.9346Z" fill="#7F8992"/>
<path d="M20.3643 12.1338H23.2734V9.23379H20.3643V12.1338Z" fill="#7F8992"/>
<path d="M20.3643 15.0342H23.2734V12.1342H20.3643V15.0342Z" fill="#7F8992"/>
<path d="M23.2725 9.23413H26.1816V6.33413H23.2725V9.23413Z" fill="#7F8992"/>
<path d="M23.2725 6.33423H26.1816V3.43423L23.2725 3.43423V6.33423Z" fill="#7F8992"/>
<path d="M23.2725 17.9346H26.1816V15.0346H23.2725V17.9346Z" fill="#7F8992"/>
<path d="M23.2725 12.1338H26.1816V9.23379H23.2725V12.1338Z" fill="#7F8992"/>
<path d="M23.2725 15.0342H26.1816V12.1342H23.2725V15.0342Z" fill="#7F8992"/>
<path d="M26.1827 9.23413H29.0918V6.33413H26.1827V9.23413Z" fill="#7F8992"/>
<path d="M26.1827 12.1338H29.0918V9.23379H26.1827V12.1338Z" fill="#7F8992"/>
<path d="M26.1827 15.0342H29.0918V12.1342H26.1827V15.0342Z" fill="#7F8992"/>
<path d="M11.6358 9.23413H14.5449V6.33413H11.6358V9.23413Z" fill="#7F8992"/>
</g>
<defs>
<clipPath id="clip0_3780_77638">
<rect width="32" height="29" fill="white" transform="translate(0 0.53418)"/>
</clipPath>
</defs>
</svg>
