<svg width="24" height="33" viewBox="0 0 24 33" fill="none" xmlns="http://www.w3.org/2000/svg">
<path d="M0.799609 3.20081L3.59961 3.20081L3.59961 0.534139L0.799609 0.534139L0.799609 3.20081Z" fill="#7F8992"/>
<path d="M3.59844 3.20081L6.39844 3.20081V0.534139L3.59844 0.534139L3.59844 3.20081Z" fill="#7F8992"/>
<path d="M6.39922 3.20081L9.19922 3.20081V0.534139L6.39922 0.534139V3.20081Z" fill="#7F8992"/>
<path d="M9.2 3.20081L12 3.20081V0.534139L9.2 0.534139V3.20081Z" fill="#7F8992"/>
<path d="M11.9988 3.20081L14.7988 3.20081V0.534139L11.9988 0.534139V3.20081Z" fill="#7F8992"/>
<path d="M14.7996 3.20081L17.5996 3.20081V0.534139L14.7996 0.534139V3.20081Z" fill="#7F8992"/>
<path d="M17.5984 3.20081L20.3984 3.20081V0.534139L17.5984 0.534139V3.20081Z" fill="#7F8992"/>
<path d="M20.3992 3.20081L23.1992 3.20081V0.534139L20.3992 0.534139V3.20081Z" fill="#7F8992"/>
<path d="M0.799609 5.86755H3.59961L3.59961 3.20089L0.799609 3.20089L0.799609 5.86755Z" fill="#7F8992"/>
<path d="M3.59844 5.86755H6.39844V3.20089L3.59844 3.20089L3.59844 5.86755Z" fill="#7F8992"/>
<path d="M6.39922 5.86755H9.19922V3.20089L6.39922 3.20089V5.86755Z" fill="#7F8992"/>
<path d="M9.2 5.86755H12V3.20089L9.2 3.20089V5.86755Z" fill="#7F8992"/>
<path d="M11.9988 5.86755H14.7988V3.20089L11.9988 3.20089V5.86755Z" fill="#7F8992"/>
<path d="M14.7996 5.86755H17.5996V3.20089L14.7996 3.20089V5.86755Z" fill="#7F8992"/>
<path d="M17.5984 5.86755H20.3984V3.20089L17.5984 3.20089V5.86755Z" fill="#7F8992"/>
<path d="M20.3992 5.86755H23.1992V3.20089L20.3992 3.20089V5.86755Z" fill="#7F8992"/>
<path d="M0.799609 8.53418H3.59961L3.59961 5.86751H0.799609L0.799609 8.53418Z" fill="#7F8992"/>
<path d="M3.59844 8.53418H6.39844V5.86751H3.59844L3.59844 8.53418Z" fill="#7F8992"/>
<path d="M6.39922 8.53418H9.19922V5.86751H6.39922V8.53418Z" fill="#7F8992"/>
<path d="M9.2 8.53418H12V5.86751H9.2V8.53418Z" fill="#7F8992"/>
<path d="M11.9988 8.53418H14.7988V5.86751H11.9988V8.53418Z" fill="#7F8992"/>
<path d="M14.7996 8.53418H17.5996V5.86751H14.7996V8.53418Z" fill="#7F8992"/>
<path d="M17.5984 8.53418H20.3984V5.86751H17.5984V8.53418Z" fill="#7F8992"/>
<path d="M20.3992 8.53418H23.1992V5.86751H20.3992V8.53418Z" fill="#7F8992"/>
<path d="M0.799609 11.2008H3.59961L3.59961 8.53414H0.799609L0.799609 11.2008Z" fill="#7F8992"/>
<path d="M3.59844 11.2008H6.39844V8.53414H3.59844L3.59844 11.2008Z" fill="#7F8992"/>
<path d="M6.39922 11.2008H9.19922V8.53414H6.39922V11.2008Z" fill="#7F8992"/>
<path d="M9.2 11.2008H12V8.53414H9.2V11.2008Z" fill="#7F8992"/>
<path d="M11.9988 11.2008H14.7988V8.53414H11.9988V11.2008Z" fill="#7F8992"/>
<path d="M14.7996 11.2008H17.5996V8.53414H14.7996V11.2008Z" fill="#7F8992"/>
<path d="M17.5984 11.2008H20.3984V8.53414H17.5984V11.2008Z" fill="#7F8992"/>
<path d="M20.3992 11.2008H23.1992V8.53414H20.3992V11.2008Z" fill="#7F8992"/>
<path d="M0.799609 13.8676H3.59961L3.59961 11.2009H0.799609L0.799609 13.8676Z" fill="#7F8992"/>
<path d="M3.59844 13.8676H6.39844V11.2009H3.59844L3.59844 13.8676Z" fill="#7F8992"/>
<path d="M6.39922 13.8676H9.19922V11.2009H6.39922V13.8676Z" fill="#7F8992"/>
<path d="M9.2 13.8676H12V11.2009H9.2V13.8676Z" fill="#7F8992"/>
<path d="M11.9988 13.8676H14.7988V11.2009H11.9988V13.8676Z" fill="#7F8992"/>
<path d="M14.7996 13.8676H17.5996V11.2009H14.7996V13.8676Z" fill="#7F8992"/>
<path d="M17.5984 13.8676H20.3984V11.2009H17.5984V13.8676Z" fill="#7F8992"/>
<path d="M20.3992 13.8676H23.1992V11.2009H20.3992V13.8676Z" fill="#7F8992"/>
<path d="M0.799609 16.5342H3.59961L3.59961 13.8675H0.799609L0.799609 16.5342Z" fill="#7F8992"/>
<path d="M3.59844 16.5342H6.39844V13.8675H3.59844L3.59844 16.5342Z" fill="#7F8992"/>
<path d="M6.39922 16.5342H9.19922V13.8675H6.39922V16.5342Z" fill="#7F8992"/>
<path d="M9.2 16.5342H12V13.8675H9.2V16.5342Z" fill="#7F8992"/>
<path d="M11.9988 16.5342H14.7988V13.8675H11.9988V16.5342Z" fill="#7F8992"/>
<path d="M14.7996 16.5342H17.5996V13.8675H14.7996V16.5342Z" fill="#7F8992"/>
<path d="M17.5984 16.5342H20.3984V13.8675H17.5984V16.5342Z" fill="#7F8992"/>
<path d="M20.3992 16.5342H23.1992V13.8675H20.3992V16.5342Z" fill="#7F8992"/>
<path d="M0.799609 19.2008H3.59961L3.59961 16.5341H0.799609L0.799609 19.2008Z" fill="#7F8992"/>
<path d="M3.59844 19.2008H6.39844V16.5341H3.59844L3.59844 19.2008Z" fill="#7F8992"/>
<path d="M6.39922 19.2008H9.19922V16.5341H6.39922V19.2008Z" fill="#7F8992"/>
<path d="M9.2 19.2008H12V16.5341H9.2V19.2008Z" fill="#7F8992"/>
<path d="M11.9988 19.2008H14.7988V16.5341H11.9988V19.2008Z" fill="#7F8992"/>
<path d="M14.7996 19.2008H17.5996V16.5341H14.7996V19.2008Z" fill="#7F8992"/>
<path d="M17.5984 19.2008H20.3984V16.5341H17.5984V19.2008Z" fill="#7F8992"/>
<path d="M20.3992 19.2008H23.1992V16.5341H20.3992V19.2008Z" fill="#7F8992"/>
<path d="M0.799609 21.8676H3.59961L3.59961 19.2009H0.799609L0.799609 21.8676Z" fill="#7F8992"/>
<path d="M3.59844 21.8676H6.39844V19.2009H3.59844L3.59844 21.8676Z" fill="#7F8992"/>
<path d="M6.39922 21.8676H9.19922V19.2009H6.39922V21.8676Z" fill="#7F8992"/>
<path d="M9.2 21.8676H12V19.2009H9.2V21.8676Z" fill="#7F8992"/>
<path d="M11.9988 21.8676H14.7988V19.2009H11.9988V21.8676Z" fill="#7F8992"/>
<path d="M9.2 21.8676H12V19.2009H9.2V21.8676Z" fill="#7F8992"/>
<path d="M11.9988 21.8676H14.7988V19.2009H11.9988V21.8676Z" fill="#7F8992"/>
<path d="M14.7996 21.8676H17.5996V19.2009H14.7996V21.8676Z" fill="#7F8992"/>
<path d="M17.5984 21.8676H20.3984V19.2009H17.5984V21.8676Z" fill="#7F8992"/>
<path d="M20.3992 21.8676H23.1992V19.2009H20.3992V21.8676Z" fill="#7F8992"/>
<path d="M20.3992 21.8676H23.1992V19.2009H20.3992V21.8676Z" fill="#7F8992"/>
<path d="M20.3992 24.5342H23.1992V21.8675H20.3992V24.5342Z" fill="#7F8992"/>
<path d="M20.3992 27.2008H23.1992V24.5341H20.3992V27.2008Z" fill="#7F8992"/>
<path d="M17.5984 21.8676H20.3984V19.2009H17.5984V21.8676Z" fill="#7F8992"/>
<path d="M17.5984 24.5342H20.3984V21.8675H17.5984V24.5342Z" fill="#7F8992"/>
<path d="M17.5984 27.2008H20.3984V24.5341H17.5984V27.2008Z" fill="#7F8992"/>
<path d="M20.3992 29.8676H23.1992V27.2009H20.3992V29.8676Z" fill="#7F8992"/>
<path d="M0.799609 21.8676H3.59961L3.59961 19.2009H0.799609L0.799609 21.8676Z" fill="#7F8992"/>
<path d="M0.799609 24.5342H3.59961L3.59961 21.8675H0.799609L0.799609 24.5342Z" fill="#7F8992"/>
<path d="M0.799609 27.2008H3.59961L3.59961 24.5341H0.799609L0.799609 27.2008Z" fill="#7F8992"/>
<path d="M3.59844 21.8676H6.39844V19.2009H3.59844L3.59844 21.8676Z" fill="#7F8992"/>
<path d="M3.59844 24.5342H6.39844V21.8675H3.59844L3.59844 24.5342Z" fill="#7F8992"/>
<path d="M6.39922 21.8676H9.19922V19.2009H6.39922V21.8676Z" fill="#7F8992"/>
<path d="M6.39922 24.5342H9.19922V21.8675H6.39922V24.5342Z" fill="#7F8992"/>
<path d="M14.7996 21.8676H17.5996V19.2009H14.7996V21.8676Z" fill="#7F8992"/>
<path d="M14.7996 24.5342H17.5996V21.8675H14.7996V24.5342Z" fill="#7F8992"/>
<path d="M3.59844 27.2008H6.39844V24.5341H3.59844L3.59844 27.2008Z" fill="#7F8992"/>
<path d="M0.799609 29.8676H3.59961L3.59961 27.2009H0.799609L0.799609 29.8676Z" fill="#7F8992"/>
<path d="M9.2 24.5342H12V21.8675H9.2V24.5342Z" fill="#7F8992"/>
<path d="M11.9988 24.5342H14.7988V21.8675H11.9988V24.5342Z" fill="#7F8992"/>
<path d="M17.5984 29.8676H20.3984V27.2009H17.5984V29.8676Z" fill="#7F8992"/>
<path d="M20.3992 32.5342H23.1992V29.8675H20.3992V32.5342Z" fill="#7F8992"/>
<path d="M6.39922 27.2008H9.19922V24.5341H6.39922V27.2008Z" fill="#7F8992"/>
<path d="M14.7996 27.2008H17.5996V24.5341H14.7996V27.2008Z" fill="#7F8992"/>
<path d="M3.59844 29.8676H6.39844V27.2009H3.59844L3.59844 29.8676Z" fill="#7F8992"/>
<path d="M0.799609 32.5342H3.59961L3.59961 29.8675H0.799609L0.799609 32.5342Z" fill="#7F8992"/>
</svg>
