<svg width="32" height="33" viewBox="0 0 32 33" fill="none" xmlns="http://www.w3.org/2000/svg">
<g clip-path="url(#clip0_3780_78026)">
<path d="M15.182 13.2473H16.8184V11.6473H15.182V13.2473Z" fill="#252528"/>
<path d="M16.8187 13.2473H18.4551V11.6473H16.8187V13.2473Z" fill="#252528"/>
<path d="M13.5453 11.6473H15.1816V10.0473H13.5453V11.6473Z" fill="#252528"/>
<path d="M11.9086 10.0473H13.5449V8.44727H11.9086V10.0473Z" fill="#252528"/>
<path d="M10.2718 10.0473H11.9082V8.44727H10.2718V10.0473Z" fill="#252528"/>
<path d="M16.8187 11.6473H18.4551V10.0473H16.8187V11.6473Z" fill="#252528"/>
<path d="M18.4554 10.0473H20.0918V8.44727H18.4554V10.0473Z" fill="#252528"/>
<path d="M20.0902 10.0473H21.7266V8.44727H20.0902V10.0473Z" fill="#252528"/>
<path d="M21.7269 11.6473H23.3633V10.0473H21.7269V11.6473Z" fill="#252528"/>
<path d="M23.3636 13.2473H25V11.6473H23.3636V13.2473Z" fill="#252528"/>
<path d="M23.3636 14.8473H25V13.2473H23.3636V14.8473Z" fill="#252528"/>
<path d="M23.3636 16.4473H25V14.8473H23.3636V16.4473Z" fill="#252528"/>
<path d="M21.7269 18.0473H23.3633V16.4473H21.7269V18.0473Z" fill="#252528"/>
<path d="M20.0902 19.6473H21.7266V18.0473H20.0902V19.6473Z" fill="#252528"/>
<path d="M18.4554 21.2473H20.0918V19.6473H18.4554V21.2473Z" fill="#252528"/>
<path d="M16.8187 22.8473H18.4551V21.2473H16.8187V22.8473Z" fill="#252528"/>
<path d="M7.00036 14.8473H8.63672V13.2473H7.00036V14.8473Z" fill="#252528"/>
<path d="M7.00036 16.4473H8.63672V14.8473H7.00036V16.4473Z" fill="#252528"/>
<path d="M8.63707 18.0473H10.2734V16.4473H8.63707V18.0473Z" fill="#252528"/>
<path d="M10.2718 19.6473H11.9082V18.0473H10.2718V19.6473Z" fill="#252528"/>
<path d="M11.9086 21.2473H13.5449V19.6473H11.9086V21.2473Z" fill="#252528"/>
<path d="M13.5453 21.2473H15.1816V19.6473H13.5453V21.2473Z" fill="#252528"/>
<path d="M13.5453 22.8473H15.1816V21.2473H13.5453V22.8473Z" fill="#252528"/>
<path d="M15.182 24.4473H16.8184V22.8473H15.182V24.4473Z" fill="#252528"/>
<path d="M8.63707 11.6473H10.2734V10.0473H8.63707V11.6473Z" fill="#252528"/>
<path d="M7.00036 13.2473H8.63672V11.6473H7.00036V13.2473Z" fill="#252528"/>
<path d="M8.63707 14.8473H10.2734V13.2473H8.63707V14.8473Z" fill="#252528"/>
<path d="M8.63707 16.4473H10.2734V14.8473H8.63707V16.4473Z" fill="#252528"/>
<path d="M8.63707 13.2473H10.2734V11.6473H8.63707V13.2473Z" fill="#252528"/>
<path d="M10.2718 18.0473H11.9082V16.4473H10.2718V18.0473Z" fill="#252528"/>
<path d="M10.2718 11.6473H11.9082V10.0473H10.2718V11.6473Z" fill="#252528"/>
<path d="M10.2718 14.8473H11.9082V13.2473H10.2718V14.8473Z" fill="#252528"/>
<path d="M10.2718 16.4473H11.9082V14.8473H10.2718V16.4473Z" fill="#252528"/>
<path d="M10.2718 13.2473H11.9082V11.6473H10.2718V13.2473Z" fill="#252528"/>
<path d="M11.9086 19.6473H13.5449V18.0473H11.9086V19.6473Z" fill="#252528"/>
<path d="M11.9086 18.0473H13.5449V16.4473H11.9086V18.0473Z" fill="#252528"/>
<path d="M11.9086 11.6473H13.5449V10.0473H11.9086V11.6473Z" fill="#252528"/>
<path d="M11.9086 14.8473H13.5449V13.2473H11.9086V14.8473Z" fill="#252528"/>
<path d="M11.9086 16.4473H13.5449V14.8473H11.9086V16.4473Z" fill="#252528"/>
<path d="M11.9086 13.2473H13.5449V11.6473H11.9086V13.2473Z" fill="#252528"/>
<path d="M13.5453 19.6473H15.1816V18.0473H13.5453V19.6473Z" fill="#252528"/>
<path d="M13.5453 18.0473H15.1816V16.4473H13.5453V18.0473Z" fill="#252528"/>
<path d="M13.5453 14.8473H15.1816V13.2473H13.5453V14.8473Z" fill="#252528"/>
<path d="M13.5453 16.4473H15.1816V14.8473H13.5453V16.4473Z" fill="#252528"/>
<path d="M15.182 21.2473H16.8184V19.6473H15.182V21.2473Z" fill="#252528"/>
<path d="M15.182 22.8473H16.8184V21.2473H15.182V22.8473Z" fill="#252528"/>
<path d="M15.182 19.6473H16.8184V18.0473H15.182V19.6473Z" fill="#252528"/>
<path d="M15.182 18.0473H16.8184V16.4473H15.182V18.0473Z" fill="#252528"/>
<path d="M15.182 14.8473H16.8184V13.2473H15.182V14.8473Z" fill="#252528"/>
<path d="M15.182 16.4473H16.8184V14.8473H15.182V16.4473Z" fill="#252528"/>
<path d="M16.8187 21.2473H18.4551V19.6473H16.8187V21.2473Z" fill="#252528"/>
<path d="M16.8187 19.6473H18.4551V18.0473H16.8187V19.6473Z" fill="#252528"/>
<path d="M16.8187 18.0473H18.4551V16.4473H16.8187V18.0473Z" fill="#252528"/>
<path d="M16.8187 14.8473H18.4551V13.2473H16.8187V14.8473Z" fill="#252528"/>
<path d="M16.8187 16.4473H18.4551V14.8473H16.8187V16.4473Z" fill="#252528"/>
<path d="M18.4554 13.2473H20.0918V11.6473H18.4554V13.2473Z" fill="#252528"/>
<path d="M18.4554 11.6473H20.0918V10.0473H18.4554V11.6473Z" fill="#252528"/>
<path d="M18.4554 19.6473H20.0918V18.0473H18.4554V19.6473Z" fill="#252528"/>
<path d="M18.4554 18.0473H20.0918V16.4473H18.4554V18.0473Z" fill="#252528"/>
<path d="M18.4554 14.8473H20.0918V13.2473H18.4554V14.8473Z" fill="#252528"/>
<path d="M18.4554 16.4473H20.0918V14.8473H18.4554V16.4473Z" fill="#252528"/>
<path d="M20.0902 13.2473H21.7266V11.6473H20.0902V13.2473Z" fill="#252528"/>
<path d="M20.0902 11.6473H21.7266V10.0473H20.0902V11.6473Z" fill="#252528"/>
<path d="M20.0902 18.0473H21.7266V16.4473H20.0902V18.0473Z" fill="#252528"/>
<path d="M20.0902 14.8473H21.7266V13.2473H20.0902V14.8473Z" fill="#252528"/>
<path d="M20.0902 16.4473H21.7266V14.8473H20.0902V16.4473Z" fill="#252528"/>
<path d="M21.7269 13.2473H23.3633V11.6473H21.7269V13.2473Z" fill="#252528"/>
<path d="M21.7269 14.8473H23.3633V13.2473H21.7269V14.8473Z" fill="#252528"/>
<path d="M21.7269 16.4473H23.3633V14.8473H21.7269V16.4473Z" fill="#252528"/>
<path d="M13.5453 13.2473H15.1816V11.6473H13.5453V13.2473Z" fill="#252528"/>
</g>
<defs>
<clipPath id="clip0_3780_78026">
<rect width="18" height="16" fill="white" transform="translate(7 8.44727)"/>
</clipPath>
</defs>
</svg>
