<svg width="32" height="33" viewBox="0 0 32 33" fill="none" xmlns="http://www.w3.org/2000/svg">
<g clip-path="url(#clip0_3780_78103)">
<path d="M12.168 11.9474V10.4474H10.6952V11.9474H12.168Z" fill="#252528"/>
<path d="M13.6406 10.4471V8.94711H12.1679V10.4471H13.6406Z" fill="#252528"/>
<path d="M15.1133 8.94727V7.44727H13.6406V8.94727H15.1133Z" fill="#252528"/>
<path d="M16.5859 8.94727V7.44727H15.1132V8.94727H16.5859Z" fill="#252528"/>
<path d="M18.0586 8.94727V7.44727H16.5859V8.94727H18.0586Z" fill="#252528"/>
<path d="M19.5312 10.4471V8.94711H18.0585V10.4471H19.5312Z" fill="#252528"/>
<path d="M21.0039 11.9474V10.4474H19.5312V11.9474H21.0039Z" fill="#252528"/>
<path d="M12.168 13.4473V11.9473H10.6952V13.4473H12.168Z" fill="#252528"/>
<path d="M21.0039 13.4473V11.9473H19.5312V13.4473H21.0039Z" fill="#252528"/>
<path d="M12.168 14.9471V13.4471H10.6952V14.9471H12.168Z" fill="#252528"/>
<path d="M21.0039 14.9471V13.4471H19.5312V14.9471H21.0039Z" fill="#252528"/>
<path d="M12.168 16.4474V14.9474H10.6952V16.4474H12.168Z" fill="#252528"/>
<path d="M21.0039 16.4474V14.9474H19.5312V16.4474H21.0039Z" fill="#252528"/>
<path d="M12.168 17.9473V16.4473H10.6952V17.9473H12.168Z" fill="#252528"/>
<path d="M21.0039 17.9473V16.4473H19.5312V17.9473H21.0039Z" fill="#252528"/>
<path d="M12.168 19.4471V17.9471H10.6952V19.4471H12.168Z" fill="#252528"/>
<path d="M21.0039 19.4471V17.9471H19.5312V19.4471H21.0039Z" fill="#252528"/>
<path d="M12.168 20.9474V19.4474H10.6952V20.9474H12.168Z" fill="#252528"/>
<path d="M10.6953 22.4473V20.9473H9.22258V22.4473H10.6953Z" fill="#252528"/>
<path d="M12.168 22.4473V20.9473H10.6952V22.4473H12.168Z" fill="#252528"/>
<path d="M13.6406 22.4473V20.9473H12.1679V22.4473H13.6406Z" fill="#252528"/>
<path d="M15.1133 22.4473V20.9473H13.6406V22.4473H15.1133Z" fill="#252528"/>
<path d="M16.5859 22.4473V20.9473H15.1132V22.4473H16.5859Z" fill="#252528"/>
<path d="M18.0586 22.4473V20.9473H16.5859V22.4473H18.0586Z" fill="#252528"/>
<path d="M19.5312 22.4473V20.9473H18.0585V22.4473H19.5312Z" fill="#252528"/>
<path d="M13.6406 19.4471V17.9471H12.1679V19.4471H13.6406Z" fill="#252528"/>
<path d="M15.1133 19.4471V17.9471H13.6406V19.4471H15.1133Z" fill="#252528"/>
<path d="M16.5859 19.4471V17.9471H15.1132V19.4471H16.5859Z" fill="#252528"/>
<path d="M18.0586 19.4471V17.9471H16.5859V19.4471H18.0586Z" fill="#252528"/>
<path d="M19.5312 19.4471V17.9471H18.0585V19.4471H19.5312Z" fill="#252528"/>
<path d="M13.6406 20.9474V19.4474H12.1679V20.9474H13.6406Z" fill="#252528"/>
<path d="M15.1133 20.9474V19.4474H13.6406V20.9474H15.1133Z" fill="#252528"/>
<path d="M16.5859 20.9474V19.4474H15.1132V20.9474H16.5859Z" fill="#252528"/>
<path d="M18.0586 20.9474V19.4474H16.5859V20.9474H18.0586Z" fill="#252528"/>
<path d="M19.5312 20.9474V19.4474H18.0585V20.9474H19.5312Z" fill="#252528"/>
<path d="M13.6406 17.9473V16.4473H12.1679V17.9473H13.6406Z" fill="#252528"/>
<path d="M15.1133 17.9473V16.4473H13.6406V17.9473H15.1133Z" fill="#252528"/>
<path d="M16.5859 17.9473V16.4473H15.1132V17.9473H16.5859Z" fill="#252528"/>
<path d="M18.0586 17.9473V16.4473H16.5859V17.9473H18.0586Z" fill="#252528"/>
<path d="M19.5312 17.9473V16.4473H18.0585V17.9473H19.5312Z" fill="#252528"/>
<path d="M13.6406 16.4474V14.9474H12.1679V16.4474H13.6406Z" fill="#252528"/>
<path d="M15.1133 16.4474V14.9474H13.6406V16.4474H15.1133Z" fill="#252528"/>
<path d="M16.5859 16.4474V14.9474H15.1132V16.4474H16.5859Z" fill="#252528"/>
<path d="M18.0586 16.4474V14.9474H16.5859V16.4474H18.0586Z" fill="#252528"/>
<path d="M19.5312 16.4474V14.9474H18.0585V16.4474H19.5312Z" fill="#252528"/>
<path d="M15.1133 14.9471V13.4471H13.6406V14.9471H15.1133Z" fill="#252528"/>
<path d="M16.5859 14.9471V13.4471H15.1132V14.9471H16.5859Z" fill="#252528"/>
<path d="M18.0586 14.9471V13.4471H16.5859V14.9471H18.0586Z" fill="#252528"/>
<path d="M19.5312 14.9471V13.4471H18.0585V14.9471H19.5312Z" fill="#252528"/>
<path d="M15.1133 13.4473V11.9473H13.6406V13.4473H15.1133Z" fill="#252528"/>
<path d="M16.5859 13.4473V11.9473H15.1132V13.4473H16.5859Z" fill="#252528"/>
<path d="M18.0586 13.4473V11.9473H16.5859V13.4473H18.0586Z" fill="#252528"/>
<path d="M19.5312 13.4473V11.9473H18.0585V13.4473H19.5312Z" fill="#252528"/>
<path d="M13.6406 11.9474V10.4474H12.1679V11.9474H13.6406Z" fill="#252528"/>
<path d="M16.5859 11.9474V10.4474H15.1132V11.9474H16.5859Z" fill="#252528"/>
<path d="M13.6406 14.9471V13.4471H12.1679V14.9471H13.6406Z" fill="#252528"/>
<path d="M13.6406 13.4473V11.9473H12.1679V13.4473H13.6406Z" fill="#252528"/>
<path d="M15.1133 11.9474V10.4474H13.6406V11.9474H15.1133Z" fill="#252528"/>
<path d="M18.0586 11.9474V10.4474H16.5859V11.9474H18.0586Z" fill="#252528"/>
<path d="M15.1133 10.4471V8.94711H13.6406V10.4471H15.1133Z" fill="#252528"/>
<path d="M16.5859 10.4471V8.94711H15.1132V10.4471H16.5859Z" fill="#252528"/>
<path d="M18.0586 10.4471V8.94711H16.5859V10.4471H18.0586Z" fill="#252528"/>
<path d="M19.5312 11.9474V10.4474H18.0585V11.9474H19.5312Z" fill="#252528"/>
<path d="M21.0039 22.4473V20.9473H19.5312V22.4473H21.0039Z" fill="#252528"/>
<path d="M22.4766 22.4473V20.9473H21.0038V22.4473H22.4766Z" fill="#252528"/>
<path d="M21.0039 20.9474V19.4474H19.5312V20.9474H21.0039Z" fill="#252528"/>
<path d="M22.4766 20.9474V19.4474H21.0038V20.9474H22.4766Z" fill="#252528"/>
<path d="M10.6953 20.9474V19.4474H9.22258V20.9474H10.6953Z" fill="#252528"/>
<path d="M9.22266 22.4473V20.9473H7.74993V22.4473H9.22266Z" fill="#252528"/>
<path d="M9.22266 23.9471V22.4471H7.74993V23.9471H9.22266Z" fill="#252528"/>
<path d="M10.6953 23.9471V22.4471H9.22258V23.9471H10.6953Z" fill="#252528"/>
<path d="M12.168 23.9471V22.4471H10.6952V23.9471H12.168Z" fill="#252528"/>
<path d="M13.6406 23.9471V22.4471H12.1679V23.9471H13.6406Z" fill="#252528"/>
<path d="M15.1133 23.9471V22.4471H13.6406V23.9471H15.1133Z" fill="#252528"/>
<path d="M16.5859 23.9471V22.4471H15.1132V23.9471H16.5859Z" fill="#252528"/>
<path d="M18.0586 23.9471V22.4471H16.5859V23.9471H18.0586Z" fill="#252528"/>
<path d="M15.1133 25.4474V23.9474H13.6406V25.4474H15.1133Z" fill="#252528"/>
<path d="M16.5859 25.4474V23.9474H15.1132V25.4474H16.5859Z" fill="#252528"/>
<path d="M18.0586 25.4474V23.9474H16.5859V25.4474H18.0586Z" fill="#252528"/>
<path d="M19.5312 23.9471V22.4471H18.0585V23.9471H19.5312Z" fill="#252528"/>
<path d="M21.0039 23.9471V22.4471H19.5312V23.9471H21.0039Z" fill="#252528"/>
<path d="M22.4766 23.9471V22.4471H21.0038V23.9471H22.4766Z" fill="#252528"/>
<path d="M23.9492 23.9471V22.4471H22.4765V23.9471H23.9492Z" fill="#252528"/>
<path d="M23.9492 22.4473V20.9473H22.4765V22.4473H23.9492Z" fill="#252528"/>
<path d="M21.0039 20.9474V19.4474H19.5312V20.9474H21.0039Z" fill="#252528"/>
</g>
<defs>
<clipPath id="clip0_3780_78103">
<rect width="18" height="18" fill="white" transform="translate(7 7.44727)"/>
</clipPath>
</defs>
</svg>
