<svg width="32" height="33" viewBox="0 0 32 33" fill="none" xmlns="http://www.w3.org/2000/svg">
<path d="M9.70039 8.94725H11.2754V7.44725H9.70039V8.94725Z" fill="#252528"/>
<path d="M11.2746 8.94725H12.8496V7.44725H11.2746V8.94725Z" fill="#252528"/>
<path d="M12.8508 8.94725H14.4258V7.44725H12.8508V8.94725Z" fill="#252528"/>
<path d="M14.425 8.94725H16V7.44725H14.425V8.94725Z" fill="#252528"/>
<path d="M15.9992 8.94725H17.5742V7.44725H15.9992V8.94725Z" fill="#252528"/>
<path d="M17.5754 8.94725H19.1504V7.44725H17.5754V8.94725Z" fill="#252528"/>
<path d="M19.1496 8.94725H20.7246V7.44725H19.1496V8.94725Z" fill="#252528"/>
<path d="M20.7258 8.94725H22.3008V7.44725H20.7258V8.94725Z" fill="#252528"/>
<path d="M9.70039 10.4473H11.2754V8.94728H9.70039V10.4473Z" fill="#252528"/>
<path d="M11.2746 10.4473H12.8496V8.94728H11.2746V10.4473Z" fill="#252528"/>
<path d="M12.8508 10.4473H14.4258V8.94728H12.8508V10.4473Z" fill="#252528"/>
<path d="M14.425 10.4473H16V8.94728H14.425V10.4473Z" fill="#252528"/>
<path d="M15.9992 10.4473H17.5742V8.94728H15.9992V10.4473Z" fill="#252528"/>
<path d="M17.5754 10.4473H19.1504V8.94728H17.5754V10.4473Z" fill="#252528"/>
<path d="M19.1496 10.4473H20.7246V8.94728H19.1496V10.4473Z" fill="#252528"/>
<path d="M20.7258 10.4473H22.3008V8.94728H20.7258V10.4473Z" fill="#252528"/>
<path d="M9.70039 11.9473H11.2754V10.4473H9.70039V11.9473Z" fill="#252528"/>
<path d="M11.2746 11.9473H12.8496V10.4473H11.2746V11.9473Z" fill="#252528"/>
<path d="M12.8508 11.9473H14.4258V10.4473H12.8508V11.9473Z" fill="#252528"/>
<path d="M14.425 11.9473H16V10.4473H14.425V11.9473Z" fill="#252528"/>
<path d="M15.9992 11.9473H17.5742V10.4473H15.9992V11.9473Z" fill="#252528"/>
<path d="M17.5754 11.9473H19.1504V10.4473H17.5754V11.9473Z" fill="#252528"/>
<path d="M19.1496 11.9473H20.7246V10.4473H19.1496V11.9473Z" fill="#252528"/>
<path d="M20.7258 11.9473H22.3008V10.4473H20.7258V11.9473Z" fill="#252528"/>
<path d="M9.70039 13.4473H11.2754V11.9473H9.70039V13.4473Z" fill="#252528"/>
<path d="M11.2746 13.4473H12.8496V11.9473H11.2746V13.4473Z" fill="#252528"/>
<path d="M12.8508 13.4473H14.4258V11.9473H12.8508V13.4473Z" fill="#252528"/>
<path d="M14.425 13.4473H16V11.9473H14.425V13.4473Z" fill="#252528"/>
<path d="M15.9992 13.4473H17.5742V11.9473H15.9992V13.4473Z" fill="#252528"/>
<path d="M17.5754 13.4473H19.1504V11.9473H17.5754V13.4473Z" fill="#252528"/>
<path d="M19.1496 13.4473H20.7246V11.9473H19.1496V13.4473Z" fill="#252528"/>
<path d="M20.7258 13.4473H22.3008V11.9473H20.7258V13.4473Z" fill="#252528"/>
<path d="M9.70039 14.9473H11.2754V13.4473H9.70039V14.9473Z" fill="#252528"/>
<path d="M11.2746 14.9473H12.8496V13.4473H11.2746V14.9473Z" fill="#252528"/>
<path d="M12.8508 14.9473H14.4258V13.4473H12.8508V14.9473Z" fill="#252528"/>
<path d="M14.425 14.9473H16V13.4473H14.425V14.9473Z" fill="#252528"/>
<path d="M15.9992 14.9473H17.5742V13.4473H15.9992V14.9473Z" fill="#252528"/>
<path d="M17.5754 14.9473H19.1504V13.4473H17.5754V14.9473Z" fill="#252528"/>
<path d="M19.1496 14.9473H20.7246V13.4473H19.1496V14.9473Z" fill="#252528"/>
<path d="M20.7258 14.9473H22.3008V13.4473H20.7258V14.9473Z" fill="#252528"/>
<path d="M9.70039 16.4473H11.2754V14.9473H9.70039V16.4473Z" fill="#252528"/>
<path d="M11.2746 16.4473H12.8496V14.9473H11.2746V16.4473Z" fill="#252528"/>
<path d="M12.8508 16.4473H14.4258V14.9473H12.8508V16.4473Z" fill="#252528"/>
<path d="M14.425 16.4473H16V14.9473H14.425V16.4473Z" fill="#252528"/>
<path d="M15.9992 16.4473H17.5742V14.9473H15.9992V16.4473Z" fill="#252528"/>
<path d="M17.5754 16.4473H19.1504V14.9473H17.5754V16.4473Z" fill="#252528"/>
<path d="M19.1496 16.4473H20.7246V14.9473H19.1496V16.4473Z" fill="#252528"/>
<path d="M20.7258 16.4473H22.3008V14.9473H20.7258V16.4473Z" fill="#252528"/>
<path d="M9.70039 17.9473H11.2754V16.4473H9.70039V17.9473Z" fill="#252528"/>
<path d="M11.2746 17.9473H12.8496V16.4473H11.2746V17.9473Z" fill="#252528"/>
<path d="M12.8508 17.9473H14.4258V16.4473H12.8508V17.9473Z" fill="#252528"/>
<path d="M14.425 17.9473H16V16.4473H14.425V17.9473Z" fill="#252528"/>
<path d="M15.9992 17.9473H17.5742V16.4473H15.9992V17.9473Z" fill="#252528"/>
<path d="M17.5754 17.9473H19.1504V16.4473H17.5754V17.9473Z" fill="#252528"/>
<path d="M19.1496 17.9473H20.7246V16.4473H19.1496V17.9473Z" fill="#252528"/>
<path d="M20.7258 17.9473H22.3008V16.4473H20.7258V17.9473Z" fill="#252528"/>
<path d="M9.70039 19.4473H11.2754V17.9473H9.70039V19.4473Z" fill="#252528"/>
<path d="M11.2746 19.4473H12.8496V17.9473H11.2746V19.4473Z" fill="#252528"/>
<path d="M12.8508 19.4473H14.4258V17.9473H12.8508V19.4473Z" fill="#252528"/>
<path d="M14.425 19.4473H16V17.9473H14.425V19.4473Z" fill="#252528"/>
<path d="M15.9992 19.4473H17.5742V17.9473H15.9992V19.4473Z" fill="#252528"/>
<path d="M14.425 19.4473H16V17.9473H14.425V19.4473Z" fill="#252528"/>
<path d="M15.9992 19.4473H17.5742V17.9473H15.9992V19.4473Z" fill="#252528"/>
<path d="M17.5754 19.4473H19.1504V17.9473H17.5754V19.4473Z" fill="#252528"/>
<path d="M19.1496 19.4473H20.7246V17.9473H19.1496V19.4473Z" fill="#252528"/>
<path d="M20.7258 19.4473H22.3008V17.9473H20.7258V19.4473Z" fill="#252528"/>
<path d="M20.7258 19.4473H22.3008V17.9473H20.7258V19.4473Z" fill="#252528"/>
<path d="M20.7258 20.9473H22.3008V19.4473H20.7258V20.9473Z" fill="#252528"/>
<path d="M20.7258 22.4473H22.3008V20.9473H20.7258V22.4473Z" fill="#252528"/>
<path d="M19.1496 19.4473H20.7246V17.9473H19.1496V19.4473Z" fill="#252528"/>
<path d="M19.1496 20.9473H20.7246V19.4473H19.1496V20.9473Z" fill="#252528"/>
<path d="M19.1496 22.4473H20.7246V20.9473H19.1496V22.4473Z" fill="#252528"/>
<path d="M20.7258 23.9473H22.3008V22.4473H20.7258V23.9473Z" fill="#252528"/>
<path d="M9.70039 19.4473H11.2754V17.9473H9.70039V19.4473Z" fill="#252528"/>
<path d="M9.70039 20.9473H11.2754V19.4473H9.70039V20.9473Z" fill="#252528"/>
<path d="M9.70039 22.4473H11.2754V20.9473H9.70039V22.4473Z" fill="#252528"/>
<path d="M11.2746 19.4473H12.8496V17.9473H11.2746V19.4473Z" fill="#252528"/>
<path d="M11.2746 20.9473H12.8496V19.4473H11.2746V20.9473Z" fill="#252528"/>
<path d="M12.8508 19.4473H14.4258V17.9473H12.8508V19.4473Z" fill="#252528"/>
<path d="M12.8508 20.9473H14.4258V19.4473H12.8508V20.9473Z" fill="#252528"/>
<path d="M17.5754 19.4473H19.1504V17.9473H17.5754V19.4473Z" fill="#252528"/>
<path d="M17.5754 20.9473H19.1504V19.4473H17.5754V20.9473Z" fill="#252528"/>
<path d="M11.2746 22.4473H12.8496V20.9473H11.2746V22.4473Z" fill="#252528"/>
<path d="M9.70039 23.9473H11.2754V22.4473H9.70039V23.9473Z" fill="#252528"/>
<path d="M14.425 20.9473H16V19.4473H14.425V20.9473Z" fill="#252528"/>
<path d="M15.9992 20.9473H17.5742V19.4473H15.9992V20.9473Z" fill="#252528"/>
<path d="M19.1496 23.9473H20.7246V22.4473H19.1496V23.9473Z" fill="#252528"/>
<path d="M20.7258 25.4473H22.3008V23.9473H20.7258V25.4473Z" fill="#252528"/>
<path d="M12.8508 22.4473H14.4258V20.9473H12.8508V22.4473Z" fill="#252528"/>
<path d="M17.5754 22.4473H19.1504V20.9473H17.5754V22.4473Z" fill="#252528"/>
<path d="M11.2746 23.9473H12.8496V22.4473H11.2746V23.9473Z" fill="#252528"/>
<path d="M9.70039 25.4473H11.2754V23.9473H9.70039V25.4473Z" fill="#252528"/>
</svg>
