<svg width="390" height="256" viewBox="0 0 390 256" fill="none" xmlns="http://www.w3.org/2000/svg">
<g clip-path="url(#clip0_5230_48582)">
<rect width="390" height="255.938" fill="white"/>
<rect x="12.5" y="180.5" width="21" height="29" fill="#ECEFF0" stroke="white"/>
<rect x="12.5" y="74.5" width="21" height="29" fill="#ECEFF0" stroke="white"/>
<rect x="122.5" y="74.5" width="21" height="29" fill="#ECEFF0" stroke="white"/>
<rect x="33.5" y="74.5" width="21" height="29" fill="#ECEFF0" stroke="white"/>
<rect x="143.5" y="74.5" width="21" height="29" fill="#ECEFF0" stroke="white"/>
<rect x="54.5" y="74.5" width="21" height="29" fill="#ECEFF0" stroke="white"/>
<rect x="164.5" y="74.5" width="21" height="29" fill="#ECEFF0" stroke="white"/>
<rect x="75.5" y="74.5" width="21" height="29" fill="#ECEFF0" stroke="white"/>
<rect x="185.5" y="74.5" width="21" height="29" fill="#ECEFF0" stroke="white"/>
<rect x="227.5" y="74.5" width="21" height="29" fill="#ECEFF0" stroke="white"/>
<rect x="96.5" y="74.5" width="21" height="29" fill="#ECEFF0" stroke="white"/>
<rect x="206.5" y="74.5" width="21" height="29" fill="#ECEFF0" stroke="white"/>
<rect x="248.5" y="74.5" width="21" height="29" fill="#ECEFF0" stroke="white"/>
<rect x="33.5" y="180.5" width="21" height="29" fill="#ECEFF0" stroke="white"/>
<rect x="54.5" y="180.5" width="21" height="29" fill="#ECEFF0" stroke="white"/>
<rect x="80.5" y="180.5" width="21" height="29" fill="#ECEFF0" stroke="white"/>
<rect x="101.5" y="180.5" width="21" height="29" fill="#ECEFF0" stroke="white"/>
<rect x="122.5" y="180.5" width="21" height="29" fill="#ECEFF0" stroke="white"/>
<rect x="143.5" y="180.5" width="21" height="29" fill="#4544FF" stroke="white"/>
<rect x="164.5" y="180.5" width="21" height="29" fill="#ECEFF0" stroke="white"/>
<rect x="185.5" y="180.5" width="21" height="29" fill="#ECEFF0" stroke="white"/>
<rect x="206.5" y="180.5" width="21" height="29" fill="#ECEFF0" stroke="white"/>
<rect x="227.5" y="180.5" width="21" height="29" fill="#ECEFF0" stroke="white"/>
<rect x="248.5" y="180.5" width="21" height="29" fill="#ECEFF0" stroke="white"/>
<rect x="269.5" y="180.5" width="21" height="29" fill="#ECEFF0" stroke="white"/>
<rect x="290.5" y="180.5" width="21" height="29" fill="#ECEFF0" stroke="white"/>
<rect x="274.609" y="75.6094" width="88.9688" height="28.0312" fill="#ECEFF0" stroke="#D2D9DF" stroke-width="1.21875"/>
<rect x="316.609" y="180.609" width="88.9688" height="28.0312" fill="#ECEFF0" stroke="#D2D9DF" stroke-width="1.21875"/>
<path d="M322.359 220.594H-14.625V275.438H369.891C369.891 233.025 338.203 221.203 322.359 220.594Z" fill="#F1F3F5" stroke="#D2D9DF" stroke-width="2"/>
<path d="M155.016 237.566H145.406V236.664H155.016V237.566ZM150.855 239.605H149.73V237.244H150.855V239.605ZM153.949 241.691H146.613V240.76H153.949V241.691ZM147.732 241.023H146.613V238.592H147.732V241.023ZM150.205 231.643C150.955 231.643 151.609 231.73 152.168 231.906C152.73 232.082 153.164 232.33 153.469 232.65C153.777 232.971 153.932 233.348 153.932 233.781C153.932 234.211 153.777 234.586 153.469 234.906C153.164 235.223 152.73 235.467 152.168 235.639C151.609 235.811 150.955 235.896 150.205 235.896C149.459 235.896 148.803 235.811 148.236 235.639C147.674 235.467 147.236 235.223 146.924 234.906C146.615 234.586 146.461 234.211 146.461 233.781C146.461 233.348 146.615 232.971 146.924 232.65C147.236 232.33 147.674 232.082 148.236 231.906C148.803 231.73 149.459 231.643 150.205 231.643ZM150.205 232.539C149.697 232.539 149.25 232.59 148.863 232.691C148.477 232.789 148.178 232.932 147.967 233.119C147.76 233.303 147.656 233.523 147.656 233.781C147.656 234.031 147.76 234.248 147.967 234.432C148.178 234.611 148.477 234.752 148.863 234.854C149.25 234.951 149.697 235 150.205 235C150.717 235 151.164 234.951 151.547 234.854C151.93 234.752 152.225 234.611 152.432 234.432C152.643 234.248 152.748 234.031 152.748 233.781C152.748 233.523 152.643 233.303 152.432 233.119C152.225 232.932 151.93 232.789 151.547 232.691C151.164 232.59 150.717 232.539 150.205 232.539ZM165.075 237.402H155.489V236.512H165.075V237.402ZM160.821 236.881H159.737V234.859H160.821V236.881ZM163.962 235.398H156.69V234.508H163.962V235.398ZM163.897 232.762H157.786V235.064H156.69V231.883H163.897V232.762ZM160.27 238.082C161.024 238.082 161.673 238.156 162.216 238.305C162.762 238.453 163.179 238.67 163.464 238.955C163.753 239.24 163.897 239.586 163.897 239.992C163.897 240.395 163.753 240.738 163.464 241.023C163.179 241.309 162.764 241.525 162.221 241.674C161.679 241.822 161.028 241.898 160.27 241.902C159.512 241.898 158.86 241.822 158.313 241.674C157.766 241.525 157.348 241.309 157.059 241.023C156.77 240.738 156.626 240.395 156.626 239.992C156.626 239.586 156.77 239.24 157.059 238.955C157.348 238.67 157.766 238.453 158.313 238.305C158.86 238.156 159.512 238.082 160.27 238.082ZM160.27 238.949C159.735 238.949 159.28 238.99 158.905 239.072C158.53 239.15 158.245 239.268 158.05 239.424C157.854 239.58 157.757 239.77 157.757 239.992C157.757 240.215 157.854 240.404 158.05 240.561C158.245 240.717 158.53 240.834 158.905 240.912C159.28 240.99 159.735 241.029 160.27 241.029C160.805 241.029 161.259 240.99 161.63 240.912C162.005 240.834 162.29 240.717 162.485 240.561C162.68 240.4 162.778 240.211 162.778 239.992C162.778 239.77 162.68 239.58 162.485 239.424C162.29 239.268 162.003 239.15 161.624 239.072C161.249 238.99 160.798 238.949 160.27 238.949ZM169.017 233.348C169.017 233.992 168.898 234.598 168.66 235.164C168.425 235.727 168.086 236.219 167.64 236.641C167.195 237.059 166.664 237.375 166.046 237.59L165.484 236.705C166.019 236.521 166.484 236.26 166.879 235.92C167.277 235.576 167.584 235.184 167.798 234.742C168.013 234.297 168.121 233.832 168.121 233.348V232.545H169.017V233.348ZM169.222 233.342C169.222 233.783 169.324 234.207 169.527 234.613C169.73 235.016 170.019 235.371 170.394 235.68C170.773 235.984 171.224 236.223 171.748 236.395L171.22 237.268C170.619 237.068 170.101 236.775 169.668 236.389C169.234 236.002 168.9 235.547 168.666 235.023C168.435 234.5 168.32 233.939 168.32 233.342V232.545H169.222V233.342ZM171.496 233.055H165.806V232.152H171.496V233.055ZM173.81 237.701H172.703V231.396H173.81V237.701ZM175.339 234.918H173.5V233.998H175.339V234.918ZM170.418 237.959C171.136 237.959 171.757 238.035 172.281 238.188C172.808 238.34 173.211 238.562 173.488 238.855C173.765 239.148 173.904 239.5 173.904 239.91C173.904 240.32 173.765 240.672 173.488 240.965C173.211 241.262 172.808 241.488 172.281 241.645C171.757 241.805 171.136 241.885 170.418 241.885C169.695 241.885 169.068 241.805 168.537 241.645C168.009 241.488 167.603 241.262 167.318 240.965C167.037 240.672 166.896 240.32 166.896 239.91C166.896 239.5 167.037 239.148 167.318 238.855C167.603 238.562 168.009 238.34 168.537 238.188C169.068 238.035 169.695 237.959 170.418 237.959ZM170.418 238.838C169.921 238.838 169.492 238.879 169.129 238.961C168.765 239.043 168.488 239.164 168.296 239.324C168.109 239.484 168.015 239.68 168.015 239.91C168.015 240.137 168.109 240.334 168.296 240.502C168.488 240.666 168.763 240.791 169.123 240.877C169.482 240.963 169.914 241.006 170.418 241.006C170.929 241.006 171.363 240.963 171.718 240.877C172.078 240.791 172.351 240.666 172.539 240.502C172.726 240.334 172.82 240.137 172.82 239.91C172.82 239.68 172.726 239.484 172.539 239.324C172.351 239.164 172.076 239.043 171.712 238.961C171.353 238.879 170.921 238.838 170.418 238.838Z" fill="#7F8992"/>
<path d="M11.6609 -80.6569C20.4471 -9.98396 12.8812 47.8947 8 68H28.135L29.9654 57.0335L63.5237 54.5965L79.9978 42.4115C162.002 70.1933 207.723 23.5248 220.332 -3.28223L208.129 -11.2025C211.546 -18.0261 214.028 -26.2306 214.841 -29.48L236.807 -25.2152L237.417 -44.7112L247.179 -45.0158L256.942 -45.3205C260.358 -69.6905 246.569 -95.6851 239.247 -105.636L357.006 -110.51L353.955 -123.304C365.67 -122.33 368.192 -128.991 367.989 -132.443C367.582 -134.677 366.281 -141.947 364.328 -153.158C362.376 -164.368 350.091 -166.358 344.193 -165.952C260.602 -162.093 89.2721 -154.011 72.676 -152.548C51.9309 -150.721 3.72894 -138.536 11.6609 -80.6569Z" fill="#F1F3F5" stroke="#D2D9DF" stroke-width="2"/>
<path d="M71.7332 -74.9245L40.0457 -84.0651C25.4207 -19.2276 53.6238 10.3594 79.6551 24.4036C166.358 61.5469 203.561 -2.00262 209.452 -35.3151L228.952 -32.8776L231.389 -52.3776L249.671 -54.8151C244.796 -88.3307 233.827 -120.893 188.733 -137.69C125.846 -161.115 89.8113 -111.701 79.6551 -84.0651L72.3426 -82.8464L71.7332 -74.9245Z" fill="#D2D9DF" stroke="#BEC6CD" stroke-width="2"/>
<path d="M224.859 7.64969C212.672 23.2497 184.031 50.3059 184.031 50.3059C184.031 50.3059 226.2 49.5747 236.438 49.0872C246.675 48.5997 255.328 41.9778 258.375 38.7278L269.953 20.4466C263.656 16.1809 249.113 6.55282 241.312 2.16531C233.513 -2.2222 227.094 3.99343 224.859 7.64969Z" fill="#F1F3F5" stroke="#D2D9DF" stroke-width="2"/>
<path d="M288.262 -1.76853C283.387 4.56897 282.575 14.2783 282.778 18.3408C282.981 20.9815 283.631 28.7002 284.606 38.4502C285.581 48.2002 293.137 51.044 296.794 51.2471C312.84 51.8565 348.103 53.0752 360.778 53.0752C373.453 53.0752 376.622 44.544 376.622 40.2783V-68.7998C376.622 -79.0373 367.684 -81.1904 363.215 -80.9873H352.856C346.519 -80.9873 342.903 -76.5185 341.887 -74.2842C326.044 -52.7529 293.137 -8.10603 288.262 -1.76853Z" fill="#F1F3F5" stroke="#D2D9DF" stroke-width="2"/>
<path d="M317.109 25.9258H322.072V25.0703H323.203V28.4863H316.008V25.0703H317.109V25.9258ZM322.072 27.6367V26.7402H317.109V27.6367H322.072ZM323.859 19.791H315.305V18.9297H323.859V19.791ZM319.611 20.1367C320.721 20.1367 321.57 20.2617 322.16 20.5117C322.754 20.7617 323.051 21.127 323.051 21.6074C323.051 22.0801 322.754 22.4434 322.16 22.6973C321.57 22.9473 320.721 23.0723 319.611 23.0723C318.49 23.0723 317.633 22.9473 317.039 22.6973C316.449 22.4434 316.154 22.0801 316.154 21.6074C316.154 21.127 316.449 20.7617 317.039 20.5117C317.633 20.2617 318.49 20.1367 319.611 20.1367ZM319.611 20.9102C319.111 20.9102 318.695 20.9375 318.363 20.9922C318.031 21.043 317.781 21.1191 317.613 21.2207C317.445 21.3223 317.361 21.4512 317.361 21.6074C317.361 21.7598 317.445 21.8887 317.613 21.9941C317.781 22.0996 318.031 22.1797 318.363 22.2344C318.699 22.2852 319.115 22.3105 319.611 22.3105C320.107 22.3105 320.521 22.2852 320.854 22.2344C321.189 22.1797 321.443 22.0996 321.615 21.9941C321.787 21.8887 321.873 21.7598 321.873 21.6074C321.873 21.4512 321.787 21.3223 321.615 21.2207C321.443 21.1191 321.189 21.043 320.854 20.9922C320.518 20.9375 320.104 20.9102 319.611 20.9102ZM320.162 19.5215H319.055V17.9863H320.162V19.5215ZM324.398 24.543H314.824V23.6465H324.398V24.543ZM332.923 20.6172H329.759V19.709H332.923V20.6172ZM332.923 23.1426H329.759V22.2344H332.923V23.1426ZM333.649 25.8613H332.536V18.127H333.649V25.8613ZM333.93 28.4102H326.829V27.4902H333.93V28.4102ZM327.948 27.9062H326.829V25.0586H327.948V27.9062ZM327.802 18.7715C328.313 18.7715 328.776 18.8867 329.19 19.1172C329.604 19.3477 329.932 19.666 330.175 20.0723C330.417 20.4746 330.538 20.9297 330.538 21.4375C330.538 21.9453 330.417 22.4004 330.175 22.8027C329.932 23.2051 329.604 23.5215 329.19 23.752C328.776 23.9785 328.313 24.0918 327.802 24.0918C327.278 24.0918 326.807 23.9785 326.389 23.752C325.975 23.5215 325.647 23.2051 325.405 22.8027C325.167 22.4004 325.048 21.9453 325.048 21.4375C325.048 20.9297 325.167 20.4727 325.405 20.0664C325.647 19.6602 325.975 19.3438 326.389 19.1172C326.807 18.8867 327.278 18.7715 327.802 18.7715ZM327.802 19.7617C327.473 19.7617 327.18 19.834 326.923 19.9785C326.669 20.1191 326.47 20.3164 326.325 20.5703C326.18 20.8203 326.108 21.1094 326.108 21.4375C326.108 21.7617 326.18 22.0508 326.325 22.3047C326.47 22.5547 326.669 22.75 326.923 22.8906C327.18 23.0312 327.473 23.1016 327.802 23.1016C328.114 23.1016 328.397 23.0312 328.651 22.8906C328.909 22.75 329.11 22.5527 329.255 22.2988C329.399 22.0449 329.471 21.7578 329.471 21.4375C329.471 21.1094 329.399 20.8203 329.255 20.5703C329.11 20.3164 328.909 20.1191 328.651 19.9785C328.397 19.834 328.114 19.7617 327.802 19.7617ZM338.423 20.0664C338.423 20.7109 338.304 21.3164 338.066 21.8828C337.832 22.4453 337.492 22.9375 337.046 23.3594C336.601 23.7773 336.07 24.0938 335.453 24.3086L334.89 23.4238C335.425 23.2402 335.89 22.9785 336.285 22.6387C336.683 22.2949 336.99 21.9023 337.205 21.4609C337.42 21.0156 337.527 20.5508 337.527 20.0664V19.2637H338.423V20.0664ZM338.629 20.0605C338.629 20.502 338.73 20.9258 338.933 21.332C339.136 21.7344 339.425 22.0898 339.8 22.3984C340.179 22.7031 340.63 22.9414 341.154 23.1133L340.627 23.9863C340.025 23.7871 339.507 23.4941 339.074 23.1074C338.64 22.7207 338.306 22.2656 338.072 21.7422C337.841 21.2188 337.726 20.6582 337.726 20.0605V19.2637H338.629V20.0605ZM340.902 19.7734H335.212V18.8711H340.902V19.7734ZM343.216 24.4199H342.109V18.1152H343.216V24.4199ZM344.746 21.6367H342.906V20.7168H344.746V21.6367ZM339.824 24.6777C340.543 24.6777 341.164 24.7539 341.687 24.9062C342.214 25.0586 342.617 25.2812 342.894 25.5742C343.171 25.8672 343.31 26.2188 343.31 26.6289C343.31 27.0391 343.171 27.3906 342.894 27.6836C342.617 27.9805 342.214 28.207 341.687 28.3633C341.164 28.5234 340.543 28.6035 339.824 28.6035C339.101 28.6035 338.474 28.5234 337.943 28.3633C337.416 28.207 337.009 27.9805 336.724 27.6836C336.443 27.3906 336.302 27.0391 336.302 26.6289C336.302 26.2188 336.443 25.8672 336.724 25.5742C337.009 25.2812 337.416 25.0586 337.943 24.9062C338.474 24.7539 339.101 24.6777 339.824 24.6777ZM339.824 25.5566C339.328 25.5566 338.898 25.5977 338.535 25.6797C338.171 25.7617 337.894 25.8828 337.703 26.043C337.515 26.2031 337.421 26.3984 337.421 26.6289C337.421 26.8555 337.515 27.0527 337.703 27.2207C337.894 27.3848 338.17 27.5098 338.529 27.5957C338.888 27.6816 339.32 27.7246 339.824 27.7246C340.336 27.7246 340.769 27.6816 341.125 27.5957C341.484 27.5098 341.757 27.3848 341.945 27.2207C342.132 27.0527 342.226 26.8555 342.226 26.6289C342.226 26.3984 342.132 26.2031 341.945 26.043C341.757 25.8828 341.482 25.7617 341.119 25.6797C340.759 25.5977 340.328 25.5566 339.824 25.5566Z" fill="#7F8992"/>
<path d="M113.9 12.7656H107.648V11.875H113.9V12.7656ZM110.777 13.2402C111.281 13.2402 111.725 13.3203 112.107 13.4805C112.49 13.6367 112.789 13.8594 113.004 14.1484C113.219 14.4336 113.326 14.7676 113.326 15.1504C113.326 15.5293 113.219 15.8633 113.004 16.1523C112.789 16.4375 112.49 16.6602 112.107 16.8203C111.725 16.9766 111.281 17.0547 110.777 17.0547C110.281 17.0547 109.838 16.9766 109.447 16.8203C109.057 16.6602 108.754 16.4375 108.539 16.1523C108.328 15.8633 108.223 15.5293 108.223 15.1504C108.223 14.7676 108.328 14.4336 108.539 14.1484C108.754 13.8594 109.057 13.6367 109.447 13.4805C109.838 13.3203 110.281 13.2402 110.777 13.2402ZM110.777 14.0898C110.484 14.0898 110.225 14.1328 109.998 14.2188C109.771 14.3047 109.598 14.4277 109.477 14.5879C109.355 14.748 109.295 14.9355 109.295 15.1504C109.295 15.3613 109.355 15.5449 109.477 15.7012C109.598 15.8574 109.771 15.9766 109.998 16.0586C110.225 16.1406 110.484 16.1816 110.777 16.1816C111.07 16.1816 111.33 16.1406 111.557 16.0586C111.787 15.9766 111.965 15.8574 112.09 15.7012C112.215 15.5449 112.277 15.3613 112.277 15.1504C112.277 14.9355 112.215 14.748 112.09 14.5879C111.965 14.4277 111.787 14.3047 111.557 14.2188C111.33 14.1328 111.07 14.0898 110.777 14.0898ZM115.887 17.377H114.779V10.8027H115.887V17.377ZM117.416 14.5762H115.576V13.6562H117.416V14.5762ZM115.887 21.3027H114.779V18.8066H108.949V17.9102H115.887V21.3027ZM111.334 12.3672H110.227V10.7559H111.334V12.3672ZM120.725 12.8184C120.725 13.3652 120.63 13.9023 120.438 14.4297C120.251 14.957 119.971 15.4316 119.6 15.8535C119.229 16.2715 118.786 16.5879 118.27 16.8027L117.667 15.9414C118.124 15.7422 118.516 15.4727 118.845 15.1328C119.173 14.793 119.421 14.4238 119.589 14.0254C119.761 13.623 119.846 13.2207 119.846 12.8184V11.459H120.725V12.8184ZM120.913 12.8184C120.913 13.209 120.995 13.5879 121.159 13.9551C121.327 14.3223 121.569 14.6543 121.886 14.9512C122.202 15.248 122.579 15.4805 123.016 15.6484L122.43 16.498C121.923 16.2988 121.487 16.0137 121.124 15.6426C120.764 15.2676 120.493 14.8359 120.309 14.3477C120.13 13.8594 120.04 13.3496 120.04 12.8184V11.459H120.913V12.8184ZM126.661 17.2773H125.6V10.8145H126.661V17.2773ZM125.929 14.4648H124.03V13.5508H125.929V14.4648ZM124.382 16.9492H123.345V11.0078H124.382V16.9492ZM123.151 17.4824C123.878 17.4824 124.509 17.5566 125.044 17.7051C125.583 17.8535 125.997 18.0723 126.286 18.3613C126.575 18.6465 126.72 18.9883 126.72 19.3867C126.72 19.7812 126.575 20.1191 126.286 20.4004C125.997 20.6855 125.583 20.9043 125.044 21.0566C124.509 21.2129 123.878 21.291 123.151 21.291C122.421 21.291 121.786 21.2129 121.247 21.0566C120.712 20.9043 120.302 20.6855 120.016 20.4004C119.731 20.1191 119.589 19.7812 119.589 19.3867C119.589 18.9883 119.731 18.6465 120.016 18.3613C120.302 18.0723 120.712 17.8535 121.247 17.7051C121.786 17.5566 122.421 17.4824 123.151 17.4824ZM123.151 18.3262C122.647 18.3262 122.21 18.3672 121.839 18.4492C121.468 18.5273 121.184 18.6484 120.989 18.8125C120.798 18.9727 120.702 19.1641 120.702 19.3867C120.702 19.6094 120.798 19.7988 120.989 19.9551C121.184 20.1113 121.466 20.2305 121.833 20.3125C122.2 20.3945 122.639 20.4355 123.151 20.4355C123.659 20.4355 124.096 20.3945 124.464 20.3125C124.831 20.2305 125.112 20.1113 125.307 19.9551C125.507 19.7988 125.606 19.6094 125.606 19.3867C125.606 19.1641 125.507 18.9727 125.307 18.8125C125.112 18.6484 124.829 18.5273 124.458 18.4492C124.087 18.3672 123.651 18.3262 123.151 18.3262ZM131.828 18.8535H130.714V17.125H131.828V18.8535ZM136.462 21.3027H135.355V10.8027H136.462V21.3027ZM128.464 18.4492C129.683 18.4414 130.798 18.416 131.81 18.373C132.826 18.3262 133.789 18.2441 134.699 18.127L134.781 18.9648C133.75 19.1328 132.679 19.2441 131.57 19.2988C130.464 19.3535 129.273 19.3809 127.996 19.3809L127.832 18.4492H128.464ZM134.47 12.9531H128.054V12.0625H134.47V12.9531ZM131.254 13.4922C131.761 13.4922 132.209 13.5742 132.595 13.7383C132.986 13.8984 133.289 14.125 133.504 14.418C133.722 14.7109 133.832 15.0547 133.832 15.4492C133.832 15.832 133.722 16.1699 133.504 16.4629C133.289 16.752 132.986 16.9785 132.595 17.1426C132.209 17.3066 131.761 17.3887 131.254 17.3887C130.757 17.3887 130.314 17.3086 129.923 17.1484C129.537 16.9883 129.236 16.7617 129.021 16.4688C128.81 16.1719 128.705 15.832 128.705 15.4492C128.705 15.0547 128.81 14.7109 129.021 14.418C129.236 14.125 129.537 13.8984 129.923 13.7383C130.314 13.5742 130.757 13.4922 131.254 13.4922ZM131.254 14.3418C130.968 14.3418 130.711 14.3887 130.48 14.4824C130.25 14.5723 130.07 14.7012 129.941 14.8691C129.812 15.0332 129.748 15.2266 129.748 15.4492C129.748 15.6641 129.812 15.8535 129.941 16.0176C130.07 16.1777 130.25 16.3027 130.48 16.3926C130.711 16.4785 130.968 16.5215 131.254 16.5215C131.55 16.5215 131.814 16.4805 132.045 16.3984C132.275 16.3125 132.453 16.1875 132.578 16.0234C132.703 15.8555 132.765 15.6641 132.765 15.4492C132.765 15.2266 132.703 15.0332 132.578 14.8691C132.453 14.7012 132.275 14.5723 132.045 14.4824C131.814 14.3887 131.55 14.3418 131.254 14.3418ZM131.834 12.5488H130.714V10.8262H131.834V12.5488ZM143.041 12.5254H138.407V11.5996H143.041V12.5254ZM141.02 16.5977H139.918V13.9609H141.02V16.5977ZM143.698 12.1914C143.69 12.7773 143.672 13.293 143.645 13.7383C143.618 14.1836 143.547 14.6992 143.434 15.2852L142.327 15.1973C142.448 14.5957 142.522 14.0801 142.549 13.6504C142.58 13.2168 142.6 12.7305 142.608 12.1914V11.5996H143.698V12.1914ZM146.159 18.6895H145.022V10.8027H146.159V18.6895ZM147.606 15.0918H145.678V14.1543H147.606V15.0918ZM146.498 21.0977H139.356V20.1777H146.498V21.0977ZM140.475 20.4707H139.356V17.9863H140.475V20.4707ZM137.762 16.1934C139.086 16.1895 140.28 16.166 141.342 16.123C142.405 16.0801 143.413 15.9902 144.366 15.8535L144.424 16.668C143.452 16.8359 142.416 16.9512 141.319 17.0137C140.221 17.0723 139.071 17.1016 137.868 17.1016L137.762 16.1934Z" fill="#7F8992"/>
<path d="M65.1543 200.098C64.6562 200.098 64.2103 200.013 63.8164 199.844C63.4225 199.674 63.1133 199.437 62.8887 199.131C62.6673 198.822 62.5501 198.472 62.5371 198.081H63.8213C63.8343 198.263 63.8994 198.426 64.0166 198.569C64.1338 198.713 64.2917 198.825 64.4902 198.906C64.6888 198.984 64.9085 199.023 65.1494 199.023C65.4066 199.023 65.6377 198.979 65.8428 198.892C66.0511 198.8 66.2122 198.677 66.3262 198.521C66.4401 198.361 66.4954 198.179 66.4922 197.974C66.4954 197.756 66.4385 197.565 66.3213 197.402C66.2074 197.236 66.0381 197.108 65.8135 197.017C65.5921 196.922 65.3301 196.875 65.0273 196.875H64.3975V195.894H65.0273C65.278 195.894 65.4993 195.851 65.6914 195.767C65.8867 195.679 66.0365 195.557 66.1406 195.4C66.248 195.244 66.3018 195.065 66.3018 194.863C66.3018 194.665 66.2546 194.491 66.1602 194.341C66.069 194.188 65.9372 194.071 65.7646 193.989C65.5954 193.905 65.3968 193.862 65.1689 193.862C64.9476 193.862 64.7409 193.903 64.5488 193.984C64.36 194.062 64.207 194.175 64.0898 194.321C63.9759 194.465 63.9141 194.635 63.9043 194.834H62.6787C62.695 194.443 62.8122 194.097 63.0303 193.794C63.2516 193.491 63.5495 193.255 63.9238 193.086C64.2982 192.917 64.7148 192.832 65.1738 192.832C65.6426 192.832 66.0544 192.918 66.4092 193.091C66.7673 193.263 67.0439 193.499 67.2393 193.799C67.4378 194.095 67.5339 194.425 67.5273 194.79C67.5339 195.047 67.4834 195.283 67.376 195.498C67.2686 195.71 67.1156 195.885 66.917 196.025C66.7184 196.165 66.4906 196.263 66.2334 196.318V196.372C66.5654 196.414 66.8486 196.512 67.083 196.665C67.3174 196.815 67.4964 197.007 67.6201 197.241C67.7438 197.472 67.8024 197.738 67.7959 198.037C67.8024 198.424 67.6901 198.776 67.459 199.092C67.2311 199.404 66.9154 199.65 66.5117 199.829C66.1113 200.008 65.6589 200.098 65.1543 200.098Z" fill="#7F8992"/>
<path d="M41.5859 199.077L44.0811 196.675C44.3545 196.401 44.5661 196.178 44.7158 196.006C44.8656 195.83 44.9795 195.656 45.0576 195.483C45.1357 195.311 45.1748 195.129 45.1748 194.937C45.1748 194.725 45.1211 194.538 45.0137 194.375C44.9062 194.212 44.7614 194.087 44.5791 193.999C44.3968 193.908 44.1885 193.862 43.9541 193.862C43.7197 193.862 43.5114 193.911 43.3291 194.009C43.1468 194.103 43.0068 194.24 42.9092 194.419C42.8115 194.598 42.7627 194.805 42.7627 195.039H41.5566C41.5566 194.6 41.6592 194.214 41.8643 193.882C42.0693 193.547 42.3542 193.288 42.7188 193.105C43.0866 192.923 43.5049 192.832 43.9736 192.832C44.4489 192.832 44.8688 192.92 45.2334 193.096C45.598 193.271 45.8812 193.514 46.083 193.823C46.2881 194.132 46.3906 194.484 46.3906 194.878C46.3906 195.151 46.3385 195.415 46.2344 195.669C46.1302 195.923 45.9512 196.203 45.6973 196.509C45.4466 196.815 45.0869 197.189 44.6182 197.632L43.3584 198.882V198.936H46.498V200H41.5908L41.5859 199.077Z" fill="#7F8992"/>
<path d="M24.457 200H23.1777V194.17H23.1387L21.4834 195.229V194.062L23.2363 192.93H24.457V200Z" fill="#7F8992"/>
<path d="M23.457 94H22.1777V88.1699H22.1387L20.4834 89.2295V88.0625L22.2363 86.9297H23.457V94Z" fill="#7F8992"/>
<path d="M133.237 94.0977C132.736 94.0944 132.279 93.9821 131.865 93.7607C131.455 93.5361 131.121 93.1699 130.864 92.6621C130.607 92.151 130.479 91.4854 130.479 90.665C130.479 89.8643 130.594 89.1758 130.825 88.5996C131.056 88.0234 131.383 87.5856 131.807 87.2861C132.233 86.9834 132.734 86.832 133.311 86.832C133.757 86.832 134.155 86.9183 134.507 87.0908C134.858 87.2601 135.143 87.4961 135.361 87.7988C135.583 88.1016 135.719 88.4466 135.771 88.834H134.517C134.468 88.6484 134.39 88.4889 134.282 88.3555C134.178 88.2188 134.043 88.1146 133.877 88.043C133.711 87.9714 133.522 87.9355 133.311 87.9355C132.972 87.9355 132.684 88.0316 132.446 88.2236C132.209 88.4124 132.026 88.6859 131.899 89.0439C131.776 89.402 131.714 89.8317 131.714 90.333H131.782C131.903 90.1279 132.054 89.9521 132.236 89.8057C132.422 89.6592 132.63 89.5485 132.861 89.4736C133.096 89.3955 133.34 89.3564 133.594 89.3564C134.014 89.3564 134.395 89.4557 134.736 89.6543C135.081 89.8496 135.352 90.123 135.547 90.4746C135.742 90.8229 135.84 91.2184 135.84 91.6611C135.84 92.1234 135.731 92.54 135.513 92.9111C135.298 93.2822 134.992 93.5736 134.595 93.7852C134.201 93.9935 133.748 94.0977 133.237 94.0977ZM133.232 93.0674C133.49 93.0674 133.722 93.0072 133.931 92.8867C134.139 92.763 134.303 92.5954 134.424 92.3838C134.548 92.1722 134.609 91.9411 134.609 91.6904C134.609 91.4365 134.551 91.2054 134.434 90.9971C134.316 90.7887 134.154 90.626 133.945 90.5088C133.74 90.3883 133.506 90.3281 133.242 90.3281C132.988 90.3281 132.756 90.39 132.544 90.5137C132.332 90.6341 132.165 90.8001 132.041 91.0117C131.917 91.2201 131.852 91.4479 131.846 91.6953C131.849 91.9395 131.911 92.1673 132.031 92.3789C132.155 92.5872 132.321 92.7549 132.529 92.8818C132.738 93.0055 132.972 93.0674 133.232 93.0674Z" fill="#7F8992"/>
<path d="M41.5859 93.0771L44.0811 90.6748C44.3545 90.4014 44.5661 90.1784 44.7158 90.0059C44.8656 89.8301 44.9795 89.6559 45.0576 89.4834C45.1357 89.3109 45.1748 89.1286 45.1748 88.9365C45.1748 88.7249 45.1211 88.5378 45.0137 88.375C44.9062 88.2122 44.7614 88.0869 44.5791 87.999C44.3968 87.9079 44.1885 87.8623 43.9541 87.8623C43.7197 87.8623 43.5114 87.9111 43.3291 88.0088C43.1468 88.1032 43.0068 88.2399 42.9092 88.4189C42.8115 88.598 42.7627 88.8047 42.7627 89.0391H41.5566C41.5566 88.5996 41.6592 88.2139 41.8643 87.8818C42.0693 87.5465 42.3542 87.2878 42.7188 87.1055C43.0866 86.9232 43.5049 86.832 43.9736 86.832C44.4489 86.832 44.8688 86.9199 45.2334 87.0957C45.598 87.2715 45.8812 87.514 46.083 87.8232C46.2881 88.1325 46.3906 88.484 46.3906 88.8779C46.3906 89.1514 46.3385 89.415 46.2344 89.6689C46.1302 89.9229 45.9512 90.2028 45.6973 90.5088C45.4466 90.8148 45.0869 91.1891 44.6182 91.6318L43.3584 92.8818V92.9355H46.498V94H41.5908L41.5859 93.0771Z" fill="#7F8992"/>
<path d="M154.916 88.0381V87.9941H151.356V86.9297H156.234V88.0186L153.168 94H151.85L154.916 88.0381Z" fill="#7F8992"/>
<path d="M65.1543 94.0977C64.6562 94.0977 64.2103 94.013 63.8164 93.8438C63.4225 93.6745 63.1133 93.4368 62.8887 93.1309C62.6673 92.8216 62.5501 92.4717 62.5371 92.0811H63.8213C63.8343 92.2633 63.8994 92.4261 64.0166 92.5693C64.1338 92.7126 64.2917 92.8249 64.4902 92.9062C64.6888 92.9844 64.9085 93.0234 65.1494 93.0234C65.4066 93.0234 65.6377 92.9795 65.8428 92.8916C66.0511 92.8005 66.2122 92.6768 66.3262 92.5205C66.4401 92.361 66.4954 92.1787 66.4922 91.9736C66.4954 91.7555 66.4385 91.5651 66.3213 91.4023C66.2074 91.2363 66.0381 91.1077 65.8135 91.0166C65.5921 90.9222 65.3301 90.875 65.0273 90.875H64.3975V89.8936H65.0273C65.278 89.8936 65.4993 89.8512 65.6914 89.7666C65.8867 89.6787 66.0365 89.5566 66.1406 89.4004C66.248 89.2441 66.3018 89.0651 66.3018 88.8633C66.3018 88.6647 66.2546 88.4906 66.1602 88.3408C66.069 88.1878 65.9372 88.0706 65.7646 87.9893C65.5954 87.9046 65.3968 87.8623 65.1689 87.8623C64.9476 87.8623 64.7409 87.903 64.5488 87.9844C64.36 88.0625 64.207 88.1748 64.0898 88.3213C63.9759 88.4645 63.9141 88.6354 63.9043 88.834H62.6787C62.695 88.4434 62.8122 88.0967 63.0303 87.7939C63.2516 87.4912 63.5495 87.2552 63.9238 87.0859C64.2982 86.9167 64.7148 86.832 65.1738 86.832C65.6426 86.832 66.0544 86.9183 66.4092 87.0908C66.7673 87.2633 67.0439 87.4993 67.2393 87.7988C67.4378 88.0951 67.5339 88.4255 67.5273 88.79C67.5339 89.0472 67.4834 89.2832 67.376 89.498C67.2686 89.7096 67.1156 89.8854 66.917 90.0254C66.7184 90.1654 66.4906 90.263 66.2334 90.3184V90.3721C66.5654 90.4144 66.8486 90.512 67.083 90.665C67.3174 90.8148 67.4964 91.0068 67.6201 91.2412C67.7438 91.4723 67.8024 91.7376 67.7959 92.0371C67.8024 92.4245 67.6901 92.776 67.459 93.0918C67.2311 93.4043 66.9154 93.6501 66.5117 93.8291C66.1113 94.0081 65.6589 94.0977 65.1543 94.0977Z" fill="#7F8992"/>
<path d="M175.154 94.0977C174.637 94.0977 174.174 94.0114 173.768 93.8389C173.361 93.6663 173.042 93.4287 172.811 93.126C172.583 92.8232 172.469 92.4831 172.469 92.1055C172.469 91.8125 172.534 91.5391 172.664 91.2852C172.798 91.0312 172.98 90.8213 173.211 90.6553C173.445 90.4893 173.702 90.3851 173.982 90.3428V90.2988C173.742 90.2435 173.527 90.1426 173.338 89.9961C173.149 89.8464 173.001 89.6608 172.894 89.4395C172.789 89.2181 172.737 88.9805 172.737 88.7266C172.737 88.3652 172.841 88.0413 173.05 87.7549C173.261 87.4652 173.549 87.2389 173.914 87.0762C174.282 86.9134 174.695 86.832 175.154 86.832C175.61 86.832 176.022 86.9134 176.39 87.0762C176.761 87.2389 177.05 87.4652 177.259 87.7549C177.467 88.0413 177.571 88.3652 177.571 88.7266C177.571 88.9805 177.518 89.2181 177.41 89.4395C177.303 89.6608 177.155 89.8464 176.966 89.9961C176.777 90.1426 176.562 90.2435 176.321 90.2988V90.3428C176.601 90.3851 176.857 90.4893 177.088 90.6553C177.319 90.8213 177.501 91.0312 177.635 91.2852C177.771 91.5391 177.84 91.8125 177.84 92.1055C177.84 92.4831 177.724 92.8232 177.493 93.126C177.265 93.4287 176.946 93.6663 176.536 93.8389C176.129 94.0114 175.669 94.0977 175.154 94.0977ZM175.154 93.0918C175.428 93.0918 175.667 93.0462 175.872 92.9551C176.08 92.8607 176.242 92.7305 176.355 92.5645C176.469 92.3984 176.526 92.208 176.526 91.9932C176.526 91.7718 176.468 91.5732 176.351 91.3975C176.233 91.2184 176.069 91.0801 175.857 90.9824C175.649 90.8815 175.415 90.8311 175.154 90.8311C174.894 90.8311 174.658 90.8815 174.446 90.9824C174.235 91.0801 174.07 91.2184 173.953 91.3975C173.836 91.5732 173.779 91.7718 173.782 91.9932C173.779 92.208 173.834 92.3984 173.948 92.5645C174.062 92.7305 174.223 92.8607 174.432 92.9551C174.64 93.0462 174.881 93.0918 175.154 93.0918ZM175.154 89.8887C175.379 89.8887 175.581 89.8447 175.76 89.7568C175.939 89.6657 176.079 89.542 176.18 89.3857C176.281 89.2295 176.331 89.0505 176.331 88.8486C176.331 88.6501 176.281 88.4727 176.18 88.3164C176.082 88.1602 175.944 88.0397 175.765 87.9551C175.586 87.8704 175.382 87.8281 175.154 87.8281C174.923 87.8281 174.718 87.8704 174.539 87.9551C174.36 88.0397 174.222 88.1602 174.124 88.3164C174.026 88.4727 173.978 88.6501 173.978 88.8486C173.978 89.0505 174.028 89.2295 174.129 89.3857C174.23 89.542 174.368 89.6657 174.544 89.7568C174.723 89.8447 174.926 89.8887 175.154 89.8887Z" fill="#7F8992"/>
<path d="M83.4541 91.6709L86.5107 86.9297H87.3506V88.375H86.8281L84.7578 91.583V91.6416H89.0254V92.6816H83.4541V91.6709ZM86.8867 92.3789L86.9014 91.9199V86.9297H88.1025V94H86.8867V92.3789Z" fill="#7F8992"/>
<path d="M196.101 86.832C196.602 86.832 197.058 86.9427 197.468 87.1641C197.881 87.3854 198.215 87.75 198.469 88.2578C198.726 88.7656 198.854 89.4297 198.854 90.25C198.858 91.0508 198.744 91.7409 198.513 92.3203C198.285 92.8965 197.956 93.3376 197.526 93.6436C197.1 93.9463 196.599 94.0977 196.022 94.0977C195.58 94.0977 195.181 94.0114 194.826 93.8389C194.471 93.6631 194.185 93.4238 193.967 93.1211C193.749 92.8151 193.614 92.4684 193.562 92.0811H194.812C194.857 92.2666 194.934 92.4277 195.041 92.5645C195.152 92.7012 195.29 92.807 195.456 92.8818C195.622 92.9567 195.811 92.9941 196.022 92.9941C196.361 92.9941 196.649 92.8981 196.887 92.7061C197.128 92.514 197.31 92.2373 197.434 91.876C197.561 91.5114 197.624 91.0785 197.624 90.5771H197.551C197.43 90.7757 197.279 90.9482 197.097 91.0947C196.914 91.2412 196.706 91.3535 196.472 91.4316C196.241 91.5098 195.996 91.5488 195.739 91.5488C195.323 91.5488 194.943 91.4512 194.602 91.2559C194.26 91.0573 193.99 90.7839 193.791 90.4355C193.592 90.084 193.493 89.6917 193.493 89.2588C193.493 88.7965 193.601 88.3815 193.815 88.0137C194.034 87.6426 194.34 87.3529 194.733 87.1445C195.131 86.9329 195.586 86.8288 196.101 86.832ZM196.101 87.8574C195.847 87.8574 195.614 87.9193 195.402 88.043C195.194 88.1634 195.03 88.3278 194.909 88.5361C194.789 88.7445 194.729 88.974 194.729 89.2246C194.732 89.4753 194.792 89.7048 194.909 89.9131C195.026 90.1182 195.188 90.2809 195.393 90.4014C195.598 90.5218 195.829 90.582 196.086 90.582C196.343 90.582 196.577 90.5186 196.789 90.3916C197.001 90.2646 197.168 90.097 197.292 89.8887C197.419 89.6771 197.481 89.4525 197.478 89.2148C197.478 88.9707 197.417 88.7461 197.297 88.541C197.176 88.3327 197.012 88.1667 196.804 88.043C196.599 87.9193 196.364 87.8574 196.101 87.8574Z" fill="#7F8992"/>
<path d="M237.457 94H236.178V88.1699H236.139L234.483 89.2295V88.0625L236.236 86.9297H237.457V94ZM241.797 94H240.518V88.1699H240.479L238.823 89.2295V88.0625L240.576 86.9297H241.797V94Z" fill="#7F8992"/>
<path d="M107.096 94.0977C106.633 94.0977 106.214 94.0114 105.836 93.8389C105.462 93.6631 105.167 93.4222 104.952 93.1162C104.737 92.8102 104.622 92.4652 104.605 92.0811H105.841C105.86 92.2699 105.927 92.4391 106.041 92.5889C106.155 92.7386 106.305 92.8558 106.49 92.9404C106.676 93.0251 106.878 93.0674 107.096 93.0674C107.356 93.0674 107.589 93.0088 107.794 92.8916C107.999 92.7744 108.16 92.6133 108.277 92.4082C108.395 92.2031 108.453 91.9704 108.453 91.71C108.453 91.443 108.393 91.2054 108.272 90.9971C108.155 90.7887 107.991 90.626 107.779 90.5088C107.568 90.3883 107.327 90.3281 107.057 90.3281C106.777 90.3249 106.539 90.3721 106.344 90.4697C106.148 90.5674 105.995 90.722 105.885 90.9336H104.708L105.133 86.9297H109.308V87.9941H106.183L105.968 89.874H106.026C106.17 89.7145 106.363 89.5843 106.607 89.4834C106.855 89.3825 107.12 89.332 107.403 89.332C107.836 89.332 108.227 89.4329 108.575 89.6348C108.924 89.8333 109.195 90.1117 109.391 90.4697C109.589 90.8245 109.688 91.2266 109.688 91.6758C109.688 92.1413 109.578 92.5579 109.356 92.9258C109.135 93.2936 108.827 93.5817 108.434 93.79C108.043 93.9951 107.597 94.0977 107.096 94.0977Z" fill="#7F8992"/>
<path d="M215.457 94H214.178V88.1699H214.139L212.483 89.2295V88.0625L214.236 86.9297H215.457V94ZM219.533 94.0977C218.967 94.0977 218.48 93.9561 218.073 93.6729C217.67 93.3896 217.359 92.9762 217.141 92.4326C216.926 91.8857 216.818 91.2298 216.818 90.4648C216.818 89.6999 216.926 89.0456 217.141 88.502C217.359 87.9583 217.671 87.5449 218.078 87.2617C218.485 86.9753 218.97 86.832 219.533 86.832C220.096 86.832 220.581 86.9753 220.988 87.2617C221.398 87.5449 221.711 87.96 221.926 88.5068C222.141 89.0505 222.248 89.7031 222.248 90.4648C222.248 91.2331 222.141 91.889 221.926 92.4326C221.714 92.9762 221.403 93.3896 220.993 93.6729C220.586 93.9561 220.1 94.0977 219.533 94.0977ZM219.533 93.0283C219.829 93.0283 220.085 92.9323 220.3 92.7402C220.515 92.5449 220.679 92.2568 220.793 91.876C220.91 91.4919 220.967 91.0215 220.964 90.4648C220.964 89.9115 220.905 89.4427 220.788 89.0586C220.674 88.6712 220.51 88.3799 220.295 88.1846C220.083 87.986 219.829 87.8867 219.533 87.8867C219.237 87.8867 218.981 87.986 218.767 88.1846C218.555 88.3799 218.391 88.6712 218.273 89.0586C218.156 89.4427 218.098 89.9115 218.098 90.4648C218.098 91.0215 218.155 91.4919 218.269 91.876C218.386 92.2568 218.552 92.5449 218.767 92.7402C218.981 92.9323 219.237 93.0283 219.533 93.0283Z" fill="#7F8992"/>
<path d="M257.457 94H256.178V88.1699H256.139L254.483 89.2295V88.0625L256.236 86.9297H257.457V94ZM258.926 93.0771L261.421 90.6748C261.694 90.4014 261.906 90.1784 262.056 90.0059C262.205 89.8301 262.319 89.6559 262.397 89.4834C262.476 89.3109 262.515 89.1286 262.515 88.9365C262.515 88.7249 262.461 88.5378 262.354 88.375C262.246 88.2122 262.101 88.0869 261.919 87.999C261.737 87.9079 261.528 87.8623 261.294 87.8623C261.06 87.8623 260.851 87.9111 260.669 88.0088C260.487 88.1032 260.347 88.2399 260.249 88.4189C260.151 88.598 260.103 88.8047 260.103 89.0391H258.896C258.896 88.5996 258.999 88.2139 259.204 87.8818C259.409 87.5465 259.694 87.2878 260.059 87.1055C260.426 86.9232 260.845 86.832 261.313 86.832C261.789 86.832 262.209 86.9199 262.573 87.0957C262.938 87.2715 263.221 87.514 263.423 87.8232C263.628 88.1325 263.73 88.484 263.73 88.8779C263.73 89.1514 263.678 89.415 263.574 89.6689C263.47 89.9229 263.291 90.2028 263.037 90.5088C262.786 90.8148 262.427 91.1891 261.958 91.6318L260.698 92.8818V92.9355H263.838V94H258.931L258.926 93.0771Z" fill="#7F8992"/>
<path d="M14.5234 188.484L16.4531 186.453C16.7083 186.182 16.9036 185.965 17.0391 185.801C17.1745 185.637 17.276 185.477 17.3438 185.32C17.4115 185.164 17.4453 185.003 17.4453 184.836C17.4453 184.648 17.3958 184.482 17.2969 184.336C17.1979 184.19 17.0638 184.077 16.8945 183.996C16.7253 183.915 16.5339 183.875 16.3203 183.875C16.1016 183.875 15.9089 183.919 15.7422 184.008C15.5755 184.096 15.4466 184.221 15.3555 184.383C15.2643 184.544 15.2188 184.729 15.2188 184.938H14.5547C14.5547 184.609 14.6315 184.319 14.7852 184.066C14.9388 183.814 15.1523 183.617 15.4258 183.477C15.6992 183.336 16.0052 183.266 16.3438 183.266C16.6823 183.266 16.9844 183.335 17.25 183.473C17.5156 183.611 17.724 183.799 17.875 184.039C18.026 184.279 18.1016 184.544 18.1016 184.836C18.1016 185.049 18.0625 185.255 17.9844 185.453C17.9062 185.651 17.776 185.868 17.5938 186.105C17.4115 186.342 17.1484 186.638 16.8047 186.992L15.5078 188.328V188.375H18.2031V189H14.5312L14.5234 188.484Z" fill="#A6AFB7"/>
<path d="M16.5312 83H15.8203V78.0781H15.7891L14.4141 78.9922V78.2812L15.8203 77.3438H16.5312V83Z" fill="#A6AFB7"/>
<path d="M126.531 83H125.82V78.0781H125.789L124.414 78.9922V78.2812L125.82 77.3438H126.531V83Z" fill="#A6AFB7"/>
<path d="M37.5312 83H36.8203V78.0781H36.7891L35.4141 78.9922V78.2812L36.8203 77.3438H37.5312V83Z" fill="#A6AFB7"/>
<path d="M147.531 83H146.82V78.0781H146.789L145.414 78.9922V78.2812L146.82 77.3438H147.531V83Z" fill="#A6AFB7"/>
<path d="M58.5312 83H57.8203V78.0781H57.7891L56.4141 78.9922V78.2812L57.8203 77.3438H58.5312V83Z" fill="#A6AFB7"/>
<path d="M168.531 83H167.82V78.0781H167.789L166.414 78.9922V78.2812L167.82 77.3438H168.531V83Z" fill="#A6AFB7"/>
<path d="M79.5312 83H78.8203V78.0781H78.7891L77.4141 78.9922V78.2812L78.8203 77.3438H79.5312V83Z" fill="#A6AFB7"/>
<path d="M189.531 83H188.82V78.0781H188.789L187.414 78.9922V78.2812L188.82 77.3438H189.531V83Z" fill="#A6AFB7"/>
<path d="M231.531 83H230.82V78.0781H230.789L229.414 78.9922V78.2812L230.82 77.3438H231.531V83Z" fill="#A6AFB7"/>
<path d="M100.531 83H99.8203V78.0781H99.7891L98.4141 78.9922V78.2812L99.8203 77.3438H100.531V83Z" fill="#A6AFB7"/>
<path d="M210.531 83H209.82V78.0781H209.789L208.414 78.9922V78.2812L209.82 77.3438H210.531V83Z" fill="#A6AFB7"/>
<path d="M252.531 83H251.82V78.0781H251.789L250.414 78.9922V78.2812L251.82 77.3438H252.531V83Z" fill="#A6AFB7"/>
<path d="M35.5234 188.484L37.4531 186.453C37.7083 186.182 37.9036 185.965 38.0391 185.801C38.1745 185.637 38.276 185.477 38.3438 185.32C38.4115 185.164 38.4453 185.003 38.4453 184.836C38.4453 184.648 38.3958 184.482 38.2969 184.336C38.1979 184.19 38.0638 184.077 37.8945 183.996C37.7253 183.915 37.5339 183.875 37.3203 183.875C37.1016 183.875 36.9089 183.919 36.7422 184.008C36.5755 184.096 36.4466 184.221 36.3555 184.383C36.2643 184.544 36.2188 184.729 36.2188 184.938H35.5547C35.5547 184.609 35.6315 184.319 35.7852 184.066C35.9388 183.814 36.1523 183.617 36.4258 183.477C36.6992 183.336 37.0052 183.266 37.3438 183.266C37.6823 183.266 37.9844 183.335 38.25 183.473C38.5156 183.611 38.724 183.799 38.875 184.039C39.026 184.279 39.1016 184.544 39.1016 184.836C39.1016 185.049 39.0625 185.255 38.9844 185.453C38.9062 185.651 38.776 185.868 38.5938 186.105C38.4115 186.342 38.1484 186.638 37.8047 186.992L36.5078 188.328V188.375H39.2031V189H35.5312L35.5234 188.484Z" fill="#A6AFB7"/>
<path d="M56.5234 188.484L58.4531 186.453C58.7083 186.182 58.9036 185.965 59.0391 185.801C59.1745 185.637 59.276 185.477 59.3438 185.32C59.4115 185.164 59.4453 185.003 59.4453 184.836C59.4453 184.648 59.3958 184.482 59.2969 184.336C59.1979 184.19 59.0638 184.077 58.8945 183.996C58.7253 183.915 58.5339 183.875 58.3203 183.875C58.1016 183.875 57.9089 183.919 57.7422 184.008C57.5755 184.096 57.4466 184.221 57.3555 184.383C57.2643 184.544 57.2188 184.729 57.2188 184.938H56.5547C56.5547 184.609 56.6315 184.319 56.7852 184.066C56.9388 183.814 57.1523 183.617 57.4258 183.477C57.6992 183.336 58.0052 183.266 58.3438 183.266C58.6823 183.266 58.9844 183.335 59.25 183.473C59.5156 183.611 59.724 183.799 59.875 184.039C60.026 184.279 60.1016 184.544 60.1016 184.836C60.1016 185.049 60.0625 185.255 59.9844 185.453C59.9062 185.651 59.776 185.868 59.5938 186.105C59.4115 186.342 59.1484 186.638 58.8047 186.992L57.5078 188.328V188.375H60.2031V189H56.5312L56.5234 188.484Z" fill="#A6AFB7"/>
<path d="M82.5234 188.484L84.4531 186.453C84.7083 186.182 84.9036 185.965 85.0391 185.801C85.1745 185.637 85.276 185.477 85.3438 185.32C85.4115 185.164 85.4453 185.003 85.4453 184.836C85.4453 184.648 85.3958 184.482 85.2969 184.336C85.1979 184.19 85.0638 184.077 84.8945 183.996C84.7253 183.915 84.5339 183.875 84.3203 183.875C84.1016 183.875 83.9089 183.919 83.7422 184.008C83.5755 184.096 83.4466 184.221 83.3555 184.383C83.2643 184.544 83.2188 184.729 83.2188 184.938H82.5547C82.5547 184.609 82.6315 184.319 82.7852 184.066C82.9388 183.814 83.1523 183.617 83.4258 183.477C83.6992 183.336 84.0052 183.266 84.3438 183.266C84.6823 183.266 84.9844 183.335 85.25 183.473C85.5156 183.611 85.724 183.799 85.875 184.039C86.026 184.279 86.1016 184.544 86.1016 184.836C86.1016 185.049 86.0625 185.255 85.9844 185.453C85.9062 185.651 85.776 185.868 85.5938 186.105C85.4115 186.342 85.1484 186.638 84.8047 186.992L83.5078 188.328V188.375H86.2031V189H82.5312L82.5234 188.484Z" fill="#A6AFB7"/>
<path d="M103.523 188.484L105.453 186.453C105.708 186.182 105.904 185.965 106.039 185.801C106.174 185.637 106.276 185.477 106.344 185.32C106.411 185.164 106.445 185.003 106.445 184.836C106.445 184.648 106.396 184.482 106.297 184.336C106.198 184.19 106.064 184.077 105.895 183.996C105.725 183.915 105.534 183.875 105.32 183.875C105.102 183.875 104.909 183.919 104.742 184.008C104.576 184.096 104.447 184.221 104.355 184.383C104.264 184.544 104.219 184.729 104.219 184.938H103.555C103.555 184.609 103.632 184.319 103.785 184.066C103.939 183.814 104.152 183.617 104.426 183.477C104.699 183.336 105.005 183.266 105.344 183.266C105.682 183.266 105.984 183.335 106.25 183.473C106.516 183.611 106.724 183.799 106.875 184.039C107.026 184.279 107.102 184.544 107.102 184.836C107.102 185.049 107.062 185.255 106.984 185.453C106.906 185.651 106.776 185.868 106.594 186.105C106.411 186.342 106.148 186.638 105.805 186.992L104.508 188.328V188.375H107.203V189H103.531L103.523 188.484Z" fill="#A6AFB7"/>
<path d="M124.523 188.484L126.453 186.453C126.708 186.182 126.904 185.965 127.039 185.801C127.174 185.637 127.276 185.477 127.344 185.32C127.411 185.164 127.445 185.003 127.445 184.836C127.445 184.648 127.396 184.482 127.297 184.336C127.198 184.19 127.064 184.077 126.895 183.996C126.725 183.915 126.534 183.875 126.32 183.875C126.102 183.875 125.909 183.919 125.742 184.008C125.576 184.096 125.447 184.221 125.355 184.383C125.264 184.544 125.219 184.729 125.219 184.938H124.555C124.555 184.609 124.632 184.319 124.785 184.066C124.939 183.814 125.152 183.617 125.426 183.477C125.699 183.336 126.005 183.266 126.344 183.266C126.682 183.266 126.984 183.335 127.25 183.473C127.516 183.611 127.724 183.799 127.875 184.039C128.026 184.279 128.102 184.544 128.102 184.836C128.102 185.049 128.062 185.255 127.984 185.453C127.906 185.651 127.776 185.868 127.594 186.105C127.411 186.342 127.148 186.638 126.805 186.992L125.508 188.328V188.375H128.203V189H124.531L124.523 188.484Z" fill="#A6AFB7"/>
<path d="M145.523 188.484L147.453 186.453C147.708 186.182 147.904 185.965 148.039 185.801C148.174 185.637 148.276 185.477 148.344 185.32C148.411 185.164 148.445 185.003 148.445 184.836C148.445 184.648 148.396 184.482 148.297 184.336C148.198 184.19 148.064 184.077 147.895 183.996C147.725 183.915 147.534 183.875 147.32 183.875C147.102 183.875 146.909 183.919 146.742 184.008C146.576 184.096 146.447 184.221 146.355 184.383C146.264 184.544 146.219 184.729 146.219 184.938H145.555C145.555 184.609 145.632 184.319 145.785 184.066C145.939 183.814 146.152 183.617 146.426 183.477C146.699 183.336 147.005 183.266 147.344 183.266C147.682 183.266 147.984 183.335 148.25 183.473C148.516 183.611 148.724 183.799 148.875 184.039C149.026 184.279 149.102 184.544 149.102 184.836C149.102 185.049 149.062 185.255 148.984 185.453C148.906 185.651 148.776 185.868 148.594 186.105C148.411 186.342 148.148 186.638 147.805 186.992L146.508 188.328V188.375H149.203V189H145.531L145.523 188.484Z" fill="white"/>
<path d="M166.523 188.484L168.453 186.453C168.708 186.182 168.904 185.965 169.039 185.801C169.174 185.637 169.276 185.477 169.344 185.32C169.411 185.164 169.445 185.003 169.445 184.836C169.445 184.648 169.396 184.482 169.297 184.336C169.198 184.19 169.064 184.077 168.895 183.996C168.725 183.915 168.534 183.875 168.32 183.875C168.102 183.875 167.909 183.919 167.742 184.008C167.576 184.096 167.447 184.221 167.355 184.383C167.264 184.544 167.219 184.729 167.219 184.938H166.555C166.555 184.609 166.632 184.319 166.785 184.066C166.939 183.814 167.152 183.617 167.426 183.477C167.699 183.336 168.005 183.266 168.344 183.266C168.682 183.266 168.984 183.335 169.25 183.473C169.516 183.611 169.724 183.799 169.875 184.039C170.026 184.279 170.102 184.544 170.102 184.836C170.102 185.049 170.062 185.255 169.984 185.453C169.906 185.651 169.776 185.868 169.594 186.105C169.411 186.342 169.148 186.638 168.805 186.992L167.508 188.328V188.375H170.203V189H166.531L166.523 188.484Z" fill="#A6AFB7"/>
<path d="M187.523 188.484L189.453 186.453C189.708 186.182 189.904 185.965 190.039 185.801C190.174 185.637 190.276 185.477 190.344 185.32C190.411 185.164 190.445 185.003 190.445 184.836C190.445 184.648 190.396 184.482 190.297 184.336C190.198 184.19 190.064 184.077 189.895 183.996C189.725 183.915 189.534 183.875 189.32 183.875C189.102 183.875 188.909 183.919 188.742 184.008C188.576 184.096 188.447 184.221 188.355 184.383C188.264 184.544 188.219 184.729 188.219 184.938H187.555C187.555 184.609 187.632 184.319 187.785 184.066C187.939 183.814 188.152 183.617 188.426 183.477C188.699 183.336 189.005 183.266 189.344 183.266C189.682 183.266 189.984 183.335 190.25 183.473C190.516 183.611 190.724 183.799 190.875 184.039C191.026 184.279 191.102 184.544 191.102 184.836C191.102 185.049 191.062 185.255 190.984 185.453C190.906 185.651 190.776 185.868 190.594 186.105C190.411 186.342 190.148 186.638 189.805 186.992L188.508 188.328V188.375H191.203V189H187.531L187.523 188.484Z" fill="#A6AFB7"/>
<path d="M208.523 188.484L210.453 186.453C210.708 186.182 210.904 185.965 211.039 185.801C211.174 185.637 211.276 185.477 211.344 185.32C211.411 185.164 211.445 185.003 211.445 184.836C211.445 184.648 211.396 184.482 211.297 184.336C211.198 184.19 211.064 184.077 210.895 183.996C210.725 183.915 210.534 183.875 210.32 183.875C210.102 183.875 209.909 183.919 209.742 184.008C209.576 184.096 209.447 184.221 209.355 184.383C209.264 184.544 209.219 184.729 209.219 184.938H208.555C208.555 184.609 208.632 184.319 208.785 184.066C208.939 183.814 209.152 183.617 209.426 183.477C209.699 183.336 210.005 183.266 210.344 183.266C210.682 183.266 210.984 183.335 211.25 183.473C211.516 183.611 211.724 183.799 211.875 184.039C212.026 184.279 212.102 184.544 212.102 184.836C212.102 185.049 212.062 185.255 211.984 185.453C211.906 185.651 211.776 185.868 211.594 186.105C211.411 186.342 211.148 186.638 210.805 186.992L209.508 188.328V188.375H212.203V189H208.531L208.523 188.484Z" fill="#A6AFB7"/>
<path d="M229.523 188.484L231.453 186.453C231.708 186.182 231.904 185.965 232.039 185.801C232.174 185.637 232.276 185.477 232.344 185.32C232.411 185.164 232.445 185.003 232.445 184.836C232.445 184.648 232.396 184.482 232.297 184.336C232.198 184.19 232.064 184.077 231.895 183.996C231.725 183.915 231.534 183.875 231.32 183.875C231.102 183.875 230.909 183.919 230.742 184.008C230.576 184.096 230.447 184.221 230.355 184.383C230.264 184.544 230.219 184.729 230.219 184.938H229.555C229.555 184.609 229.632 184.319 229.785 184.066C229.939 183.814 230.152 183.617 230.426 183.477C230.699 183.336 231.005 183.266 231.344 183.266C231.682 183.266 231.984 183.335 232.25 183.473C232.516 183.611 232.724 183.799 232.875 184.039C233.026 184.279 233.102 184.544 233.102 184.836C233.102 185.049 233.062 185.255 232.984 185.453C232.906 185.651 232.776 185.868 232.594 186.105C232.411 186.342 232.148 186.638 231.805 186.992L230.508 188.328V188.375H233.203V189H229.531L229.523 188.484Z" fill="#A6AFB7"/>
<path d="M250.523 188.484L252.453 186.453C252.708 186.182 252.904 185.965 253.039 185.801C253.174 185.637 253.276 185.477 253.344 185.32C253.411 185.164 253.445 185.003 253.445 184.836C253.445 184.648 253.396 184.482 253.297 184.336C253.198 184.19 253.064 184.077 252.895 183.996C252.725 183.915 252.534 183.875 252.32 183.875C252.102 183.875 251.909 183.919 251.742 184.008C251.576 184.096 251.447 184.221 251.355 184.383C251.264 184.544 251.219 184.729 251.219 184.938H250.555C250.555 184.609 250.632 184.319 250.785 184.066C250.939 183.814 251.152 183.617 251.426 183.477C251.699 183.336 252.005 183.266 252.344 183.266C252.682 183.266 252.984 183.335 253.25 183.473C253.516 183.611 253.724 183.799 253.875 184.039C254.026 184.279 254.102 184.544 254.102 184.836C254.102 185.049 254.062 185.255 253.984 185.453C253.906 185.651 253.776 185.868 253.594 186.105C253.411 186.342 253.148 186.638 252.805 186.992L251.508 188.328V188.375H254.203V189H250.531L250.523 188.484Z" fill="#A6AFB7"/>
<path d="M271.523 188.484L273.453 186.453C273.708 186.182 273.904 185.965 274.039 185.801C274.174 185.637 274.276 185.477 274.344 185.32C274.411 185.164 274.445 185.003 274.445 184.836C274.445 184.648 274.396 184.482 274.297 184.336C274.198 184.19 274.064 184.077 273.895 183.996C273.725 183.915 273.534 183.875 273.32 183.875C273.102 183.875 272.909 183.919 272.742 184.008C272.576 184.096 272.447 184.221 272.355 184.383C272.264 184.544 272.219 184.729 272.219 184.938H271.555C271.555 184.609 271.632 184.319 271.785 184.066C271.939 183.814 272.152 183.617 272.426 183.477C272.699 183.336 273.005 183.266 273.344 183.266C273.682 183.266 273.984 183.335 274.25 183.473C274.516 183.611 274.724 183.799 274.875 184.039C275.026 184.279 275.102 184.544 275.102 184.836C275.102 185.049 275.062 185.255 274.984 185.453C274.906 185.651 274.776 185.868 274.594 186.105C274.411 186.342 274.148 186.638 273.805 186.992L272.508 188.328V188.375H275.203V189H271.531L271.523 188.484Z" fill="#A6AFB7"/>
<path d="M292.523 188.484L294.453 186.453C294.708 186.182 294.904 185.965 295.039 185.801C295.174 185.637 295.276 185.477 295.344 185.32C295.411 185.164 295.445 185.003 295.445 184.836C295.445 184.648 295.396 184.482 295.297 184.336C295.198 184.19 295.064 184.077 294.895 183.996C294.725 183.915 294.534 183.875 294.32 183.875C294.102 183.875 293.909 183.919 293.742 184.008C293.576 184.096 293.447 184.221 293.355 184.383C293.264 184.544 293.219 184.729 293.219 184.938H292.555C292.555 184.609 292.632 184.319 292.785 184.066C292.939 183.814 293.152 183.617 293.426 183.477C293.699 183.336 294.005 183.266 294.344 183.266C294.682 183.266 294.984 183.335 295.25 183.473C295.516 183.611 295.724 183.799 295.875 184.039C296.026 184.279 296.102 184.544 296.102 184.836C296.102 185.049 296.062 185.255 295.984 185.453C295.906 185.651 295.776 185.868 295.594 186.105C295.411 186.342 295.148 186.638 294.805 186.992L293.508 188.328V188.375H296.203V189H292.531L292.523 188.484Z" fill="#A6AFB7"/>
<path d="M88.4541 197.671L91.5107 192.93H92.3506V194.375H91.8281L89.7578 197.583V197.642H94.0254V198.682H88.4541V197.671ZM91.8867 198.379L91.9014 197.92V192.93H93.1025V200H91.8867V198.379Z" fill="#7F8992"/>
<path d="M112.096 200.098C111.633 200.098 111.214 200.011 110.836 199.839C110.462 199.663 110.167 199.422 109.952 199.116C109.737 198.81 109.622 198.465 109.605 198.081H110.841C110.86 198.27 110.927 198.439 111.041 198.589C111.155 198.739 111.305 198.856 111.49 198.94C111.676 199.025 111.878 199.067 112.096 199.067C112.356 199.067 112.589 199.009 112.794 198.892C112.999 198.774 113.16 198.613 113.277 198.408C113.395 198.203 113.453 197.97 113.453 197.71C113.453 197.443 113.393 197.205 113.272 196.997C113.155 196.789 112.991 196.626 112.779 196.509C112.568 196.388 112.327 196.328 112.057 196.328C111.777 196.325 111.539 196.372 111.344 196.47C111.148 196.567 110.995 196.722 110.885 196.934H109.708L110.133 192.93H114.308V193.994H111.183L110.968 195.874H111.026C111.17 195.715 111.363 195.584 111.607 195.483C111.855 195.382 112.12 195.332 112.403 195.332C112.836 195.332 113.227 195.433 113.575 195.635C113.924 195.833 114.195 196.112 114.391 196.47C114.589 196.825 114.688 197.227 114.688 197.676C114.688 198.141 114.578 198.558 114.356 198.926C114.135 199.294 113.827 199.582 113.434 199.79C113.043 199.995 112.597 200.098 112.096 200.098Z" fill="#7F8992"/>
<path d="M133.237 200.098C132.736 200.094 132.279 199.982 131.865 199.761C131.455 199.536 131.121 199.17 130.864 198.662C130.607 198.151 130.479 197.485 130.479 196.665C130.479 195.864 130.594 195.176 130.825 194.6C131.056 194.023 131.383 193.586 131.807 193.286C132.233 192.983 132.734 192.832 133.311 192.832C133.757 192.832 134.155 192.918 134.507 193.091C134.858 193.26 135.143 193.496 135.361 193.799C135.583 194.102 135.719 194.447 135.771 194.834H134.517C134.468 194.648 134.39 194.489 134.282 194.355C134.178 194.219 134.043 194.115 133.877 194.043C133.711 193.971 133.522 193.936 133.311 193.936C132.972 193.936 132.684 194.032 132.446 194.224C132.209 194.412 132.026 194.686 131.899 195.044C131.776 195.402 131.714 195.832 131.714 196.333H131.782C131.903 196.128 132.054 195.952 132.236 195.806C132.422 195.659 132.63 195.549 132.861 195.474C133.096 195.396 133.34 195.356 133.594 195.356C134.014 195.356 134.395 195.456 134.736 195.654C135.081 195.85 135.352 196.123 135.547 196.475C135.742 196.823 135.84 197.218 135.84 197.661C135.84 198.123 135.731 198.54 135.513 198.911C135.298 199.282 134.992 199.574 134.595 199.785C134.201 199.993 133.748 200.098 133.237 200.098ZM133.232 199.067C133.49 199.067 133.722 199.007 133.931 198.887C134.139 198.763 134.303 198.595 134.424 198.384C134.548 198.172 134.609 197.941 134.609 197.69C134.609 197.437 134.551 197.205 134.434 196.997C134.316 196.789 134.154 196.626 133.945 196.509C133.74 196.388 133.506 196.328 133.242 196.328C132.988 196.328 132.756 196.39 132.544 196.514C132.332 196.634 132.165 196.8 132.041 197.012C131.917 197.22 131.852 197.448 131.846 197.695C131.849 197.939 131.911 198.167 132.031 198.379C132.155 198.587 132.321 198.755 132.529 198.882C132.738 199.006 132.972 199.067 133.232 199.067Z" fill="#7F8992"/>
<path d="M154.916 194.038V193.994H151.356V192.93H156.234V194.019L153.168 200H151.85L154.916 194.038Z" fill="white"/>
<path d="M175.154 200.098C174.637 200.098 174.174 200.011 173.768 199.839C173.361 199.666 173.042 199.429 172.811 199.126C172.583 198.823 172.469 198.483 172.469 198.105C172.469 197.812 172.534 197.539 172.664 197.285C172.798 197.031 172.98 196.821 173.211 196.655C173.445 196.489 173.702 196.385 173.982 196.343V196.299C173.742 196.243 173.527 196.143 173.338 195.996C173.149 195.846 173.001 195.661 172.894 195.439C172.789 195.218 172.737 194.98 172.737 194.727C172.737 194.365 172.841 194.041 173.05 193.755C173.261 193.465 173.549 193.239 173.914 193.076C174.282 192.913 174.695 192.832 175.154 192.832C175.61 192.832 176.022 192.913 176.39 193.076C176.761 193.239 177.05 193.465 177.259 193.755C177.467 194.041 177.571 194.365 177.571 194.727C177.571 194.98 177.518 195.218 177.41 195.439C177.303 195.661 177.155 195.846 176.966 195.996C176.777 196.143 176.562 196.243 176.321 196.299V196.343C176.601 196.385 176.857 196.489 177.088 196.655C177.319 196.821 177.501 197.031 177.635 197.285C177.771 197.539 177.84 197.812 177.84 198.105C177.84 198.483 177.724 198.823 177.493 199.126C177.265 199.429 176.946 199.666 176.536 199.839C176.129 200.011 175.669 200.098 175.154 200.098ZM175.154 199.092C175.428 199.092 175.667 199.046 175.872 198.955C176.08 198.861 176.242 198.73 176.355 198.564C176.469 198.398 176.526 198.208 176.526 197.993C176.526 197.772 176.468 197.573 176.351 197.397C176.233 197.218 176.069 197.08 175.857 196.982C175.649 196.882 175.415 196.831 175.154 196.831C174.894 196.831 174.658 196.882 174.446 196.982C174.235 197.08 174.07 197.218 173.953 197.397C173.836 197.573 173.779 197.772 173.782 197.993C173.779 198.208 173.834 198.398 173.948 198.564C174.062 198.73 174.223 198.861 174.432 198.955C174.64 199.046 174.881 199.092 175.154 199.092ZM175.154 195.889C175.379 195.889 175.581 195.845 175.76 195.757C175.939 195.666 176.079 195.542 176.18 195.386C176.281 195.229 176.331 195.05 176.331 194.849C176.331 194.65 176.281 194.473 176.18 194.316C176.082 194.16 175.944 194.04 175.765 193.955C175.586 193.87 175.382 193.828 175.154 193.828C174.923 193.828 174.718 193.87 174.539 193.955C174.36 194.04 174.222 194.16 174.124 194.316C174.026 194.473 173.978 194.65 173.978 194.849C173.978 195.05 174.028 195.229 174.129 195.386C174.23 195.542 174.368 195.666 174.544 195.757C174.723 195.845 174.926 195.889 175.154 195.889Z" fill="#7F8992"/>
<path d="M196.101 192.832C196.602 192.832 197.058 192.943 197.468 193.164C197.881 193.385 198.215 193.75 198.469 194.258C198.726 194.766 198.854 195.43 198.854 196.25C198.858 197.051 198.744 197.741 198.513 198.32C198.285 198.896 197.956 199.338 197.526 199.644C197.1 199.946 196.599 200.098 196.022 200.098C195.58 200.098 195.181 200.011 194.826 199.839C194.471 199.663 194.185 199.424 193.967 199.121C193.749 198.815 193.614 198.468 193.562 198.081H194.812C194.857 198.267 194.934 198.428 195.041 198.564C195.152 198.701 195.29 198.807 195.456 198.882C195.622 198.957 195.811 198.994 196.022 198.994C196.361 198.994 196.649 198.898 196.887 198.706C197.128 198.514 197.31 198.237 197.434 197.876C197.561 197.511 197.624 197.078 197.624 196.577H197.551C197.43 196.776 197.279 196.948 197.097 197.095C196.914 197.241 196.706 197.354 196.472 197.432C196.241 197.51 195.996 197.549 195.739 197.549C195.323 197.549 194.943 197.451 194.602 197.256C194.26 197.057 193.99 196.784 193.791 196.436C193.592 196.084 193.493 195.692 193.493 195.259C193.493 194.797 193.601 194.382 193.815 194.014C194.034 193.643 194.34 193.353 194.733 193.145C195.131 192.933 195.586 192.829 196.101 192.832ZM196.101 193.857C195.847 193.857 195.614 193.919 195.402 194.043C195.194 194.163 195.03 194.328 194.909 194.536C194.789 194.744 194.729 194.974 194.729 195.225C194.732 195.475 194.792 195.705 194.909 195.913C195.026 196.118 195.188 196.281 195.393 196.401C195.598 196.522 195.829 196.582 196.086 196.582C196.343 196.582 196.577 196.519 196.789 196.392C197.001 196.265 197.168 196.097 197.292 195.889C197.419 195.677 197.481 195.452 197.478 195.215C197.478 194.971 197.417 194.746 197.297 194.541C197.176 194.333 197.012 194.167 196.804 194.043C196.599 193.919 196.364 193.857 196.101 193.857Z" fill="#7F8992"/>
<path d="M215.457 200H214.178V194.17H214.139L212.483 195.229V194.062L214.236 192.93H215.457V200ZM219.533 200.098C218.967 200.098 218.48 199.956 218.073 199.673C217.67 199.39 217.359 198.976 217.141 198.433C216.926 197.886 216.818 197.23 216.818 196.465C216.818 195.7 216.926 195.046 217.141 194.502C217.359 193.958 217.671 193.545 218.078 193.262C218.485 192.975 218.97 192.832 219.533 192.832C220.096 192.832 220.581 192.975 220.988 193.262C221.398 193.545 221.711 193.96 221.926 194.507C222.141 195.05 222.248 195.703 222.248 196.465C222.248 197.233 222.141 197.889 221.926 198.433C221.714 198.976 221.403 199.39 220.993 199.673C220.586 199.956 220.1 200.098 219.533 200.098ZM219.533 199.028C219.829 199.028 220.085 198.932 220.3 198.74C220.515 198.545 220.679 198.257 220.793 197.876C220.91 197.492 220.967 197.021 220.964 196.465C220.964 195.911 220.905 195.443 220.788 195.059C220.674 194.671 220.51 194.38 220.295 194.185C220.083 193.986 219.829 193.887 219.533 193.887C219.237 193.887 218.981 193.986 218.767 194.185C218.555 194.38 218.391 194.671 218.273 195.059C218.156 195.443 218.098 195.911 218.098 196.465C218.098 197.021 218.155 197.492 218.269 197.876C218.386 198.257 218.552 198.545 218.767 198.74C218.981 198.932 219.237 199.028 219.533 199.028Z" fill="#7F8992"/>
<path d="M237.457 200H236.178V194.17H236.139L234.483 195.229V194.062L236.236 192.93H237.457V200ZM241.797 200H240.518V194.17H240.479L238.823 195.229V194.062L240.576 192.93H241.797V200Z" fill="#7F8992"/>
<path d="M257.457 200H256.178V194.17H256.139L254.483 195.229V194.062L256.236 192.93H257.457V200ZM258.926 199.077L261.421 196.675C261.694 196.401 261.906 196.178 262.056 196.006C262.205 195.83 262.319 195.656 262.397 195.483C262.476 195.311 262.515 195.129 262.515 194.937C262.515 194.725 262.461 194.538 262.354 194.375C262.246 194.212 262.101 194.087 261.919 193.999C261.737 193.908 261.528 193.862 261.294 193.862C261.06 193.862 260.851 193.911 260.669 194.009C260.487 194.103 260.347 194.24 260.249 194.419C260.151 194.598 260.103 194.805 260.103 195.039H258.896C258.896 194.6 258.999 194.214 259.204 193.882C259.409 193.547 259.694 193.288 260.059 193.105C260.426 192.923 260.845 192.832 261.313 192.832C261.789 192.832 262.209 192.92 262.573 193.096C262.938 193.271 263.221 193.514 263.423 193.823C263.628 194.132 263.73 194.484 263.73 194.878C263.73 195.151 263.678 195.415 263.574 195.669C263.47 195.923 263.291 196.203 263.037 196.509C262.786 196.815 262.427 197.189 261.958 197.632L260.698 198.882V198.936H263.838V200H258.931L258.926 199.077Z" fill="#7F8992"/>
<path d="M278.457 200H277.178V194.17H277.139L275.483 195.229V194.062L277.236 192.93H278.457V200ZM282.494 200.098C281.996 200.098 281.55 200.013 281.156 199.844C280.762 199.674 280.453 199.437 280.229 199.131C280.007 198.822 279.89 198.472 279.877 198.081H281.161C281.174 198.263 281.239 198.426 281.356 198.569C281.474 198.713 281.632 198.825 281.83 198.906C282.029 198.984 282.248 199.023 282.489 199.023C282.746 199.023 282.978 198.979 283.183 198.892C283.391 198.8 283.552 198.677 283.666 198.521C283.78 198.361 283.835 198.179 283.832 197.974C283.835 197.756 283.778 197.565 283.661 197.402C283.547 197.236 283.378 197.108 283.153 197.017C282.932 196.922 282.67 196.875 282.367 196.875H281.737V195.894H282.367C282.618 195.894 282.839 195.851 283.031 195.767C283.227 195.679 283.376 195.557 283.48 195.4C283.588 195.244 283.642 195.065 283.642 194.863C283.642 194.665 283.594 194.491 283.5 194.341C283.409 194.188 283.277 194.071 283.104 193.989C282.935 193.905 282.737 193.862 282.509 193.862C282.287 193.862 282.081 193.903 281.889 193.984C281.7 194.062 281.547 194.175 281.43 194.321C281.316 194.465 281.254 194.635 281.244 194.834H280.019C280.035 194.443 280.152 194.097 280.37 193.794C280.591 193.491 280.889 193.255 281.264 193.086C281.638 192.917 282.055 192.832 282.514 192.832C282.982 192.832 283.394 192.918 283.749 193.091C284.107 193.263 284.384 193.499 284.579 193.799C284.778 194.095 284.874 194.425 284.867 194.79C284.874 195.047 284.823 195.283 284.716 195.498C284.608 195.71 284.455 195.885 284.257 196.025C284.058 196.165 283.83 196.263 283.573 196.318V196.372C283.905 196.414 284.188 196.512 284.423 196.665C284.657 196.815 284.836 197.007 284.96 197.241C285.084 197.472 285.142 197.738 285.136 198.037C285.142 198.424 285.03 198.776 284.799 199.092C284.571 199.404 284.255 199.65 283.852 199.829C283.451 200.008 282.999 200.098 282.494 200.098Z" fill="#7F8992"/>
<path d="M299.457 200H298.178V194.17H298.139L296.483 195.229V194.062L298.236 192.93H299.457V200ZM300.794 197.671L303.851 192.93H304.69V194.375H304.168L302.098 197.583V197.642H306.365V198.682H300.794V197.671ZM304.227 198.379L304.241 197.92V192.93H305.442V200H304.227V198.379Z" fill="#7F8992"/>
<path d="M307.521 85.0254H299.605V83.9766H307.521V85.0254ZM307.451 88.6289H299.658V87.6035H307.451V88.6289ZM302.371 88.166H301.07V84.8027H302.371V88.166ZM306.057 88.166H304.768V84.8027H306.057V88.166ZM308.4 90.709H298.721V89.6426H308.4V90.709ZM304.188 94.0312H302.904V90.1113H304.188V94.0312ZM317.399 89.4668H309.97V88.418H317.399V89.4668ZM318.483 92.7012H308.804V91.623H318.483V92.7012ZM317.311 85.4297H311.264V88.8633H309.97V84.3691H317.311V85.4297ZM327.476 90.041H320.046V89.0098H327.476V90.041ZM328.554 92.7539H318.875V91.6934H328.554V92.7539ZM327.382 85.3418H321.371V89.291H320.046V84.2754H327.382V85.3418ZM327.142 87.6328H320.978V86.6074H327.142V87.6328ZM337.811 89.9531H336.51V83.4609H337.811V89.9531ZM336.815 86.9941H334.7V85.9453H336.815V86.9941ZM337.811 94.0547H336.51V91.5117H330.569V90.4863H337.811V94.0547ZM330.205 88.4707C330.975 88.4707 331.594 88.4648 332.063 88.4531C332.536 88.4375 333.006 88.4121 333.475 88.377C333.948 88.3379 334.428 88.2754 334.916 88.1895L335.022 89.2676C334.291 89.3809 333.577 89.4551 332.877 89.4902C332.182 89.5215 331.291 89.5391 330.205 89.543H329.368V88.4707H330.205ZM334.12 87.252H330.657V89.2207H329.368V86.25H332.848V85.1309H329.35V84.082H334.12V87.252Z" fill="#7F8992"/>
<path d="M62.168 105.766C62.9258 105.766 63.5801 105.844 64.1309 106C64.6816 106.156 65.1055 106.383 65.4023 106.68C65.6992 106.977 65.8477 107.332 65.8477 107.746C65.8477 108.152 65.6992 108.5 65.4023 108.789C65.1055 109.078 64.6816 109.301 64.1309 109.457C63.5801 109.613 62.9258 109.691 62.168 109.691C61.418 109.691 60.7656 109.613 60.2109 109.457C59.6562 109.301 59.2285 109.078 58.9277 108.789C58.627 108.5 58.4766 108.152 58.4766 107.746C58.4766 107.332 58.627 106.977 58.9277 106.68C59.2285 106.383 59.6562 106.156 60.2109 106C60.7656 105.844 61.418 105.766 62.168 105.766ZM62.168 106.504C61.6133 106.504 61.1289 106.553 60.7148 106.65C60.3008 106.748 59.9824 106.891 59.7598 107.078C59.5371 107.266 59.4258 107.488 59.4258 107.746C59.4258 107.996 59.5352 108.211 59.7539 108.391C59.9727 108.57 60.2891 108.709 60.7031 108.807C61.1172 108.904 61.6055 108.957 62.168 108.965C62.7227 108.957 63.207 108.904 63.6211 108.807C64.0352 108.709 64.3535 108.57 64.5762 108.391C64.7988 108.211 64.9102 107.996 64.9102 107.746C64.9102 107.488 64.7988 107.266 64.5762 107.078C64.3535 106.891 64.0352 106.748 63.6211 106.65C63.207 106.553 62.7227 106.504 62.168 106.504ZM65.7539 115.809H58.582V112.387H65.7539V115.809ZM59.4961 115.059H64.8516V113.125H59.4961V115.059ZM66.9141 111.355H57.4219V110.594H66.9141V111.355ZM71.0203 107.043C71.0203 107.691 70.8953 108.305 70.6453 108.883C70.3953 109.461 70.0496 109.963 69.6082 110.389C69.1668 110.814 68.657 111.141 68.0789 111.367L67.5984 110.641C68.1141 110.445 68.573 110.166 68.9754 109.803C69.3777 109.439 69.6902 109.018 69.9129 108.537C70.1355 108.057 70.2469 107.559 70.2469 107.043V106.047H71.0203V107.043ZM71.1844 107.043C71.1844 107.543 71.2957 108.02 71.5184 108.473C71.741 108.926 72.0516 109.324 72.45 109.668C72.8484 110.012 73.3055 110.273 73.8211 110.453L73.3523 111.18C72.7742 110.969 72.2625 110.66 71.8172 110.254C71.3719 109.848 71.0262 109.369 70.7801 108.818C70.534 108.268 70.4109 107.676 70.4109 107.043V106.047H71.1844V107.043ZM76.0945 115.949H75.1805V113.09H69.0867V112.328H76.0945V115.949ZM76.0945 111.812H75.1805V105.531H76.0945V111.812Z" fill="#9FA6AC"/>
<path d="M188.523 115V114.062H190.504C191.191 114.062 191.764 113.93 192.221 113.664C192.678 113.398 193.02 113.02 193.246 112.527C193.473 112.035 193.586 111.441 193.586 110.746C193.586 110.059 193.475 109.469 193.252 108.977C193.029 108.484 192.697 108.107 192.256 107.846C191.814 107.584 191.266 107.453 190.609 107.453H188.477V106.516H190.68C191.5 106.516 192.205 106.684 192.795 107.02C193.385 107.355 193.836 107.842 194.148 108.479C194.461 109.115 194.617 109.871 194.617 110.746C194.617 111.629 194.459 112.389 194.143 113.025C193.826 113.662 193.365 114.15 192.76 114.49C192.154 114.83 191.426 115 190.574 115H188.523ZM188.992 115H187.938V106.516H188.992V115ZM196.919 115H195.864V106.516H196.919V115ZM198.974 106.516L201.306 110.453H201.412L203.744 106.516H204.962L201.892 111.52V115H200.826V111.52L197.767 106.516H198.974Z" fill="#9FA6AC"/>
<path d="M195.184 172.43H193.18V171.645H195.184V172.43ZM191.785 170.742C191.785 171.438 191.688 172.115 191.492 172.775C191.297 173.436 191.018 174.031 190.654 174.562C190.291 175.094 189.859 175.512 189.359 175.816L188.809 175.113C189.27 174.848 189.67 174.482 190.01 174.018C190.35 173.553 190.611 173.035 190.795 172.465C190.979 171.895 191.07 171.32 191.07 170.742V170.191H191.785V170.742ZM191.938 170.742C191.938 171.297 192.029 171.846 192.213 172.389C192.396 172.932 192.66 173.422 193.004 173.859C193.348 174.297 193.75 174.641 194.211 174.891L193.684 175.582C193.184 175.309 192.748 174.92 192.377 174.416C192.006 173.912 191.723 173.342 191.527 172.705C191.332 172.068 191.234 171.414 191.234 170.742V170.191H191.938V170.742ZM193.895 170.227H189.09V169.465H193.895V170.227ZM191.949 170.039H191.07V167.918H191.949V170.039ZM197.797 177.949H196.918V167.531H197.797V177.949ZM195.688 177.41H194.82V167.789H195.688V177.41ZM207.598 173.848H206.673V167.531H207.598V173.848ZM207.083 171.469H204.903V170.707H207.083V171.469ZM207.598 177.809H200.79V174.41H207.598V177.809ZM201.704 177.059H206.696V175.148H201.704V177.059ZM205.055 169.383H198.973V168.633H205.055V169.383ZM202.009 169.922C202.477 169.922 202.895 170 203.262 170.156C203.63 170.312 203.917 170.531 204.124 170.812C204.331 171.094 204.434 171.414 204.434 171.773C204.434 172.141 204.331 172.465 204.124 172.746C203.917 173.027 203.63 173.246 203.262 173.402C202.895 173.559 202.477 173.637 202.009 173.637C201.54 173.637 201.124 173.559 200.761 173.402C200.397 173.246 200.112 173.027 199.905 172.746C199.698 172.465 199.595 172.141 199.595 171.773C199.595 171.414 199.698 171.094 199.905 170.812C200.112 170.531 200.397 170.312 200.761 170.156C201.124 170 201.54 169.922 202.009 169.922ZM202.009 170.637C201.712 170.637 201.448 170.684 201.218 170.777C200.987 170.871 200.805 171.006 200.673 171.182C200.54 171.357 200.473 171.555 200.473 171.773C200.473 172 200.538 172.199 200.667 172.371C200.796 172.543 200.977 172.678 201.212 172.775C201.446 172.873 201.712 172.926 202.009 172.934C202.313 172.926 202.581 172.873 202.811 172.775C203.042 172.678 203.221 172.543 203.35 172.371C203.479 172.199 203.544 172 203.544 171.773C203.544 171.555 203.479 171.357 203.35 171.182C203.221 171.006 203.04 170.871 202.805 170.777C202.571 170.684 202.305 170.637 202.009 170.637ZM202.466 169.172H201.563V167.438H202.466V169.172Z" fill="#9FA6AC"/>
<path d="M38.0117 177.973H37.0859V167.531H38.0117V177.973ZM30.9453 174.586C32.0547 174.586 32.9785 174.562 33.7168 174.516C34.4551 174.469 35.1992 174.379 35.9492 174.246L36.043 175.02C35.2773 175.152 34.5215 175.244 33.7754 175.295C33.0293 175.346 32.0859 175.375 30.9453 175.383H30.1016V174.586H30.9453ZM35.0586 169.301H31.0273V174.879H30.1016V168.527H35.0586V169.301ZM48.1297 177.973H47.2039V167.531H48.1297V177.973ZM47.4852 172.09H44.9187V171.328H47.4852V172.09ZM42.9266 170.625C42.9266 171.344 42.7937 172.055 42.5281 172.758C42.2625 173.461 41.9051 174.086 41.4559 174.633C41.0066 175.18 40.5086 175.598 39.9617 175.887L39.3992 175.172C39.8992 174.922 40.3621 174.557 40.7879 174.076C41.2137 173.596 41.5516 173.051 41.8016 172.441C42.0516 171.832 42.1766 171.227 42.1766 170.625V169.008H42.9266V170.625ZM43.1023 170.625C43.1023 171.188 43.2273 171.76 43.4773 172.342C43.7273 172.924 44.0633 173.445 44.4852 173.906C44.907 174.367 45.368 174.711 45.868 174.938L45.3172 175.676C44.7703 175.402 44.2723 175.002 43.823 174.475C43.3738 173.947 43.0184 173.346 42.7566 172.67C42.4949 171.994 42.3641 171.312 42.3641 170.625V169.008H43.1023V170.625ZM45.493 169.371H39.7977V168.609H45.493V169.371ZM58.0016 173.918H50.7945V173.168H58.0016V173.918ZM59.1031 176.59H49.5641V175.828H59.1031V176.59ZM57.8844 169.207H51.732V173.391H50.7945V168.434H57.8844V169.207ZM57.6617 171.492H51.4391V170.754H57.6617V171.492Z" fill="#9FA6AC"/>
<path d="M343.146 191.025H335.23V189.977H343.146V191.025ZM343.076 194.629H335.283V193.604H343.076V194.629ZM337.996 194.166H336.695V190.803H337.996V194.166ZM341.682 194.166H340.393V190.803H341.682V194.166ZM344.025 196.709H334.346V195.643H344.025V196.709ZM339.812 200.031H338.529V196.111H339.812V200.031ZM353.024 195.467H345.595V194.418H353.024V195.467ZM354.108 198.701H344.429V197.623H354.108V198.701ZM352.936 191.43H346.889V194.863H345.595V190.369H352.936V191.43ZM363.101 196.041H355.671V195.01H363.101V196.041ZM364.179 198.754H354.5V197.693H364.179V198.754ZM363.007 191.342H356.996V195.291H355.671V190.275H363.007V191.342ZM362.767 193.633H356.603V192.607H362.767V193.633ZM373.436 195.953H372.135V189.461H373.436V195.953ZM372.44 192.994H370.325V191.945H372.44V192.994ZM373.436 200.055H372.135V197.512H366.194V196.486H373.436V200.055ZM365.83 194.471C366.6 194.471 367.219 194.465 367.688 194.453C368.161 194.438 368.631 194.412 369.1 194.377C369.573 194.338 370.053 194.275 370.541 194.189L370.647 195.268C369.916 195.381 369.202 195.455 368.502 195.49C367.807 195.521 366.916 195.539 365.83 195.543H364.993V194.471H365.83ZM369.745 193.252H366.282V195.221H364.993V192.25H368.473V191.131H364.975V190.082H369.745V193.252Z" fill="#7F8992"/>
</g>
<defs>
<clipPath id="clip0_5230_48582">
<rect width="390" height="255.938" fill="white"/>
</clipPath>
</defs>
</svg>
