<svg xmlns="http://www.w3.org/2000/svg" width="25" height="25" viewBox="0 0 25 25" fill="none">
  <g clip-path="url(#clip0_4064_34615)">
    <path d="M2.14795 10.2478H0.147949V12.2478H2.14795V10.2478Z" fill="black"/>
    <path d="M2.14795 12.2478H0.147949V14.2478H2.14795V12.2478Z" fill="black"/>
    <path d="M4.14795 14.2478H2.14795V16.2478H4.14795V14.2478Z" fill="black"/>
    <path d="M6.14795 14.2478H4.14795V16.2478H6.14795V14.2478Z" fill="black"/>
    <path d="M4.14795 8.2478H2.14795V10.2478H4.14795V8.2478Z" fill="black"/>
    <path d="M6.14795 8.2478H4.14795V10.2478H6.14795V8.2478Z" fill="black"/>
    <path d="M8.14795 8.2478H6.14795V10.2478H8.14795V8.2478Z" fill="black"/>
    <path d="M8.14795 10.2478H6.14795V12.2478H8.14795V10.2478Z" fill="black"/>
    <path d="M8.14795 12.2478H6.14795V14.2478H8.14795V12.2478Z" fill="black"/>
    <path d="M8.14795 14.2478H6.14795V16.2478H8.14795V14.2478Z" fill="black"/>
    <path d="M10.1479 16.2478H8.14795V18.2478H10.1479V16.2478Z" fill="black"/>
    <path d="M12.1479 18.2478H10.1479V20.2478H12.1479V18.2478Z" fill="black"/>
    <path d="M14.1479 20.2478H12.1479V22.2478H14.1479V20.2478Z" fill="black"/>
    <path d="M16.1479 22.2478H14.1479V24.2478H16.1479V22.2478Z" fill="black"/>
    <path d="M8.14795 6.2478V8.2478H10.1479V6.2478H8.14795Z" fill="black"/>
    <path d="M10.1479 4.2478V6.2478H12.1479V4.2478H10.1479Z" fill="black"/>
    <path d="M12.1479 2.2478V4.2478H14.1479V2.2478H12.1479Z" fill="black"/>
    <path d="M14.1479 0.247803V2.2478H16.1479V0.247803L14.1479 0.247803Z" fill="black"/>
    <path d="M18.1479 20.2478H16.1479V22.2478H18.1479V20.2478Z" fill="black"/>
    <path d="M18.1479 18.2478H16.1479V20.2478H18.1479V18.2478Z" fill="black"/>
    <path d="M18.1479 16.2478H16.1479V18.2478H18.1479V16.2478Z" fill="black"/>
    <path d="M18.1479 14.2478H16.1479V16.2478H18.1479V14.2478Z" fill="black"/>
    <path d="M18.1479 12.2478H16.1479V14.2478H18.1479V12.2478Z" fill="black"/>
    <path d="M18.1479 10.2478H16.1479V12.2478H18.1479V10.2478Z" fill="black"/>
    <path d="M22.1479 10.7478H20.1479V12.7478H22.1479V10.7478Z" fill="black"/>
    <path d="M22.1479 6.7478H20.1479V8.7478H22.1479V6.7478Z" fill="black"/>
    <path d="M24.1479 4.7478H22.1479V6.7478H24.1479V4.7478Z" fill="black"/>
    <path d="M22.1479 16.7478V14.7478H20.1479V16.7478H22.1479Z" fill="black"/>
    <path d="M24.1479 18.7478V16.7478H22.1479V18.7478H24.1479Z" fill="black"/>
    <path d="M24.1479 10.7478H22.1479V12.7478H24.1479V10.7478Z" fill="black"/>
    <path d="M18.1479 8.2478H16.1479V10.2478H18.1479V8.2478Z" fill="black"/>
    <path d="M18.1479 6.2478H16.1479V8.2478H18.1479V6.2478Z" fill="black"/>
    <path d="M18.1479 4.2478H16.1479V6.2478H18.1479V4.2478Z" fill="black"/>
    <path d="M18.1479 2.2478H16.1479V4.2478H18.1479V2.2478Z" fill="black"/>
  </g>
  <defs>
    <clipPath id="clip0_4064_34615">
      <rect width="24" height="24" fill="white" transform="translate(0.147949 0.247803)"/>
    </clipPath>
  </defs>
</svg>