<svg xmlns="http://www.w3.org/2000/svg" width="17" height="17" viewBox="0 0 17 17" fill="none">
  <path d="M3.26741 5.18568C3.20376 5.12553 3.12889 5.07851 3.04707 5.0473C2.96525 5.01609 2.87809 5.0013 2.79055 5.00378C2.70302 5.00625 2.61683 5.02595 2.53691 5.06173C2.45698 5.09752 2.38489 5.1487 2.32474 5.21234C2.2646 5.27599 2.21758 5.35086 2.18637 5.43268C2.15516 5.5145 2.14037 5.60167 2.14284 5.6892C2.14532 5.77674 2.16501 5.86293 2.2008 5.94285C2.23659 6.02277 2.28776 6.09487 2.35141 6.15501L8.35141 11.8217C8.47519 11.9387 8.63907 12.0039 8.80941 12.0039C8.97975 12.0039 9.14363 11.9387 9.26741 11.8217L15.2681 6.15501C15.3331 6.09526 15.3856 6.02319 15.4226 5.94297C15.4595 5.86275 15.4802 5.77599 15.4833 5.68773C15.4865 5.59946 15.472 5.51146 15.4409 5.42882C15.4097 5.34618 15.3624 5.27056 15.3018 5.20635C15.2411 5.14213 15.1684 5.09061 15.0876 5.05476C15.0069 5.01892 14.9199 4.99947 14.8316 4.99755C14.7433 4.99562 14.6555 5.01126 14.5733 5.04356C14.4911 5.07586 14.4161 5.12416 14.3527 5.18568L8.80941 10.4203L3.26741 5.18568Z" fill="#BEC6CD"/>
</svg>