<svg xmlns="http://www.w3.org/2000/svg" width="11" height="12" viewBox="0 0 11 12" fill="none">
  <g clip-path="url(#clip0_4959_60321)">
    <path d="M7.83594 5.89453L7.83594 6.75049L8.6919 6.75049L8.6919 5.89453L7.83594 5.89453Z" fill="white"/>
    <path d="M7.83594 5.03857L7.83594 5.89453L8.6919 5.89453L8.6919 5.03857L7.83594 5.03857Z" fill="white"/>
    <path d="M6.97998 5.89453L6.97998 6.75049L7.83594 6.75049L7.83594 5.89453L6.97998 5.89453Z" fill="white"/>
    <path d="M6.97998 6.75049L6.97998 7.60645L7.83594 7.60645L7.83594 6.75049L6.97998 6.75049Z" fill="white"/>
    <path d="M6.12402 5.89453L6.12402 6.75049L6.97999 6.75049L6.97999 5.89453L6.12402 5.89453Z" fill="white"/>
    <path d="M6.12402 6.75049L6.12402 7.60645L6.97999 7.60645L6.97999 6.75049L6.12402 6.75049Z" fill="white"/>
    <path d="M6.12402 7.60646L6.12402 8.46242L6.97999 8.46242L6.97999 7.60646L6.12402 7.60646Z" fill="white"/>
    <path d="M5.26807 6.75049L5.26807 7.60645L6.12403 7.60645L6.12403 6.75049L5.26807 6.75049Z" fill="white"/>
    <path d="M5.26807 7.60646L5.26807 8.46242L6.12403 8.46242L6.12403 7.60646L5.26807 7.60646Z" fill="white"/>
    <path d="M5.26807 8.46241L5.26807 9.31838L6.12403 9.31838L6.12403 8.46241L5.26807 8.46241Z" fill="white"/>
    <path d="M4.41162 7.60646L4.41162 8.46242L5.26758 8.46242L5.26758 7.60646L4.41162 7.60646Z" fill="white"/>
    <path d="M4.41162 8.46241L4.41162 9.31838L5.26758 9.31838L5.26758 8.46241L4.41162 8.46241Z" fill="white"/>
    <path d="M4.41162 9.31838L4.41162 10.1743L5.26758 10.1743L5.26758 9.31838L4.41162 9.31838Z" fill="white"/>
    <path d="M3.55615 8.46241L3.55615 9.31838L4.41211 9.31838L4.41211 8.46241L3.55615 8.46241Z" fill="white"/>
    <path d="M3.55615 9.31838L3.55615 10.1743L4.41211 10.1743L4.41211 9.31838L3.55615 9.31838Z" fill="white"/>
    <path d="M3.55615 10.1743L3.55615 11.0303L4.41211 11.0303L4.41211 10.1743L3.55615 10.1743Z" fill="white"/>
    <path d="M2.7002 9.31838L2.7002 10.1743L3.55616 10.1743L3.55616 9.31838L2.7002 9.31838Z" fill="white"/>
    <path d="M2.7002 10.1743L2.7002 11.0303L3.55616 11.0303L3.55616 10.1743L2.7002 10.1743Z" fill="white"/>
    <path d="M6.97998 5.03857L6.97998 5.89453L7.83594 5.89453L7.83594 5.03857L6.97998 5.03857Z" fill="white"/>
    <path d="M6.97998 4.18261L6.97998 5.03857L7.83594 5.03857L7.83594 4.18261L6.97998 4.18261Z" fill="white"/>
    <path d="M6.12402 5.03857L6.12402 5.89453L6.97999 5.89453L6.97999 5.03857L6.12402 5.03857Z" fill="white"/>
    <path d="M6.12402 4.18261L6.12402 5.03857L6.97999 5.03857L6.97999 4.18261L6.12402 4.18261Z" fill="white"/>
    <path d="M6.12402 3.32664L6.12402 4.1826L6.97999 4.1826L6.97999 3.32664L6.12402 3.32664Z" fill="white"/>
    <path d="M5.26807 4.18261L5.26807 5.03857L6.12403 5.03857L6.12403 4.18261L5.26807 4.18261Z" fill="white"/>
    <path d="M5.26807 3.32664L5.26807 4.1826L6.12403 4.1826L6.12403 3.32664L5.26807 3.32664Z" fill="white"/>
    <path d="M5.26807 2.47068L5.26807 3.32664L6.12403 3.32664L6.12403 2.47068L5.26807 2.47068Z" fill="white"/>
    <path d="M4.41162 3.32664L4.41162 4.1826L5.26758 4.1826L5.26758 3.32664L4.41162 3.32664Z" fill="white"/>
    <path d="M4.41162 2.47068L4.41162 3.32664L5.26758 3.32664L5.26758 2.47068L4.41162 2.47068Z" fill="white"/>
    <path d="M4.41016 1.61472L4.41016 2.47068L5.26612 2.47068L5.26612 1.61472L4.41016 1.61472Z" fill="white"/>
    <path d="M3.55371 2.47068L3.55371 3.32664L4.40967 3.32664L4.40967 2.47068L3.55371 2.47068Z" fill="white"/>
    <path d="M3.55371 1.61472L3.55371 2.47068L4.40967 2.47068L4.40967 1.61472L3.55371 1.61472Z" fill="white"/>
    <path d="M3.55615 0.758754L3.55615 1.61472L4.41211 1.61472L4.41211 0.758754L3.55615 0.758754Z" fill="white"/>
    <path d="M2.7002 1.61472L2.7002 2.47068L3.55616 2.47068L3.55616 1.61472L2.7002 1.61472Z" fill="white"/>
    <path d="M2.7002 0.758754L2.7002 1.61472L3.55616 1.61472L3.55616 0.758754L2.7002 0.758754Z" fill="white"/>
  </g>
  <defs>
    <clipPath id="clip0_4959_60321">
      <rect width="10.2715" height="10.2715" fill="white" transform="translate(0.560547 0.758757)"/>
    </clipPath>
  </defs>
</svg>