<svg width="12" height="21" viewBox="0 0 12 21" fill="none" xmlns="http://www.w3.org/2000/svg">
<path d="M1.78455 10.4165L1.78455 8.74985L0.117879 8.74985L0.117879 10.4165L1.78455 10.4165Z" fill="#252528"/>
<path d="M1.78455 12.0832L1.78455 10.4165L0.117879 10.4165L0.117879 12.0832L1.78455 12.0832Z" fill="#252528"/>
<path d="M3.45117 10.4165L3.45117 8.74985L1.78451 8.74985L1.78451 10.4165L3.45117 10.4165Z" fill="#252528"/>
<path d="M3.45117 8.74983L3.45117 7.08316L1.78451 7.08316L1.78451 8.74983L3.45117 8.74983Z" fill="#252528"/>
<path d="M5.11792 10.4165L5.11792 8.74985L3.45125 8.74985L3.45125 10.4165L5.11792 10.4165Z" fill="#252528"/>
<path d="M5.11792 8.74983L5.11792 7.08316L3.45125 7.08316L3.45125 8.74983L5.11792 8.74983Z" fill="#252528"/>
<path d="M5.11792 7.08317L5.11792 5.4165L3.45125 5.4165L3.45125 7.08317L5.11792 7.08317Z" fill="#252528"/>
<path d="M6.78455 8.74983L6.78455 7.08316L5.11788 7.08316L5.11788 8.74983L6.78455 8.74983Z" fill="#252528"/>
<path d="M6.78455 7.08317L6.78455 5.4165L5.11788 5.4165L5.11788 7.08317L6.78455 7.08317Z" fill="#252528"/>
<path d="M6.78455 5.41651L6.78455 3.74985L5.11788 3.74985L5.11788 5.41651L6.78455 5.41651Z" fill="#252528"/>
<path d="M8.45117 7.08317L8.45117 5.4165L6.78451 5.4165L6.78451 7.08317L8.45117 7.08317Z" fill="#252528"/>
<path d="M8.45117 5.41651L8.45117 3.74985L6.78451 3.74985L6.78451 5.41651L8.45117 5.41651Z" fill="#252528"/>
<path d="M8.45117 3.74983L8.45117 2.08316L6.78451 2.08316L6.78451 3.74983L8.45117 3.74983Z" fill="#252528"/>
<path d="M10.1179 5.41651L10.1179 3.74985L8.45125 3.74985L8.45125 5.41651L10.1179 5.41651Z" fill="#252528"/>
<path d="M10.1179 3.74983L10.1179 2.08316L8.45125 2.08316L8.45125 3.74983L10.1179 3.74983Z" fill="#252528"/>
<path d="M10.1179 2.08317L10.1179 0.416504L8.45125 0.416504L8.45125 2.08317L10.1179 2.08317Z" fill="#252528"/>
<path d="M11.7845 3.74983L11.7845 2.08316L10.1179 2.08316L10.1179 3.74983L11.7845 3.74983Z" fill="#252528"/>
<path d="M11.7845 2.08317L11.7845 0.416504L10.1179 0.416504L10.1179 2.08317L11.7845 2.08317Z" fill="#252528"/>
<path d="M3.45117 12.0832L3.45117 10.4165L1.78451 10.4165L1.78451 12.0832L3.45117 12.0832Z" fill="#252528"/>
<path d="M3.45117 13.7498L3.45117 12.0832L1.78451 12.0832L1.78451 13.7498L3.45117 13.7498Z" fill="#252528"/>
<path d="M5.11792 12.0832L5.11792 10.4165L3.45125 10.4165L3.45125 12.0832L5.11792 12.0832Z" fill="#252528"/>
<path d="M5.11792 13.7498L5.11792 12.0832L3.45125 12.0832L3.45125 13.7498L5.11792 13.7498Z" fill="#252528"/>
<path d="M5.11792 15.4165L5.11792 13.7498L3.45125 13.7498L3.45125 15.4165L5.11792 15.4165Z" fill="#252528"/>
<path d="M6.78455 13.7498L6.78455 12.0832L5.11788 12.0832L5.11788 13.7498L6.78455 13.7498Z" fill="#252528"/>
<path d="M6.78455 15.4165L6.78455 13.7498L5.11788 13.7498L5.11788 15.4165L6.78455 15.4165Z" fill="#252528"/>
<path d="M6.78455 17.0832L6.78455 15.4165L5.11788 15.4165L5.11788 17.0832L6.78455 17.0832Z" fill="#252528"/>
<path d="M8.45117 15.4165L8.45117 13.7498L6.78451 13.7498L6.78451 15.4165L8.45117 15.4165Z" fill="#252528"/>
<path d="M8.45117 17.0832L8.45117 15.4165L6.78451 15.4165L6.78451 17.0832L8.45117 17.0832Z" fill="#252528"/>
<path d="M8.45532 18.7498L8.45532 17.0832L6.78866 17.0832L6.78866 18.7498L8.45532 18.7498Z" fill="#252528"/>
<path d="M10.1221 17.0832L10.1221 15.4165L8.4554 15.4165L8.4554 17.0832L10.1221 17.0832Z" fill="#252528"/>
<path d="M10.1221 18.7498L10.1221 17.0832L8.4554 17.0832L8.4554 18.7498L10.1221 18.7498Z" fill="#252528"/>
<path d="M10.1179 20.4165L10.1179 18.7498L8.45125 18.7498L8.45125 20.4165L10.1179 20.4165Z" fill="#252528"/>
<path d="M11.7845 18.7498L11.7845 17.0832L10.1179 17.0832L10.1179 18.7498L11.7845 18.7498Z" fill="#252528"/>
<path d="M11.7845 20.4165L11.7845 18.7498L10.1179 18.7498L10.1179 20.4165L11.7845 20.4165Z" fill="#252528"/>
</svg>
