<svg width="391" height="85" viewBox="0 0 391 85" fill="none" xmlns="http://www.w3.org/2000/svg">
<rect x="0.952148" y="0.722656" width="390" height="84" fill="#0100A3"/>
<ellipse cx="131.111" cy="42.7227" rx="30.1587" ry="30" fill="white"/>
<ellipse cx="174.337" cy="42.7227" rx="30.1587" ry="30" fill="white"/>
<ellipse cx="217.564" cy="42.7227" rx="30.1587" ry="30" fill="white"/>
<ellipse cx="260.791" cy="42.7227" rx="30.1587" ry="30" fill="white"/>
<path d="M131.108 16.2051C145.833 16.2052 157.756 28.0771 157.756 42.7051C157.756 57.3331 145.833 69.2049 131.108 69.2051C116.384 69.2051 104.46 57.3332 104.46 42.7051C104.46 28.077 116.384 16.2051 131.108 16.2051Z" stroke="#0100A3" stroke-width="3"/>
<path d="M174.335 16.2051C189.06 16.2052 200.982 28.0771 200.982 42.7051C200.982 57.3331 189.06 69.2049 174.335 69.2051C159.61 69.2051 147.687 57.3332 147.687 42.7051C147.687 28.077 159.61 16.2051 174.335 16.2051Z" stroke="#0100A3" stroke-width="3"/>
<path d="M217.569 16.2051C232.294 16.2052 244.217 28.0771 244.217 42.7051C244.217 57.3331 232.294 69.2049 217.569 69.2051C202.844 69.2051 190.921 57.3332 190.921 42.7051C190.921 28.077 202.844 16.2051 217.569 16.2051Z" stroke="#0100A3" stroke-width="3"/>
<path d="M260.796 16.2051C275.521 16.2052 287.443 28.0771 287.443 42.7051C287.443 57.3331 275.521 69.2049 260.796 69.2051C246.071 69.2051 234.147 57.3332 234.147 42.7051C234.147 28.077 246.071 16.2051 260.796 16.2051Z" stroke="#0100A3" stroke-width="3"/>
<ellipse cx="131.108" cy="42.7227" rx="25.1323" ry="25" fill="white"/>
<ellipse cx="174.342" cy="42.7227" rx="25.1323" ry="25" fill="white"/>
<ellipse cx="217.569" cy="42.7227" rx="25.1323" ry="25" fill="white"/>
<ellipse cx="260.795" cy="42.7227" rx="25.1323" ry="25" fill="white"/>
<path d="M53.0581 25.0887L56.4961 25.8087L56.1361 26.1867H64.7581V26.1687L65.5141 25.3227L68.3221 26.1687L67.5661 26.8707V39.5427C67.4761 40.6227 66.7741 41.1807 66.1081 41.4867C65.7121 41.6667 65.2801 41.7747 64.7941 41.8107H63.2101C62.9401 41.2527 62.4721 40.6407 62.0401 40.1547C61.7881 39.8847 61.5181 39.6147 61.2301 39.3447H64.7581V27.1407H58.8361L61.9141 27.5727L61.4461 28.1667V28.9587H62.7061L63.3901 28.2387L64.6321 29.8767H61.4461V31.4067H62.7601L63.4441 30.6867L64.6861 32.3247H56.2441L55.9921 31.4067H58.7101V29.8767H56.2441L55.9921 28.9587H58.7101V27.1407H55.9201V34.3407C55.6861 37.1847 54.6241 39.0207 53.5621 40.2267C52.9501 40.9287 52.2661 41.4867 51.5281 41.9007C52.1221 40.9647 52.5001 39.3447 52.7341 37.9047C52.8601 37.0587 52.9681 36.1947 53.0581 35.2947V25.0887ZM56.3521 32.7387L59.3581 33.3507L58.9621 33.7467H61.3921L61.9501 33.0267L64.5601 33.5307L63.9121 34.0887V38.2467C63.8941 38.5167 63.2461 38.5887 62.6161 38.6067C62.2381 38.6247 61.8241 38.6247 61.3561 38.6067V37.9407H58.9261V38.7147C58.7281 38.9847 58.0801 39.0927 57.4861 39.1647C57.1441 39.2187 56.7661 39.2367 56.3521 39.2367V32.7387ZM61.3561 34.6647H58.9261V37.0227H61.3561V34.6647ZM51.8701 56.7347L51.6001 55.7987H54.2461V50.6327C53.5801 51.0647 52.9681 51.3887 52.5181 51.5867C52.2481 51.7127 51.9961 51.8207 51.7621 51.8927C52.7701 50.5967 53.5981 48.9407 54.1741 47.5547C54.5161 46.7447 54.8221 45.9527 55.0921 45.1427V45.0167L58.1341 45.7187L57.6121 46.0967C57.5221 46.5827 57.3781 47.0327 57.1801 47.4467H65.0821L65.8021 46.6907L67.1161 48.3827H62.3641V51.2807H64.7221L65.4601 50.5067L66.7921 52.2167H62.3641V55.7987H66.1261L66.9721 54.9527L68.3761 56.7347H62.3641V61.2167C62.2381 61.6487 61.5361 61.8107 60.8341 61.8287C60.4201 61.8467 59.9701 61.8467 59.4661 61.7927V56.7347H51.8701ZM59.4661 48.3827H56.6401C56.0101 49.2467 55.2541 49.9307 54.4801 50.4887L57.4141 50.8307L57.0181 51.2447V51.2807H59.4661V48.3827ZM57.0181 52.2167V55.7987H59.4661V52.2167H57.0181Z" fill="white"/>
<path d="M85.5521 34.9147C85.5521 37.7767 83.1041 39.6127 79.7741 39.6127C75.5981 39.6127 73.8521 37.2187 73.8521 34.5007C73.8521 30.2887 76.6961 26.9227 79.1801 25.1227H82.7801C80.7641 26.7607 78.8381 28.9747 77.9381 30.8287C78.6041 30.3787 79.5581 30.2167 80.3321 30.2167C83.3021 30.2167 85.5521 31.9987 85.5521 34.9147ZM82.0601 34.9327C82.0601 32.4847 81.0161 31.5487 79.7021 31.5487C78.3881 31.5487 77.3441 32.4847 77.3441 34.9327C77.3441 37.3807 78.3881 38.3167 79.7021 38.3167C81.0161 38.3167 82.0601 37.3807 82.0601 34.9327ZM85.7321 52.2327C85.7321 57.0747 83.2301 59.6127 79.7921 59.6127C76.3541 59.6127 73.8521 57.0747 73.8521 52.2327C73.8521 47.3907 76.3541 44.8527 79.7921 44.8527C83.2301 44.8527 85.7321 47.3907 85.7321 52.2327ZM82.2401 52.2327C82.2401 48.2007 81.2681 46.1127 79.7921 46.1127C78.3161 46.1127 77.3441 48.2007 77.3441 52.2327C77.3441 56.2827 78.3161 58.3527 79.7921 58.3527C81.2681 58.3527 82.2401 56.2647 82.2401 52.2327Z" fill="white"/>
<path d="M316.812 39.8107H313.698V26.4547C313.698 25.5547 314.13 24.8167 315.282 24.8167H316.812V30.6847H318.162V26.4547C318.162 25.5547 318.594 24.8167 319.746 24.8167H321.312V39.8107H318.162V31.9447H316.812V39.8107ZM312.528 27.8767C312.528 32.8087 310.026 38.0827 304.428 38.9107V37.6327C308.208 36.7327 309.162 32.3407 309.162 28.0567V26.2747H304.698V24.9967H312.528V27.8767ZM321.546 59.1627H304.59V57.8667H307.182V51.3507H310.674V57.8667H312.402V51.3507H315.894V57.8667H321.546V59.1627ZM305.184 44.9967H320.862V51.0627C320.862 52.4127 320.718 54.0687 320.502 55.3107H317.082C317.28 54.0687 317.37 52.4127 317.37 51.0627V46.2747H305.184V44.9967Z" fill="white"/>
<path d="M335.386 32.0907H338.32V29.4267H335.458L334.522 29.9307C334.306 30.5967 334.072 31.2087 333.82 31.7667C334.702 32.1447 335.242 32.6667 335.584 33.1527C335.782 33.4227 335.926 33.7107 336.034 33.9807C336.232 34.8627 335.944 35.3847 335.602 35.6727C335.404 35.8347 335.152 35.9607 334.882 36.0327C334.144 36.0327 333.928 35.7447 333.874 35.4027C333.856 35.2227 333.892 35.0067 333.982 34.7727L333.46 32.5047C333.442 32.5227 333.442 32.5227 333.442 32.5407V41.1987C333.424 41.4687 332.758 41.5767 332.092 41.6307C331.696 41.6667 331.264 41.6667 330.778 41.6487V36.1047C330.148 36.6627 329.626 36.9867 329.212 37.2027C328.978 37.3287 328.78 37.4367 328.582 37.4907C330.076 34.8447 331.138 31.7307 331.624 30.1827H329.32L329.05 29.1567H331.966L332.668 28.4187L335.278 29.3367C335.206 29.0487 335.116 28.7787 335.062 28.4367H340.084L341.182 24.9987L344.26 25.9167L343.414 26.2047C343.036 27.5367 341.848 28.1487 341.002 28.4367H342.802L343.54 27.5727L344.836 29.4267H341.146V32.0907H342.55L343.324 31.2267L344.602 33.0627H341.146V36.0507H343.36L344.116 35.1867L345.412 37.0227H341.146V41.3247C341.146 41.5947 340.426 41.7207 339.724 41.7747C339.31 41.8107 338.842 41.8287 338.32 41.8107V37.0227H334.882L334.612 36.0507H338.32V33.0627H335.62C335.53 32.7207 335.458 32.4327 335.386 32.0907ZM331.732 27.1227L330.634 25.0167C332.794 25.0167 333.658 25.6107 334.036 26.1327C334.252 26.4567 334.306 26.8167 334.216 27.2307C334 28.0767 333.496 28.3287 333.046 28.3827C332.776 28.4187 332.506 28.3827 332.2 28.2747C331.858 28.1487 331.768 27.8967 331.714 27.6267C331.696 27.4827 331.696 27.3207 331.732 27.1227ZM336.664 27.1227L335.53 25.0527C337.744 25.1427 338.644 25.7547 339.022 26.2767C339.238 26.5827 339.31 26.9427 339.22 27.3207C338.986 28.1127 338.5 28.3287 338.014 28.3827C337.744 28.4007 337.438 28.3647 337.132 28.2567C336.772 28.1307 336.682 27.8787 336.628 27.6087C336.61 27.4647 336.61 27.3027 336.664 27.1227ZM339.472 46.0247H341.722L342.388 45.2687L345.268 46.2227L344.566 46.9247V59.5067C344.422 60.6227 343.846 61.1447 343.234 61.4507C342.892 61.6127 342.496 61.7207 342.064 61.7387H340.534C340.462 61.2167 340.066 60.5507 339.688 60.0287C339.472 59.7227 339.238 59.4167 338.968 59.1287H341.686V55.2947H339.256C338.734 57.9767 337.258 59.6327 335.926 60.5867C335.152 61.1627 334.306 61.5767 333.406 61.8467C334.9 60.3527 335.728 58.2647 336.16 56.5547C336.412 55.5467 336.574 54.5387 336.646 53.5127V45.0167L339.886 45.5387L339.472 46.0247ZM335.602 57.6347L335.494 57.7427C335.152 57.8687 334.846 57.9947 334.504 58.0847C333.946 58.2107 333.406 58.1927 332.848 58.2107V57.3107H331.696V58.9847C331.57 59.1467 330.904 59.2007 330.256 59.2547C329.878 59.2727 329.446 59.2907 328.996 59.2907V45.6647L332.02 46.2587L331.696 46.6367V46.6727H332.848L333.46 45.9887L336.16 46.8347L335.602 47.4287V57.6347ZM339.472 53.5127L339.418 54.2507H341.686V51.0827H339.472V53.5127ZM341.686 47.0507H339.472V50.0387H341.686V47.0507ZM331.696 52.4327V56.2667H332.848V52.4327H331.696ZM332.848 47.6987H331.696V51.4067H332.848V47.6987Z" fill="white"/>
<path d="M23.9521 43.7227L10.9521 43.7227" stroke="white" stroke-width="2"/>
<path d="M29.9521 49.7227L29.9522 62.7227" stroke="white" stroke-width="2"/>
<path d="M29.9521 24.7227L29.9522 37.7227" stroke="white" stroke-width="2"/>
<path d="M15.7568 29.5293L24.9492 38.7217" stroke="white" stroke-width="2"/>
<path d="M15.7568 57.7227L24.9492 48.5303" stroke="white" stroke-width="2"/>
<circle cx="29.9521" cy="43.7227" r="2" transform="rotate(180 29.9521 43.7227)" fill="white"/>
<path d="M367.952 43.7227L380.952 43.7227" stroke="white" stroke-width="2"/>
<path d="M361.952 37.7227L361.952 24.7227" stroke="white" stroke-width="2"/>
<path d="M361.952 62.7227L361.952 49.7227" stroke="white" stroke-width="2"/>
<path d="M376.147 57.916L366.955 48.7236" stroke="white" stroke-width="2"/>
<path d="M376.147 29.7227L366.955 38.915" stroke="white" stroke-width="2"/>
<circle cx="361.952" cy="43.7227" r="2" fill="white"/>
<path d="M144.053 51.3306C144.069 54.9466 139.439 57.27 129.711 57.3108C119.983 57.3516 115.333 55.0671 115.318 51.4511C115.302 47.8352 119.932 45.5117 129.66 45.4709C139.388 45.4301 144.038 47.7146 144.053 51.3306ZM127 29.7059L127.011 32.2979C127.03 36.5219 129.698 39.5187 135.113 41.096L135.123 43.432C130 42.6215 125.766 40.4312 123.898 37.623C122.182 40.4462 117.648 42.7373 112.724 43.5259L112.713 41.19C117.796 40.0166 120.758 36.5482 120.739 32.3242L120.728 29.7323L127 29.7059ZM143.707 45.252L137.499 45.278L137.445 32.7342C137.438 31.1342 138.201 29.819 140.249 29.8104L143.641 29.7961L143.665 35.4281L147.633 35.4115L147.643 37.6514L143.675 37.6681L143.707 45.252ZM137.845 51.3566C137.834 48.7007 134.054 47.6925 129.67 47.7109C125.286 47.7293 121.514 48.7691 121.526 51.4251C121.537 54.0811 125.317 55.0892 129.701 55.0708C134.085 55.0525 137.857 54.0126 137.845 51.3566Z" fill="#010082"/>
<path d="M178.162 43.116L161.778 43.1847C159.73 43.1933 158.956 41.8846 158.95 40.2846L158.906 30.0767L178.105 29.9961L178.116 32.4281L182.404 32.4101C182.494 30.9697 183.289 29.8144 185.209 29.8063L188.601 29.7921L188.667 45.248L182.459 45.274L182.438 40.4101L178.15 40.428L178.162 43.116ZM189.013 51.3266C189.029 54.9425 184.399 57.266 174.671 57.3068C164.943 57.3476 160.293 55.0631 160.278 51.4471C160.262 47.8311 164.892 45.5077 174.62 45.4669C184.348 45.4261 188.998 47.7106 189.013 51.3266ZM182.805 51.3526C182.794 48.6966 179.014 47.6885 174.63 47.7069C170.246 47.7253 166.474 48.7651 166.486 51.4211C166.497 54.077 170.277 55.0852 174.661 55.0668C179.045 55.0484 182.817 54.0086 182.805 51.3526ZM172.008 40.9018L171.971 32.2619L165.059 32.2909L165.096 40.9308L172.008 40.9018ZM178.126 34.6681L178.141 38.1881L182.429 38.1701L182.414 34.6501L178.126 34.6681Z" fill="#010082"/>
<path d="M232.232 42.6856L232.242 44.9256L219.858 44.9775L219.87 47.8575L231.038 47.8106L231.075 56.4506L224.867 56.4766L224.84 50.1087L202.696 50.2015L202.686 47.9296L213.534 47.8841L213.522 45.0041L201.778 45.0533L201.768 42.8134L232.232 42.6856ZM230.977 33.4748L220.129 33.5203L220.13 33.8403C220.139 35.8883 224.536 38.9738 231.321 39.2014L231.331 41.4734C225.506 41.3378 219.324 39.8917 216.976 37.0215C214.652 39.9113 208.482 41.4092 202.659 41.5936L202.649 39.3216C209.432 39.0372 213.803 35.9148 213.794 33.8668L213.793 33.5468L202.945 33.5923L202.935 31.3524L213.783 31.3069L213.773 28.9069L220.109 28.8803L220.119 31.2803L230.967 31.2348L230.977 33.4748Z" fill="#010082"/>
<path d="M261.343 55.5482C257.305 54.1571 254.765 51.3837 253.343 48.1256C251.949 51.3955 249.433 54.1901 245.408 55.615L245.397 53.279C248.589 51.4096 250.3 47.2424 250.28 42.7304L250.236 32.4585L245.916 32.4767L245.906 30.2367L260.626 30.1749L260.636 32.4149L256.316 32.433L256.36 42.7049C256.38 47.2169 258.125 51.3696 261.333 53.2122L261.343 55.5482ZM268.195 56.4794L262.66 56.5026L262.596 41.7188L258.436 41.7362L258.426 39.4962L262.586 39.4788L262.557 32.7589C262.55 31.1589 263.313 29.8437 265.361 29.8351L268.081 29.8237L268.195 56.4794ZM275.715 56.4479L270.115 56.4714L270.013 32.7276C270.006 31.1276 270.769 29.8124 272.817 29.8038L275.601 29.7921L275.715 56.4479Z" fill="#010082"/>
<mask id="path-34-inside-1_2806_44819" fill="white">
<path d="M0.952148 4.72266H390.952V80.7227H0.952148V4.72266Z"/>
</mask>
<path d="M0.952148 4.72266V6.72266H390.952V4.72266V2.72266H0.952148V4.72266ZM390.952 80.7227V78.7227H0.952148V80.7227V82.7227H390.952V80.7227Z" fill="white" mask="url(#path-34-inside-1_2806_44819)"/>
</svg>
