<svg xmlns="http://www.w3.org/2000/svg" width="15" height="21" viewBox="0 0 15 21" fill="none">
  <path d="M0.972656 2.0376H2.72266V0.370931L0.972656 0.370931L0.972656 2.0376Z" fill="#9FA6AC"/>
  <path d="M2.72266 2.0376H4.47266V0.370931L2.72266 0.370931V2.0376Z" fill="#9FA6AC"/>
  <path d="M4.47266 2.0376H6.22266V0.370931L4.47266 0.370931V2.0376Z" fill="#9FA6AC"/>
  <path d="M6.22266 2.0376H7.97266V0.370931L6.22266 0.370931V2.0376Z" fill="#9FA6AC"/>
  <path d="M7.97266 2.0376H9.72266V0.370931L7.97266 0.370931V2.0376Z" fill="#9FA6AC"/>
  <path d="M9.72266 2.0376H11.4727V0.370931L9.72266 0.370931V2.0376Z" fill="#9FA6AC"/>
  <path d="M11.4727 2.0376H13.2227V0.370931L11.4727 0.370931V2.0376Z" fill="#9FA6AC"/>
  <path d="M13.2227 2.0376H14.9727V0.370931L13.2227 0.370931V2.0376Z" fill="#9FA6AC"/>
  <path d="M0.972656 3.70459H2.72266V2.03792H0.972656L0.972656 3.70459Z" fill="#9FA6AC"/>
  <path d="M13.2227 3.70459H14.9727V2.03792H13.2227V3.70459Z" fill="#9FA6AC"/>
  <path d="M0.972656 5.37109H2.72266V3.70443H0.972656L0.972656 5.37109Z" fill="#9FA6AC"/>
  <path d="M13.2227 5.37109H14.9727V3.70443H13.2227V5.37109Z" fill="#9FA6AC"/>
  <path d="M0.972656 7.0376H2.72266V5.37093H0.972656L0.972656 7.0376Z" fill="#9FA6AC"/>
  <path d="M13.2227 7.0376H14.9727V5.37093H13.2227V7.0376Z" fill="#9FA6AC"/>
  <path d="M0.972656 8.70459H2.72266V7.03792H0.972656L0.972656 8.70459Z" fill="#9FA6AC"/>
  <path d="M13.2227 8.70459H14.9727V7.03792H13.2227V8.70459Z" fill="#9FA6AC"/>
  <path d="M0.972656 10.3711H2.72266V8.70443H0.972656L0.972656 10.3711Z" fill="#9FA6AC"/>
  <path d="M13.2227 10.3711H14.9727V8.70443H13.2227V10.3711Z" fill="#9FA6AC"/>
  <path d="M0.972656 12.0376H2.72266V10.3709H0.972656L0.972656 12.0376Z" fill="#9FA6AC"/>
  <path d="M13.2227 12.0376H14.9727V10.3709H13.2227V12.0376Z" fill="#9FA6AC"/>
  <path d="M0.972656 13.7046H2.72266V12.0379H0.972656L0.972656 13.7046Z" fill="#9FA6AC"/>
  <path d="M13.2227 13.7046H14.9727V12.0379H13.2227V13.7046Z" fill="#9FA6AC"/>
  <path d="M13.2227 13.7046H14.9727V12.0379H13.2227V13.7046Z" fill="#9FA6AC"/>
  <path d="M13.2227 15.3711H14.9727V13.7044H13.2227V15.3711Z" fill="#9FA6AC"/>
  <path d="M13.2227 17.0376H14.9727V15.3709H13.2227V17.0376Z" fill="#9FA6AC"/>
  <path d="M13.2227 18.7046H14.9727V17.0379H13.2227V18.7046Z" fill="#9FA6AC"/>
  <path d="M0.972656 13.7046H2.72266V12.0379H0.972656L0.972656 13.7046Z" fill="#9FA6AC"/>
  <path d="M0.972656 15.3711H2.72266V13.7044H0.972656L0.972656 15.3711Z" fill="#9FA6AC"/>
  <path d="M0.972656 17.0376H2.72266V15.3709H0.972656L0.972656 17.0376Z" fill="#9FA6AC"/>
  <path d="M0.972656 18.7046H2.72266V17.0379H0.972656L0.972656 18.7046Z" fill="#9FA6AC"/>
  <path d="M6.22266 15.3711H7.97266V13.7044H6.22266V15.3711Z" fill="#9FA6AC"/>
  <path d="M7.97266 15.3711H9.72266V13.7044H7.97266V15.3711Z" fill="#9FA6AC"/>
  <path d="M11.4727 18.7046H13.2227V17.0379H11.4727V18.7046Z" fill="#9FA6AC"/>
  <path d="M13.2227 20.3711H14.9727V18.7044H13.2227V20.3711Z" fill="#9FA6AC"/>
  <path d="M4.47266 17.0376H6.22266V15.3709H4.47266V17.0376Z" fill="#9FA6AC"/>
  <path d="M9.72266 17.0376H11.4727V15.3709H9.72266V17.0376Z" fill="#9FA6AC"/>
  <path d="M2.72266 18.7046H4.47266V17.0379H2.72266V18.7046Z" fill="#9FA6AC"/>
  <path d="M0.972656 20.3711H2.72266V18.7044H0.972656L0.972656 20.3711Z" fill="#9FA6AC"/>
</svg>