<svg width="15" height="21" viewBox="0 0 15 21" fill="none" xmlns="http://www.w3.org/2000/svg">
<path d="M0.638672 1.93225L2.38867 1.93225V0.265584L0.638672 0.265584L0.638672 1.93225Z" fill="#7F8992"/>
<path d="M2.38867 1.93225L4.13867 1.93225V0.265584L2.38867 0.265584V1.93225Z" fill="#7F8992"/>
<path d="M4.13867 1.93225L5.88867 1.93225V0.265584L4.13867 0.265584V1.93225Z" fill="#7F8992"/>
<path d="M5.88867 1.93225L7.63867 1.93225V0.265584L5.88867 0.265584V1.93225Z" fill="#7F8992"/>
<path d="M7.63867 1.93225L9.38867 1.93225V0.265584L7.63867 0.265584V1.93225Z" fill="#7F8992"/>
<path d="M9.38867 1.93225L11.1387 1.93225V0.265584L9.38867 0.265584V1.93225Z" fill="#7F8992"/>
<path d="M11.1387 1.93225L12.8887 1.93225V0.265584L11.1387 0.265584V1.93225Z" fill="#7F8992"/>
<path d="M12.8887 1.93225L14.6387 1.93225V0.265584L12.8887 0.265584V1.93225Z" fill="#7F8992"/>
<path d="M0.638672 3.599H2.38867V1.93233L0.638672 1.93233L0.638672 3.599Z" fill="#7F8992"/>
<path d="M2.38867 3.599H4.13867V1.93233L2.38867 1.93233V3.599Z" fill="#7F8992"/>
<path d="M4.13867 3.599H5.88867V1.93233L4.13867 1.93233V3.599Z" fill="#7F8992"/>
<path d="M5.88867 3.599H7.63867V1.93233L5.88867 1.93233V3.599Z" fill="#7F8992"/>
<path d="M7.63867 3.599H9.38867V1.93233L7.63867 1.93233V3.599Z" fill="#7F8992"/>
<path d="M9.38867 3.599H11.1387V1.93233L9.38867 1.93233V3.599Z" fill="#7F8992"/>
<path d="M11.1387 3.599H12.8887V1.93233L11.1387 1.93233V3.599Z" fill="#7F8992"/>
<path d="M12.8887 3.599H14.6387V1.93233L12.8887 1.93233V3.599Z" fill="#7F8992"/>
<path d="M0.638672 5.26562H2.38867V3.59896H0.638672L0.638672 5.26562Z" fill="#7F8992"/>
<path d="M2.38867 5.26562H4.13867V3.59896H2.38867V5.26562Z" fill="#7F8992"/>
<path d="M4.13867 5.26562H5.88867V3.59896H4.13867V5.26562Z" fill="#7F8992"/>
<path d="M5.88867 5.26562H7.63867V3.59896H5.88867V5.26562Z" fill="#7F8992"/>
<path d="M7.63867 5.26562H9.38867V3.59896H7.63867V5.26562Z" fill="#7F8992"/>
<path d="M9.38867 5.26562H11.1387V3.59896H9.38867V5.26562Z" fill="#7F8992"/>
<path d="M11.1387 5.26562H12.8887V3.59896H11.1387V5.26562Z" fill="#7F8992"/>
<path d="M12.8887 5.26562H14.6387V3.59896H12.8887V5.26562Z" fill="#7F8992"/>
<path d="M0.638672 6.93225H2.38867V5.26558H0.638672L0.638672 6.93225Z" fill="#7F8992"/>
<path d="M2.38867 6.93225H4.13867V5.26558H2.38867V6.93225Z" fill="#7F8992"/>
<path d="M4.13867 6.93225H5.88867V5.26558H4.13867V6.93225Z" fill="#7F8992"/>
<path d="M5.88867 6.93225H7.63867V5.26558H5.88867V6.93225Z" fill="#7F8992"/>
<path d="M7.63867 6.93225H9.38867V5.26558H7.63867V6.93225Z" fill="#7F8992"/>
<path d="M9.38867 6.93225H11.1387V5.26558H9.38867V6.93225Z" fill="#7F8992"/>
<path d="M11.1387 6.93225H12.8887V5.26558H11.1387V6.93225Z" fill="#7F8992"/>
<path d="M12.8887 6.93225H14.6387V5.26558H12.8887V6.93225Z" fill="#7F8992"/>
<path d="M0.638672 8.599H2.38867V6.93233H0.638672L0.638672 8.599Z" fill="#7F8992"/>
<path d="M2.38867 8.599H4.13867V6.93233H2.38867V8.599Z" fill="#7F8992"/>
<path d="M4.13867 8.599H5.88867V6.93233H4.13867V8.599Z" fill="#7F8992"/>
<path d="M5.88867 8.599H7.63867V6.93233H5.88867V8.599Z" fill="#7F8992"/>
<path d="M7.63867 8.599H9.38867V6.93233H7.63867V8.599Z" fill="#7F8992"/>
<path d="M9.38867 8.599H11.1387V6.93233H9.38867V8.599Z" fill="#7F8992"/>
<path d="M11.1387 8.599H12.8887V6.93233H11.1387V8.599Z" fill="#7F8992"/>
<path d="M12.8887 8.599H14.6387V6.93233H12.8887V8.599Z" fill="#7F8992"/>
<path d="M0.638672 10.2656H2.38867V8.59896H0.638672L0.638672 10.2656Z" fill="#7F8992"/>
<path d="M2.38867 10.2656H4.13867V8.59896H2.38867V10.2656Z" fill="#7F8992"/>
<path d="M4.13867 10.2656H5.88867V8.59896H4.13867V10.2656Z" fill="#7F8992"/>
<path d="M5.88867 10.2656H7.63867V8.59896H5.88867V10.2656Z" fill="#7F8992"/>
<path d="M7.63867 10.2656H9.38867V8.59896H7.63867V10.2656Z" fill="#7F8992"/>
<path d="M9.38867 10.2656H11.1387V8.59896H9.38867V10.2656Z" fill="#7F8992"/>
<path d="M11.1387 10.2656H12.8887V8.59896H11.1387V10.2656Z" fill="#7F8992"/>
<path d="M12.8887 10.2656H14.6387V8.59896H12.8887V10.2656Z" fill="#7F8992"/>
<path d="M0.638672 11.9323H2.38867V10.2656H0.638672L0.638672 11.9323Z" fill="#7F8992"/>
<path d="M2.38867 11.9323H4.13867V10.2656H2.38867V11.9323Z" fill="#7F8992"/>
<path d="M4.13867 11.9323H5.88867V10.2656H4.13867V11.9323Z" fill="#7F8992"/>
<path d="M5.88867 11.9323H7.63867V10.2656H5.88867V11.9323Z" fill="#7F8992"/>
<path d="M7.63867 11.9323H9.38867V10.2656H7.63867V11.9323Z" fill="#7F8992"/>
<path d="M9.38867 11.9323H11.1387V10.2656H9.38867V11.9323Z" fill="#7F8992"/>
<path d="M11.1387 11.9323H12.8887V10.2656H11.1387V11.9323Z" fill="#7F8992"/>
<path d="M12.8887 11.9323H14.6387V10.2656H12.8887V11.9323Z" fill="#7F8992"/>
<path d="M0.638672 13.599H2.38867V11.9323H0.638672L0.638672 13.599Z" fill="#7F8992"/>
<path d="M2.38867 13.599H4.13867V11.9323H2.38867V13.599Z" fill="#7F8992"/>
<path d="M4.13867 13.599H5.88867V11.9323H4.13867V13.599Z" fill="#7F8992"/>
<path d="M5.88867 13.599H7.63867V11.9323H5.88867V13.599Z" fill="#7F8992"/>
<path d="M7.63867 13.599H9.38867V11.9323H7.63867V13.599Z" fill="#7F8992"/>
<path d="M5.88867 13.599H7.63867V11.9323H5.88867V13.599Z" fill="#7F8992"/>
<path d="M7.63867 13.599H9.38867V11.9323H7.63867V13.599Z" fill="#7F8992"/>
<path d="M9.38867 13.599H11.1387V11.9323H9.38867V13.599Z" fill="#7F8992"/>
<path d="M11.1387 13.599H12.8887V11.9323H11.1387V13.599Z" fill="#7F8992"/>
<path d="M12.8887 13.599H14.6387V11.9323H12.8887V13.599Z" fill="#7F8992"/>
<path d="M12.8887 13.599H14.6387V11.9323H12.8887V13.599Z" fill="#7F8992"/>
<path d="M12.8887 15.2656H14.6387V13.599H12.8887V15.2656Z" fill="#7F8992"/>
<path d="M12.8887 16.9323H14.6387V15.2656H12.8887V16.9323Z" fill="#7F8992"/>
<path d="M11.1387 13.599H12.8887V11.9323H11.1387V13.599Z" fill="#7F8992"/>
<path d="M11.1387 15.2656H12.8887V13.599H11.1387V15.2656Z" fill="#7F8992"/>
<path d="M11.1387 16.9323H12.8887V15.2656H11.1387V16.9323Z" fill="#7F8992"/>
<path d="M12.8887 18.599H14.6387V16.9323H12.8887V18.599Z" fill="#7F8992"/>
<path d="M0.638672 13.599H2.38867V11.9323H0.638672L0.638672 13.599Z" fill="#7F8992"/>
<path d="M0.638672 15.2656H2.38867V13.599H0.638672L0.638672 15.2656Z" fill="#7F8992"/>
<path d="M0.638672 16.9323H2.38867V15.2656H0.638672L0.638672 16.9323Z" fill="#7F8992"/>
<path d="M2.38867 13.599H4.13867V11.9323H2.38867V13.599Z" fill="#7F8992"/>
<path d="M2.38867 15.2656H4.13867V13.599H2.38867V15.2656Z" fill="#7F8992"/>
<path d="M4.13867 13.599H5.88867V11.9323H4.13867V13.599Z" fill="#7F8992"/>
<path d="M4.13867 15.2656H5.88867V13.599H4.13867V15.2656Z" fill="#7F8992"/>
<path d="M9.38867 13.599H11.1387V11.9323H9.38867V13.599Z" fill="#7F8992"/>
<path d="M9.38867 15.2656H11.1387V13.599H9.38867V15.2656Z" fill="#7F8992"/>
<path d="M2.38867 16.9323H4.13867V15.2656H2.38867V16.9323Z" fill="#7F8992"/>
<path d="M0.638672 18.599H2.38867V16.9323H0.638672L0.638672 18.599Z" fill="#7F8992"/>
<path d="M5.88867 15.2656H7.63867V13.599H5.88867V15.2656Z" fill="#7F8992"/>
<path d="M7.63867 15.2656H9.38867V13.599H7.63867V15.2656Z" fill="#7F8992"/>
<path d="M11.1387 18.599H12.8887V16.9323H11.1387V18.599Z" fill="#7F8992"/>
<path d="M12.8887 20.2656H14.6387V18.599H12.8887V20.2656Z" fill="#7F8992"/>
<path d="M4.13867 16.9323H5.88867V15.2656H4.13867V16.9323Z" fill="#7F8992"/>
<path d="M9.38867 16.9323H11.1387V15.2656H9.38867V16.9323Z" fill="#7F8992"/>
<path d="M2.38867 18.599H4.13867V16.9323H2.38867V18.599Z" fill="#7F8992"/>
<path d="M0.638672 20.2656H2.38867V18.599H0.638672L0.638672 20.2656Z" fill="#7F8992"/>
</svg>
