<svg xmlns="http://www.w3.org/2000/svg" width="20" height="20" viewBox="0 0 20 20" fill="none">
  <path d="M7.5 8.75H10V6.25H7.5V8.75Z" fill="black"/>
  <path d="M12.5 8.75H15V6.25H12.5V8.75Z" fill="black"/>
  <path d="M12.5 6.25H15V3.75L12.5 3.75V6.25Z" fill="black"/>
  <path d="M15 6.25H17.5V3.75L15 3.75V6.25Z" fill="black"/>
  <path d="M15 3.75L17.5 3.75V1.25L15 1.25V3.75Z" fill="black"/>
  <path d="M17.5 3.75L20 3.75V1.25L17.5 1.25V3.75Z" fill="black"/>
  <path d="M7.5 6.25H5V8.75H7.5V6.25Z" fill="black"/>
  <path d="M7.5 3.75H5V6.25H7.5V3.75Z" fill="black"/>
  <path d="M5 3.75H2.5V6.25H5V3.75Z" fill="black"/>
  <path d="M5 1.25H2.5V3.75H5V1.25Z" fill="black"/>
  <path d="M2.5 1.25H0V3.75H2.5V1.25Z" fill="black"/>
  <path d="M12.5 13.75H15V11.25H12.5V13.75Z" fill="black"/>
  <path d="M12.5 16.25H15V13.75H12.5V16.25Z" fill="black"/>
  <path d="M15 16.25H17.5V13.75H15V16.25Z" fill="black"/>
  <path d="M15 18.75H17.5V16.25H15V18.75Z" fill="black"/>
  <path d="M17.5 18.75H20V16.25H17.5V18.75Z" fill="black"/>
  <path d="M7.5 11.25H5V13.75H7.5V11.25Z" fill="black"/>
  <path d="M7.5 13.75H5V16.25H7.5V13.75Z" fill="black"/>
  <path d="M5 13.75H2.5V16.25H5V13.75Z" fill="black"/>
  <path d="M5 16.25H2.5V18.75H5V16.25Z" fill="black"/>
  <path d="M2.5 16.25H0V18.75H2.5V16.25Z" fill="black"/>
  <path d="M10 8.75H12.5V6.25H10V8.75Z" fill="black"/>
  <path d="M7.5 11.25H10V8.75H7.5V11.25Z" fill="black"/>
  <path d="M10 11.25H12.5V8.75H10V11.25Z" fill="black"/>
  <path d="M7.5 13.75H10V11.25H7.5V13.75Z" fill="black"/>
  <path d="M10 13.75H12.5V11.25H10V13.75Z" fill="black"/>
</svg>