<svg xmlns="http://www.w3.org/2000/svg" width="24" height="26" viewBox="0 0 24 26" fill="none">
<path d="M4.89957 25.1356C4.15739 25.1356 3.52336 24.8728 2.99748 24.3472C2.47185 23.8213 2.20904 23.1873 2.20904 22.4451V3.55479H0.720703V1.32229H7.4182V0.00585938H16.3482V1.32229H23.0457V3.55479H21.5574V22.4451C21.5574 23.1969 21.2969 23.8333 20.776 24.3542C20.2551 24.8752 19.6187 25.1356 18.8668 25.1356H4.89957ZM19.3249 3.55479H4.44154V22.4451C4.44154 22.5788 4.48445 22.6886 4.57028 22.7744C4.6561 22.8602 4.76587 22.9031 4.89957 22.9031H18.8668C18.9814 22.9031 19.0864 22.8554 19.1816 22.7599C19.2771 22.6646 19.3249 22.5597 19.3249 22.4451V3.55479ZM8.01949 19.9265H10.2516V6.53146H8.01949V19.9265ZM13.5148 19.9265H15.7469V6.53146H13.5148V19.9265Z" fill="white"/>
</svg>