<svg xmlns="http://www.w3.org/2000/svg" width="29" height="29" viewBox="0 0 29 29" fill="none">
<path d="M2.88465 28.9502C2.1364 28.9502 1.50307 28.6915 0.984655 28.174C0.466239 27.6565 0.207031 27.0244 0.207031 26.2775V6.48891C0.207031 5.74204 0.466239 5.10987 0.984655 4.59241C1.50307 4.07494 2.1364 3.81621 2.88465 3.81621H15.7054L13.4837 6.03391H2.88465C2.7706 6.03391 2.66617 6.08135 2.57138 6.17621C2.47633 6.27084 2.42881 6.37507 2.42881 6.48891V26.2775C2.42881 26.3913 2.47633 26.4956 2.57138 26.5902C2.66617 26.6851 2.7706 26.7325 2.88465 26.7325H22.7096C22.8237 26.7325 22.9281 26.6851 23.0229 26.5902C23.1179 26.4956 23.1654 26.3913 23.1654 26.2775V15.604L25.3872 13.3863V26.2775C25.3872 27.0244 25.128 27.6565 24.6096 28.174C24.0912 28.6915 23.4578 28.9502 22.7096 28.9502H2.88465ZM9.09416 20.0794V15.0042L22.5133 1.60996C22.7429 1.38055 22.9955 1.21324 23.271 1.10802C23.5462 1.0028 23.8263 0.950195 24.1112 0.950195C24.4017 0.950195 24.6808 1.0028 24.9484 1.10802C25.2163 1.21324 25.4603 1.37575 25.6805 1.59555L27.5405 3.44659C27.755 3.676 27.9198 3.92906 28.0348 4.20578C28.1496 4.4825 28.207 4.76305 28.207 5.0474C28.207 5.33176 28.1581 5.6075 28.0604 5.87461C27.9626 6.14196 27.7988 6.39023 27.569 6.61939L14.1072 20.0794H9.09416ZM11.3159 17.8617H13.1619L22.3934 8.64674L21.4706 7.72565L20.4823 6.77611L11.3159 15.9256V17.8617Z" fill="white"/>
</svg>