<svg width="12" height="21" viewBox="0 0 12 21" fill="none" xmlns="http://www.w3.org/2000/svg">
<path d="M10.1178 10.4165V12.0832H11.7845V10.4165H10.1178Z" fill="#252528"/>
<path d="M10.1178 8.74984V10.4165H11.7845V8.74984H10.1178Z" fill="#252528"/>
<path d="M8.45117 10.4165V12.0832H10.1178V10.4165H8.45117Z" fill="#252528"/>
<path d="M8.45117 12.0832V13.7498H10.1178V12.0832H8.45117Z" fill="#252528"/>
<path d="M6.78442 10.4165V12.0832H8.45109V10.4165H6.78442Z" fill="#252528"/>
<path d="M6.78442 12.0832V13.7498H8.45109V12.0832H6.78442Z" fill="#252528"/>
<path d="M6.78442 13.7498V15.4165H8.45109V13.7498H6.78442Z" fill="#252528"/>
<path d="M5.1178 12.0832V13.7498H6.78446V12.0832H5.1178Z" fill="#252528"/>
<path d="M5.1178 13.7498V15.4165H6.78446V13.7498H5.1178Z" fill="#252528"/>
<path d="M5.1178 15.4165V17.0832H6.78446V15.4165H5.1178Z" fill="#252528"/>
<path d="M3.45117 13.7498V15.4165H5.11784V13.7498H3.45117Z" fill="#252528"/>
<path d="M3.45117 15.4165V17.0832H5.11784V15.4165H3.45117Z" fill="#252528"/>
<path d="M3.45117 17.0832V18.7498H5.11784V17.0832H3.45117Z" fill="#252528"/>
<path d="M1.78442 15.4165V17.0832H3.45109V15.4165H1.78442Z" fill="#252528"/>
<path d="M1.78442 17.0832V18.7498H3.45109V17.0832H1.78442Z" fill="#252528"/>
<path d="M1.78442 18.7498V20.4165H3.45109V18.7498H1.78442Z" fill="#252528"/>
<path d="M0.117798 17.0832L0.117798 18.7498H1.78446V17.0832H0.117798Z" fill="#252528"/>
<path d="M0.117798 18.7498L0.117798 20.4165H1.78446V18.7498H0.117798Z" fill="#252528"/>
<path d="M8.45117 8.74984V10.4165H10.1178V8.74984H8.45117Z" fill="#252528"/>
<path d="M8.45117 7.08315V8.74982H10.1178V7.08315H8.45117Z" fill="#252528"/>
<path d="M6.78442 8.74984V10.4165H8.45109V8.74984H6.78442Z" fill="#252528"/>
<path d="M6.78442 7.08315V8.74982H8.45109V7.08315H6.78442Z" fill="#252528"/>
<path d="M6.78442 5.41649V7.08316H8.45109V5.41649H6.78442Z" fill="#252528"/>
<path d="M5.1178 7.08315V8.74982H6.78446V7.08315H5.1178Z" fill="#252528"/>
<path d="M5.1178 5.41649V7.08316H6.78446V5.41649H5.1178Z" fill="#252528"/>
<path d="M5.1178 3.74984V5.4165H6.78446V3.74984H5.1178Z" fill="#252528"/>
<path d="M3.45117 5.41649V7.08316H5.11784V5.41649H3.45117Z" fill="#252528"/>
<path d="M3.45117 3.74984V5.4165H5.11784V3.74984H3.45117Z" fill="#252528"/>
<path d="M3.44702 2.08315V3.74982H5.11369V2.08315H3.44702Z" fill="#252528"/>
<path d="M1.78027 3.74984V5.4165H3.44694V3.74984H1.78027Z" fill="#252528"/>
<path d="M1.78027 2.08315V3.74982H3.44694V2.08315H1.78027Z" fill="#252528"/>
<path d="M1.78442 0.416494V2.08316H3.45109V0.416494H1.78442Z" fill="#252528"/>
<path d="M0.117798 2.08315L0.117798 3.74982H1.78446V2.08315H0.117798Z" fill="#252528"/>
<path d="M0.117798 0.416494L0.117798 2.08316H1.78446V0.416494H0.117798Z" fill="#252528"/>
</svg>
