<svg width="17" height="16" viewBox="0 0 17 16" fill="none" xmlns="http://www.w3.org/2000/svg">
<path d="M14.449 8.9524L8.20225 15.4473L1.95549 8.9524C1.54346 8.53148 1.21891 8.02557 1.00227 7.46651C0.78564 6.90745 0.681618 6.30736 0.696757 5.70403C0.711895 5.10069 0.845867 4.50718 1.09024 3.96087C1.3346 3.41456 1.68408 2.92729 2.11664 2.52973C2.54921 2.13218 3.05551 1.83295 3.60365 1.6509C4.15178 1.46885 4.72989 1.40791 5.30156 1.47193C5.87324 1.53595 6.42609 1.72354 6.92531 2.02288C7.42453 2.32222 7.8593 2.72684 8.20225 3.21124C8.54669 2.73035 8.98196 2.32927 9.48084 2.03311C9.97972 1.73694 10.5315 1.55207 11.1015 1.49005C11.6716 1.42803 12.2477 1.4902 12.7939 1.67268C13.34 1.85516 13.8444 2.15401 14.2754 2.55053C14.7064 2.94705 15.0549 3.43271 15.2989 3.9771C15.543 4.52149 15.6773 5.11291 15.6936 5.71432C15.7099 6.31574 15.6078 6.91422 15.3936 7.4723C15.1795 8.03037 14.8579 8.53604 14.449 8.95764" fill="#FF0028"/>
<path d="M14.449 8.9524L8.20225 15.4473L1.95549 8.9524C1.54346 8.53148 1.21891 8.02557 1.00227 7.46651C0.78564 6.90745 0.681618 6.30736 0.696757 5.70403C0.711895 5.10069 0.845867 4.50718 1.09024 3.96087C1.3346 3.41456 1.68408 2.92729 2.11665 2.52973C2.54921 2.13218 3.05551 1.83295 3.60365 1.6509C4.15178 1.46885 4.72989 1.40791 5.30156 1.47193C5.87324 1.53595 6.42609 1.72354 6.92531 2.02288C7.42453 2.32222 7.8593 2.72683 8.20225 3.21124C8.54669 2.73035 8.98196 2.32927 9.48084 2.03311C9.97972 1.73694 10.5315 1.55207 11.1015 1.49005C11.6716 1.42803 12.2477 1.4902 12.7939 1.67268C13.34 1.85516 13.8444 2.15401 14.2754 2.55053C14.7064 2.94705 15.0549 3.43271 15.2989 3.9771C15.543 4.52149 15.6773 5.11291 15.6936 5.71432C15.7099 6.31574 15.6078 6.91422 15.3936 7.4723C15.1795 8.03037 14.8579 8.53604 14.449 8.95764" stroke="#FF0028" stroke-linecap="round" stroke-linejoin="round"/>
</svg>
