<svg width="25" height="25" viewBox="0 0 25 25" fill="none" xmlns="http://www.w3.org/2000/svg">
<g clip-path="url(#clip0_2806_45244)">
<path d="M0.267578 2.68595H2.93424V1.35262H5.60091V0.0192871H10.9342V1.35262H14.9342V2.68595H17.6009V1.35262H20.2676V0.0192871H24.2676V21.3526H21.6009V22.686H18.9342V24.0193H13.6009V22.686H9.60091V21.3526H6.93425V22.686H4.26758V24.0193H0.267578V2.68595ZM2.93424 5.35262V20.0193H5.60091V18.686H6.93425V4.01929H4.26758V5.35262H2.93424ZM13.6009 4.01929H9.60091V18.686H10.9342V20.0193H14.9342V5.35262H13.6009V4.01929ZM18.9342 5.35262H17.6009V20.0193H20.2676V18.686H21.6009V4.01929H18.9342V5.35262Z" fill="black"/>
</g>
<defs>
<clipPath id="clip0_2806_45244">
<rect width="24" height="24" fill="white" transform="translate(0.267578 0.0192871)"/>
</clipPath>
</defs>
</svg>
