<svg xmlns="http://www.w3.org/2000/svg" width="20" height="20" viewBox="0 0 20 20" fill="none">
  <g clip-path="url(#clip0_84_4310)">
    <path d="M5 1.66667V0L3.33333 0V1.66667H5Z" fill="#9FA6AC"/>
    <path d="M3.33325 3.33366V1.66699H1.66659V3.33366H3.33325Z" fill="#9FA6AC"/>
    <path d="M6.66675 1.66667V0L5.00008 0V1.66667H6.66675Z" fill="#9FA6AC"/>
    <path d="M8.33325 1.66667V0L6.66659 0V1.66667H8.33325Z" fill="#9FA6AC"/>
    <path d="M10 1.66667V0L8.33333 0V1.66667H10Z" fill="#9FA6AC"/>
    <path d="M1.66667 8.33301H0V9.99967H1.66667V8.33301Z" fill="#9FA6AC"/>
    <path d="M3.33341 10H1.66675V11.6667H3.33341V10Z" fill="#9FA6AC"/>
    <path d="M1.66667 6.66699H0V8.33366H1.66667V6.66699Z" fill="#9FA6AC"/>
    <path d="M1.66667 5H0V6.66667H1.66667V5Z" fill="#9FA6AC"/>
    <path d="M1.66667 3.33301H0V4.99967H1.66667V3.33301Z" fill="#9FA6AC"/>
    <path d="M8.33325 11.6663V13.333H9.99992V11.6663H8.33325Z" fill="#9FA6AC"/>
    <path d="M10 10.0003V11.667H11.6667V10.0003H10Z" fill="#9FA6AC"/>
    <path d="M11.6667 11.6663V13.333H13.3334V11.6663H11.6667Z" fill="#9FA6AC"/>
    <path d="M11.6667 13.3333V15H13.3334V13.3333H11.6667Z" fill="#9FA6AC"/>
    <path d="M13.3333 11.6663V13.333H14.9999V11.6663H13.3333Z" fill="#9FA6AC"/>
    <path d="M13.3333 13.3333V15H14.9999V13.3333H13.3333Z" fill="#9FA6AC"/>
    <path d="M13.3333 15.0003V16.667H14.9999V15.0003H13.3333Z" fill="#9FA6AC"/>
    <path d="M15 13.3333V15H16.6667V13.3333H15Z" fill="#9FA6AC"/>
    <path d="M15 15.0003V16.667H16.6667V15.0003H15Z" fill="#9FA6AC"/>
    <path d="M15 16.6663V18.333H16.6667V16.6663H15Z" fill="#9FA6AC"/>
    <path d="M16.6667 15.0003V16.667H18.3334V15.0003H16.6667Z" fill="#9FA6AC"/>
    <path d="M16.6667 16.6663V18.333H18.3334V16.6663H16.6667Z" fill="#9FA6AC"/>
    <path d="M16.6667 18.3333V20H18.3334V18.3333H16.6667Z" fill="#9FA6AC"/>
    <path d="M18.3333 16.6663V18.333H19.9999V16.6663H18.3333Z" fill="#9FA6AC"/>
    <path d="M18.3333 18.3333V20H19.9999V18.3333H18.3333Z" fill="#9FA6AC"/>
    <path d="M6.66675 11.6663V13.333H8.33341V11.6663H6.66675Z" fill="#9FA6AC"/>
    <path d="M5 11.6663V13.333H6.66667V11.6663H5Z" fill="#9FA6AC"/>
    <path d="M3.33325 11.6663V13.333H4.99992V11.6663H3.33325Z" fill="#9FA6AC"/>
    <path d="M11.6666 5H13.3333V3.33333H11.6666V5Z" fill="#9FA6AC"/>
    <path d="M10.0001 3.33301H11.6667V1.66634L10.0001 1.66634V3.33301Z" fill="#9FA6AC"/>
    <path d="M11.6666 6.66699H13.3333V5.00033H11.6666V6.66699Z" fill="#9FA6AC"/>
    <path d="M11.6666 8.33301H13.3333V6.66634H11.6666V8.33301Z" fill="#9FA6AC"/>
    <path d="M11.6666 10H13.3333V8.33333H11.6666V10Z" fill="#9FA6AC"/>
  </g>
  <defs>
    <clipPath id="clip0_84_4310">
      <rect width="20" height="20" fill="white"/>
    </clipPath>
  </defs>
</svg>