<svg width="33" height="32" viewBox="0 0 33 32" fill="none" xmlns="http://www.w3.org/2000/svg">
<path d="M8.69531 2.66667V0L6.02865 0V2.66667H8.69531Z" fill="#7F8992"/>
<path d="M6.02881 5.33341V2.66675H3.36214V5.33341H6.02881Z" fill="#7F8992"/>
<path d="M11.3618 2.66667V0L8.69515 0V2.66667H11.3618Z" fill="#7F8992"/>
<path d="M14.0288 2.66667V0L11.3621 0V2.66667H14.0288Z" fill="#7F8992"/>
<path d="M16.6953 2.66667V0L14.0286 0V2.66667H16.6953Z" fill="#7F8992"/>
<path d="M3.36198 13.3333H0.695312V15.9999H3.36198V13.3333Z" fill="#7F8992"/>
<path d="M6.02848 16H3.36182V18.6667H6.02848V16Z" fill="#7F8992"/>
<path d="M3.36198 10.6667H0.695312V13.3334H3.36198V10.6667Z" fill="#7F8992"/>
<path d="M3.36198 8H0.695312V10.6667H3.36198V8Z" fill="#7F8992"/>
<path d="M3.36198 5.33325H0.695312V7.99992H3.36198V5.33325Z" fill="#7F8992"/>
<path d="M8.69531 5.33341V2.66675H6.02865V5.33341H8.69531Z" fill="#7F8992"/>
<path d="M6.02848 8H3.36182V10.6667H6.02848V8Z" fill="#7F8992"/>
<path d="M6.02848 5.33325H3.36182V7.99992H6.02848V5.33325Z" fill="#7F8992"/>
<path d="M11.3618 5.33341V2.66675H8.69515V5.33341H11.3618Z" fill="#7F8992"/>
<path d="M8.69548 5.33325H6.02881V7.99992H8.69548V5.33325Z" fill="#7F8992"/>
<path d="M14.0288 5.33341V2.66675H11.3621V5.33341H14.0288Z" fill="#7F8992"/>
<path d="M11.362 8H8.69531V10.6667H11.362V8Z" fill="#7F8992"/>
<path d="M16.6953 5.33341V2.66675H14.0286V5.33341H16.6953Z" fill="#7F8992"/>
<path d="M14.0285 8H11.3618V10.6667H14.0285V8Z" fill="#7F8992"/>
<path d="M14.0285 5.33325H11.3618V7.99992H14.0285V5.33325Z" fill="#7F8992"/>
<path d="M14.0285 8H11.3618V10.6667H14.0285V8Z" fill="#7F8992"/>
<path d="M14.0285 5.33325H11.3618V7.99992H14.0285V5.33325Z" fill="#7F8992"/>
<path d="M16.6955 8H14.0288V10.6667H16.6955V8Z" fill="#7F8992"/>
<path d="M16.6955 5.33325H14.0288V7.99992H16.6955V5.33325Z" fill="#7F8992"/>
<path d="M19.362 8H16.6953V10.6667H19.362V8Z" fill="#7F8992"/>
<path d="M19.362 5.33325H16.6953V7.99992H19.362V5.33325Z" fill="#7F8992"/>
<path d="M14.0288 16.0001V18.6667H16.6955V16.0001H14.0288Z" fill="#7F8992"/>
<path d="M16.6951 13.3333H19.3618V10.6666H16.6951V13.3333Z" fill="#7F8992"/>
<path d="M16.6951 16H19.3618V13.3333H16.6951V16Z" fill="#7F8992"/>
<path d="M11.3618 16.0001V18.6667H14.0285V16.0001H11.3618Z" fill="#7F8992"/>
<path d="M14.0286 13.3333H16.6953V10.6666H14.0286V13.3333Z" fill="#7F8992"/>
<path d="M14.0286 16H16.6953V13.3333H14.0286V16Z" fill="#7F8992"/>
<path d="M8.69531 16.0001V18.6667H11.362V16.0001H8.69531Z" fill="#7F8992"/>
<path d="M11.3621 13.3333H14.0288V10.6666H11.3621V13.3333Z" fill="#7F8992"/>
<path d="M11.3621 16H14.0288V13.3333H11.3621V16Z" fill="#7F8992"/>
<path d="M6.02881 16.0001V18.6667H8.69548V16.0001H6.02881Z" fill="#7F8992"/>
<path d="M8.69515 13.3333H11.3618V10.6666H8.69515V13.3333Z" fill="#7F8992"/>
<path d="M8.69515 16H11.3618V13.3333H8.69515V16Z" fill="#7F8992"/>
<path d="M8.69515 13.3333H11.3618V10.6666H8.69515V13.3333Z" fill="#7F8992"/>
<path d="M8.69548 8H6.02881V10.6667H8.69548V8Z" fill="#7F8992"/>
<path d="M11.362 5.33325H8.69531V7.99992H11.362V5.33325Z" fill="#7F8992"/>
<path d="M6.02865 13.3333H8.69531V10.6666H6.02865V13.3333Z" fill="#7F8992"/>
<path d="M8.69515 16H11.3618V13.3333H8.69515V16Z" fill="#7F8992"/>
<path d="M6.02865 16H8.69531V13.3333H6.02865V16Z" fill="#7F8992"/>
<path d="M3.36214 13.3333H6.02881V10.6666H3.36214L3.36214 13.3333Z" fill="#7F8992"/>
<path d="M3.36214 16H6.02881V13.3333H3.36214L3.36214 16Z" fill="#7F8992"/>
<path d="M14.0288 18.6666V21.3333H16.6955V18.6666H14.0288Z" fill="#7F8992"/>
<path d="M16.6953 16.0001V18.6667H19.362V16.0001H16.6953Z" fill="#7F8992"/>
<path d="M19.3618 18.6666V21.3333H22.0285V18.6666H19.3618Z" fill="#7F8992"/>
<path d="M19.3618 21.3333V24H22.0285V21.3333H19.3618Z" fill="#7F8992"/>
<path d="M22.0288 18.6666V21.3333H24.6955V18.6666H22.0288Z" fill="#7F8992"/>
<path d="M22.0288 21.3333V24H24.6955V21.3333H22.0288Z" fill="#7F8992"/>
<path d="M22.0288 24.0001V26.6667H24.6955V24.0001H22.0288Z" fill="#7F8992"/>
<path d="M24.6953 21.3333V24H27.362V21.3333H24.6953Z" fill="#7F8992"/>
<path d="M24.6953 24.0001V26.6667H27.362V24.0001H24.6953Z" fill="#7F8992"/>
<path d="M24.6953 26.6666V29.3333H27.362V26.6666H24.6953Z" fill="#7F8992"/>
<path d="M27.3618 24.0001V26.6667H30.0285V24.0001H27.3618Z" fill="#7F8992"/>
<path d="M27.3618 26.6666V29.3333H30.0285V26.6666H27.3618Z" fill="#7F8992"/>
<path d="M27.3618 29.3333V32H30.0285V29.3333H27.3618Z" fill="#7F8992"/>
<path d="M30.0288 26.6666V29.3333H32.6955V26.6666H30.0288Z" fill="#7F8992"/>
<path d="M30.0288 29.3333V32H32.6955V29.3333H30.0288Z" fill="#7F8992"/>
<path d="M11.3618 18.6666V21.3333H14.0285V18.6666H11.3618Z" fill="#7F8992"/>
<path d="M8.69531 18.6666V21.3333H11.362V18.6666H8.69531Z" fill="#7F8992"/>
<path d="M6.02881 18.6666V21.3333H8.69548V18.6666H6.02881Z" fill="#7F8992"/>
<path d="M19.3621 8H22.0288V5.33333H19.3621V8Z" fill="#7F8992"/>
<path d="M16.6951 5.33325H19.3618V2.66659L16.6951 2.66659V5.33325Z" fill="#7F8992"/>
<path d="M19.3621 10.6667H22.0288V8.00008H19.3621V10.6667Z" fill="#7F8992"/>
<path d="M19.3621 13.3333H22.0288V10.6666H19.3621V13.3333Z" fill="#7F8992"/>
<path d="M19.3621 16H22.0288V13.3333H19.3621V16Z" fill="#7F8992"/>
</svg>
