<svg xmlns="http://www.w3.org/2000/svg" width="21" height="20" viewBox="0 0 21 20" fill="none">
  <path d="M19.7244 0.481729C19.5085 0.26683 19.2377 0.115757 18.9418 0.0451129C18.6458 -0.0255311 18.3361 -0.0130116 18.0468 0.0812955L1.35012 5.66448C1.04047 5.76284 0.766831 5.951 0.56378 6.20517C0.360728 6.45935 0.237369 6.76814 0.209281 7.09256C0.181194 7.41698 0.249639 7.74247 0.405971 8.02791C0.562304 8.31336 0.799511 8.54596 1.08763 8.69633L8.01509 12.1286L11.4389 19.0962C11.5765 19.3689 11.7871 19.5979 12.0471 19.7575C12.3071 19.9171 12.6062 20.0011 12.9111 20H13.0252C13.3517 19.9759 13.6635 19.8539 13.9199 19.6499C14.1764 19.4458 14.3657 19.1692 14.4632 18.8559L20.1125 2.16355C20.2133 1.87516 20.2304 1.56398 20.1617 1.26623C20.093 0.968485 19.9414 0.696427 19.7244 0.481729ZM2.05771 7.24333L16.6316 2.36949L8.54008 10.4811L2.05771 7.24333ZM12.991 18.1923L9.74981 11.6939L17.8414 3.58223L12.991 18.1923Z" fill="black"/>
</svg>