<svg width="28" height="228" viewBox="0 0 28 228" fill="none" xmlns="http://www.w3.org/2000/svg">
<rect width="28" height="228" fill="white"/>
<rect x="4" y="224" width="4" height="4" fill="#D2D9DF"/>
<rect x="4" y="216" width="4" height="4" fill="#D2D9DF"/>
<rect x="4" y="208" width="4" height="4" fill="#D2D9DF"/>
<rect x="4" y="200" width="4" height="4" fill="#D2D9DF"/>
<rect x="4" y="192" width="4" height="4" fill="#D2D9DF"/>
<rect x="4" y="184" width="4" height="4" fill="#D2D9DF"/>
<rect x="4" y="176" width="4" height="4" fill="#D2D9DF"/>
<rect x="4" y="168" width="4" height="4" fill="#D2D9DF"/>
<rect x="4" y="160" width="4" height="4" fill="#D2D9DF"/>
<rect x="4" y="152" width="4" height="4" fill="#D2D9DF"/>
<rect x="4" y="144" width="4" height="4" fill="#D2D9DF"/>
<rect x="4" y="136" width="4" height="4" fill="#D2D9DF"/>
<rect x="4" y="128" width="4" height="4" fill="#D2D9DF"/>
<rect x="4" y="120" width="4" height="4" fill="#D2D9DF"/>
<rect x="4" y="112" width="4" height="4" fill="#D2D9DF"/>
<rect x="4" y="104" width="4" height="4" fill="#D2D9DF"/>
<rect x="4" y="96" width="4" height="4" fill="#D2D9DF"/>
<rect x="4" y="88" width="4" height="4" fill="#D2D9DF"/>
<rect x="4" y="80" width="4" height="4" fill="#D2D9DF"/>
<rect x="4" y="72" width="4" height="4" fill="#D2D9DF"/>
<rect x="4" y="64" width="4" height="4" fill="#D2D9DF"/>
<rect x="4" y="56" width="4" height="4" fill="#D2D9DF"/>
<rect x="4" y="48" width="4" height="4" fill="#D2D9DF"/>
<rect x="4" y="40" width="4" height="4" fill="#D2D9DF"/>
<rect x="4" y="32" width="4" height="4" fill="#D2D9DF"/>
<rect x="4" y="24" width="4" height="4" fill="#D2D9DF"/>
<rect x="4" y="16" width="4" height="4" fill="#D2D9DF"/>
<rect x="4" y="8" width="4" height="4" fill="#D2D9DF"/>
<rect x="4" width="4" height="4" fill="#D2D9DF"/>
<rect y="220" width="4" height="4" fill="#D2D9DF"/>
<rect y="212" width="4" height="4" fill="#D2D9DF"/>
<rect y="204" width="4" height="4" fill="#D2D9DF"/>
<rect y="196" width="4" height="4" fill="#D2D9DF"/>
<rect y="188" width="4" height="4" fill="#D2D9DF"/>
<rect y="180" width="4" height="4" fill="#D2D9DF"/>
<rect y="172" width="4" height="4" fill="#D2D9DF"/>
<rect y="164" width="4" height="4" fill="#D2D9DF"/>
<rect y="156" width="4" height="4" fill="#D2D9DF"/>
<rect y="148" width="4" height="4" fill="#D2D9DF"/>
<rect y="140" width="4" height="4" fill="#D2D9DF"/>
<rect y="132" width="4" height="4" fill="#D2D9DF"/>
<rect y="124" width="4" height="4" fill="#D2D9DF"/>
<rect y="116" width="4" height="4" fill="#D2D9DF"/>
<rect y="108" width="4" height="4" fill="#D2D9DF"/>
<rect y="100" width="4" height="4" fill="#D2D9DF"/>
<rect y="92" width="4" height="4" fill="#D2D9DF"/>
<rect y="84" width="4" height="4" fill="#D2D9DF"/>
<rect y="76" width="4" height="4" fill="#D2D9DF"/>
<rect y="68" width="4" height="4" fill="#D2D9DF"/>
<rect y="60" width="4" height="4" fill="#D2D9DF"/>
<rect y="52" width="4" height="4" fill="#D2D9DF"/>
<rect y="44" width="4" height="4" fill="#D2D9DF"/>
<rect y="36" width="4" height="4" fill="#D2D9DF"/>
<rect y="28" width="4" height="4" fill="#D2D9DF"/>
<rect y="20" width="4" height="4" fill="#D2D9DF"/>
<rect y="12" width="4" height="4" fill="#D2D9DF"/>
<rect y="4" width="4" height="4" fill="#D2D9DF"/>
<rect x="12" y="224" width="4" height="4" fill="#D2D9DF"/>
<rect x="12" y="216" width="4" height="4" fill="#D2D9DF"/>
<rect x="12" y="208" width="4" height="4" fill="#D2D9DF"/>
<rect x="12" y="200" width="4" height="4" fill="#D2D9DF"/>
<rect x="12" y="192" width="4" height="4" fill="#D2D9DF"/>
<rect x="12" y="184" width="4" height="4" fill="#D2D9DF"/>
<rect x="12" y="176" width="4" height="4" fill="#D2D9DF"/>
<rect x="12" y="168" width="4" height="4" fill="#D2D9DF"/>
<rect x="12" y="160" width="4" height="4" fill="#D2D9DF"/>
<rect x="12" y="152" width="4" height="4" fill="#D2D9DF"/>
<rect x="12" y="144" width="4" height="4" fill="#D2D9DF"/>
<rect x="12" y="136" width="4" height="4" fill="#D2D9DF"/>
<rect x="12" y="128" width="4" height="4" fill="#D2D9DF"/>
<rect x="12" y="120" width="4" height="4" fill="#D2D9DF"/>
<rect x="12" y="112" width="4" height="4" fill="#D2D9DF"/>
<rect x="12" y="104" width="4" height="4" fill="#D2D9DF"/>
<rect x="12" y="96" width="4" height="4" fill="#D2D9DF"/>
<rect x="12" y="88" width="4" height="4" fill="#D2D9DF"/>
<rect x="12" y="80" width="4" height="4" fill="#D2D9DF"/>
<rect x="12" y="72" width="4" height="4" fill="#D2D9DF"/>
<rect x="12" y="64" width="4" height="4" fill="#D2D9DF"/>
<rect x="12" y="56" width="4" height="4" fill="#D2D9DF"/>
<rect x="12" y="48" width="4" height="4" fill="#D2D9DF"/>
<rect x="12" y="40" width="4" height="4" fill="#D2D9DF"/>
<rect x="12" y="32" width="4" height="4" fill="#D2D9DF"/>
<rect x="12" y="24" width="4" height="4" fill="#D2D9DF"/>
<rect x="12" y="16" width="4" height="4" fill="#D2D9DF"/>
<rect x="12" y="8" width="4" height="4" fill="#D2D9DF"/>
<rect x="12" width="4" height="4" fill="#D2D9DF"/>
<rect x="8" y="220" width="4" height="4" fill="#D2D9DF"/>
<rect x="8" y="212" width="4" height="4" fill="#D2D9DF"/>
<rect x="8" y="204" width="4" height="4" fill="#D2D9DF"/>
<rect x="8" y="196" width="4" height="4" fill="#D2D9DF"/>
<rect x="8" y="188" width="4" height="4" fill="#D2D9DF"/>
<rect x="8" y="180" width="4" height="4" fill="#D2D9DF"/>
<rect x="8" y="172" width="4" height="4" fill="#D2D9DF"/>
<rect x="8" y="164" width="4" height="4" fill="#D2D9DF"/>
<rect x="8" y="156" width="4" height="4" fill="#D2D9DF"/>
<rect x="8" y="148" width="4" height="4" fill="#D2D9DF"/>
<rect x="8" y="140" width="4" height="4" fill="#D2D9DF"/>
<rect x="8" y="132" width="4" height="4" fill="#D2D9DF"/>
<rect x="8" y="124" width="4" height="4" fill="#D2D9DF"/>
<rect x="8" y="116" width="4" height="4" fill="#D2D9DF"/>
<rect x="8" y="108" width="4" height="4" fill="#D2D9DF"/>
<rect x="8" y="100" width="4" height="4" fill="#D2D9DF"/>
<rect x="8" y="92" width="4" height="4" fill="#D2D9DF"/>
<rect x="8" y="84" width="4" height="4" fill="#D2D9DF"/>
<rect x="8" y="76" width="4" height="4" fill="#D2D9DF"/>
<rect x="8" y="68" width="4" height="4" fill="#D2D9DF"/>
<rect x="8" y="60" width="4" height="4" fill="#D2D9DF"/>
<rect x="8" y="52" width="4" height="4" fill="#D2D9DF"/>
<rect x="8" y="44" width="4" height="4" fill="#D2D9DF"/>
<rect x="8" y="36" width="4" height="4" fill="#D2D9DF"/>
<rect x="8" y="28" width="4" height="4" fill="#D2D9DF"/>
<rect x="8" y="20" width="4" height="4" fill="#D2D9DF"/>
<rect x="8" y="12" width="4" height="4" fill="#D2D9DF"/>
<rect x="8" y="4" width="4" height="4" fill="#D2D9DF"/>
<rect x="20" y="224" width="4" height="4" fill="#D2D9DF"/>
<rect x="20" y="216" width="4" height="4" fill="#D2D9DF"/>
<rect x="20" y="208" width="4" height="4" fill="#D2D9DF"/>
<rect x="20" y="200" width="4" height="4" fill="#D2D9DF"/>
<rect x="20" y="192" width="4" height="4" fill="#D2D9DF"/>
<rect x="20" y="184" width="4" height="4" fill="#D2D9DF"/>
<rect x="20" y="176" width="4" height="4" fill="#D2D9DF"/>
<rect x="20" y="168" width="4" height="4" fill="#D2D9DF"/>
<rect x="20" y="160" width="4" height="4" fill="#D2D9DF"/>
<rect x="20" y="152" width="4" height="4" fill="#D2D9DF"/>
<rect x="20" y="144" width="4" height="4" fill="#D2D9DF"/>
<rect x="20" y="136" width="4" height="4" fill="#D2D9DF"/>
<rect x="20" y="128" width="4" height="4" fill="#D2D9DF"/>
<rect x="20" y="120" width="4" height="4" fill="#D2D9DF"/>
<rect x="20" y="112" width="4" height="4" fill="#D2D9DF"/>
<rect x="20" y="104" width="4" height="4" fill="#D2D9DF"/>
<rect x="20" y="96" width="4" height="4" fill="#D2D9DF"/>
<rect x="20" y="88" width="4" height="4" fill="#D2D9DF"/>
<rect x="20" y="80" width="4" height="4" fill="#D2D9DF"/>
<rect x="20" y="72" width="4" height="4" fill="#D2D9DF"/>
<rect x="20" y="64" width="4" height="4" fill="#D2D9DF"/>
<rect x="20" y="56" width="4" height="4" fill="#D2D9DF"/>
<rect x="20" y="48" width="4" height="4" fill="#D2D9DF"/>
<rect x="20" y="40" width="4" height="4" fill="#D2D9DF"/>
<rect x="20" y="32" width="4" height="4" fill="#D2D9DF"/>
<rect x="20" y="24" width="4" height="4" fill="#D2D9DF"/>
<rect x="20" y="16" width="4" height="4" fill="#D2D9DF"/>
<rect x="20" y="8" width="4" height="4" fill="#D2D9DF"/>
<rect x="20" width="4" height="4" fill="#D2D9DF"/>
<rect x="16" y="220" width="4" height="4" fill="#D2D9DF"/>
<rect x="16" y="212" width="4" height="4" fill="#D2D9DF"/>
<rect x="16" y="204" width="4" height="4" fill="#D2D9DF"/>
<rect x="16" y="196" width="4" height="4" fill="#D2D9DF"/>
<rect x="16" y="188" width="4" height="4" fill="#D2D9DF"/>
<rect x="16" y="180" width="4" height="4" fill="#D2D9DF"/>
<rect x="16" y="172" width="4" height="4" fill="#D2D9DF"/>
<rect x="16" y="164" width="4" height="4" fill="#D2D9DF"/>
<rect x="16" y="156" width="4" height="4" fill="#D2D9DF"/>
<rect x="16" y="148" width="4" height="4" fill="#D2D9DF"/>
<rect x="16" y="140" width="4" height="4" fill="#D2D9DF"/>
<rect x="16" y="132" width="4" height="4" fill="#D2D9DF"/>
<rect x="16" y="124" width="4" height="4" fill="#D2D9DF"/>
<rect x="16" y="116" width="4" height="4" fill="#D2D9DF"/>
<rect x="16" y="108" width="4" height="4" fill="#D2D9DF"/>
<rect x="16" y="100" width="4" height="4" fill="#D2D9DF"/>
<rect x="16" y="92" width="4" height="4" fill="#D2D9DF"/>
<rect x="16" y="84" width="4" height="4" fill="#D2D9DF"/>
<rect x="16" y="76" width="4" height="4" fill="#D2D9DF"/>
<rect x="16" y="68" width="4" height="4" fill="#D2D9DF"/>
<rect x="16" y="60" width="4" height="4" fill="#D2D9DF"/>
<rect x="16" y="52" width="4" height="4" fill="#D2D9DF"/>
<rect x="16" y="44" width="4" height="4" fill="#D2D9DF"/>
<rect x="16" y="36" width="4" height="4" fill="#D2D9DF"/>
<rect x="16" y="28" width="4" height="4" fill="#D2D9DF"/>
<rect x="16" y="20" width="4" height="4" fill="#D2D9DF"/>
<rect x="16" y="12" width="4" height="4" fill="#D2D9DF"/>
<rect x="16" y="4" width="4" height="4" fill="#D2D9DF"/>
<rect x="24" y="220" width="4" height="4" fill="#D2D9DF"/>
<rect x="24" y="212" width="4" height="4" fill="#D2D9DF"/>
<rect x="24" y="204" width="4" height="4" fill="#D2D9DF"/>
<rect x="24" y="196" width="4" height="4" fill="#D2D9DF"/>
<rect x="24" y="188" width="4" height="4" fill="#D2D9DF"/>
<rect x="24" y="180" width="4" height="4" fill="#D2D9DF"/>
<rect x="24" y="172" width="4" height="4" fill="#D2D9DF"/>
<rect x="24" y="164" width="4" height="4" fill="#D2D9DF"/>
<rect x="24" y="156" width="4" height="4" fill="#D2D9DF"/>
<rect x="24" y="148" width="4" height="4" fill="#D2D9DF"/>
<rect x="24" y="140" width="4" height="4" fill="#D2D9DF"/>
<rect x="24" y="132" width="4" height="4" fill="#D2D9DF"/>
<rect x="24" y="124" width="4" height="4" fill="#D2D9DF"/>
<rect x="24" y="116" width="4" height="4" fill="#D2D9DF"/>
<rect x="24" y="108" width="4" height="4" fill="#D2D9DF"/>
<rect x="24" y="100" width="4" height="4" fill="#D2D9DF"/>
<rect x="24" y="92" width="4" height="4" fill="#D2D9DF"/>
<rect x="24" y="84" width="4" height="4" fill="#D2D9DF"/>
<rect x="24" y="76" width="4" height="4" fill="#D2D9DF"/>
<rect x="24" y="68" width="4" height="4" fill="#D2D9DF"/>
<rect x="24" y="60" width="4" height="4" fill="#D2D9DF"/>
<rect x="24" y="52" width="4" height="4" fill="#D2D9DF"/>
<rect x="24" y="44" width="4" height="4" fill="#D2D9DF"/>
<rect x="24" y="36" width="4" height="4" fill="#D2D9DF"/>
<rect x="24" y="28" width="4" height="4" fill="#D2D9DF"/>
<rect x="24" y="20" width="4" height="4" fill="#D2D9DF"/>
<rect x="24" y="12" width="4" height="4" fill="#D2D9DF"/>
<rect x="24" y="4" width="4" height="4" fill="#D2D9DF"/>
</svg>
