<svg width="15" height="8" viewBox="0 0 15 8" fill="none" xmlns="http://www.w3.org/2000/svg">
<rect x="12.2913" y="6.00061" width="2" height="2" transform="rotate(180 12.2913 6.00061)" fill="#252528"/>
<rect x="12.2913" y="8.00061" width="2" height="2" transform="rotate(180 12.2913 8.00061)" fill="#252528"/>
<rect x="14.2913" y="8.00061" width="2" height="2" transform="rotate(180 14.2913 8.00061)" fill="#252528"/>
<rect x="10.2913" y="6.00061" width="2" height="2" transform="rotate(180 10.2913 6.00061)" fill="#252528"/>
<rect x="10.2913" y="8.00061" width="2" height="2" transform="rotate(180 10.2913 8.00061)" fill="#252528"/>
<rect x="10.2913" y="4.00061" width="2" height="2" transform="rotate(180 10.2913 4.00061)" fill="#252528"/>
<rect x="8.29126" y="6.00061" width="2" height="2" transform="rotate(180 8.29126 6.00061)" fill="#252528"/>
<rect x="8.29126" y="8.00061" width="2" height="2" transform="rotate(180 8.29126 8.00061)" fill="#252528"/>
<rect x="8.29126" y="4.00061" width="2" height="2" transform="rotate(180 8.29126 4.00061)" fill="#252528"/>
<rect x="8.29126" y="2.00061" width="2" height="2" transform="rotate(180 8.29126 2.00061)" fill="#252528"/>
<rect x="6.29126" y="6.00061" width="2" height="2" transform="rotate(180 6.29126 6.00061)" fill="#252528"/>
<rect x="6.29126" y="8.00061" width="2" height="2" transform="rotate(180 6.29126 8.00061)" fill="#252528"/>
<rect x="6.29126" y="4.00061" width="2" height="2" transform="rotate(180 6.29126 4.00061)" fill="#252528"/>
<rect x="4.29126" y="6.00061" width="2" height="2" transform="rotate(180 4.29126 6.00061)" fill="#252528"/>
<rect x="4.29126" y="8.00061" width="2" height="2" transform="rotate(180 4.29126 8.00061)" fill="#252528"/>
<rect x="2.29126" y="8.00061" width="2" height="2" transform="rotate(180 2.29126 8.00061)" fill="#252528"/>
</svg>
