<svg width="32" height="32" viewBox="0 0 32 32" fill="none" xmlns="http://www.w3.org/2000/svg">
<circle cx="16" cy="16" r="15.5" fill="#4544FF" stroke="white"/>
<g clip-path="url(#clip0_4964_69655)">
<path d="M21.8333 12.9473H23V11.7806H21.8333V12.9473Z" fill="white"/>
<path d="M20.6667 11.7806H21.8334V10.6139H20.6667V11.7806Z" fill="white"/>
<path d="M19.5 10.6139H20.6666V9.44726H19.5V10.6139Z" fill="white"/>
<path d="M20.6667 14.1139H21.8334V12.9473H20.6667V14.1139Z" fill="white"/>
<path d="M19.5 12.9473H20.6666V11.7806H19.5V12.9473Z" fill="white"/>
<path d="M18.3333 11.7806H19.5V10.6139H18.3333V11.7806Z" fill="white"/>
<path d="M19.5 15.2806H20.6666V14.1139H19.5V15.2806Z" fill="white"/>
<path d="M10.1667 10.6139H11.3334V9.44726H10.1667V10.6139Z" fill="white"/>
<path d="M11.3333 10.6139H12.5V9.44726H11.3333V10.6139Z" fill="white"/>
<path d="M12.5 10.6139H13.6666V9.44726H12.5V10.6139Z" fill="white"/>
<path d="M10.1667 11.7806H11.3334V10.6139H10.1667V11.7806Z" fill="white"/>
<path d="M11.3333 11.7806H12.5V10.6139H11.3333V11.7806Z" fill="white"/>
<path d="M12.5 11.7806H13.6666V10.6139H12.5V11.7806Z" fill="white"/>
<path d="M10.1667 12.9473H11.3334V11.7806H10.1667V12.9473Z" fill="white"/>
<path d="M11.3333 12.9473H12.5V11.7806H11.3333V12.9473Z" fill="white"/>
<path d="M12.5 12.9473H13.6666V11.7806H12.5V12.9473Z" fill="white"/>
<path d="M10.1667 14.1139H11.3334V12.9473H10.1667V14.1139Z" fill="white"/>
<path d="M11.3333 14.1139H12.5V12.9473H11.3333V14.1139Z" fill="white"/>
<path d="M12.5 14.1139H13.6666V12.9473H12.5V14.1139Z" fill="white"/>
<path d="M13.6667 11.7806H14.8334V10.6139H13.6667V11.7806Z" fill="white"/>
<path d="M13.6667 12.9473H14.8334V11.7806H13.6667V12.9473Z" fill="white"/>
<path d="M13.6667 14.1139H14.8334V12.9473H13.6667V14.1139Z" fill="white"/>
<path d="M10.1667 15.2806H11.3334V14.1139H10.1667V15.2806Z" fill="white"/>
<path d="M11.3333 15.2806H12.5V14.1139H11.3333V15.2806Z" fill="white"/>
<path d="M12.5 15.2806H13.6666V14.1139H12.5V15.2806Z" fill="white"/>
<path d="M13.6667 15.2806H14.8334V14.1139H13.6667V15.2806Z" fill="white"/>
<path d="M14.8333 12.9473H16V11.7806H14.8333V12.9473Z" fill="white"/>
<path d="M14.8333 14.1139H16V12.9473H14.8333V14.1139Z" fill="white"/>
<path d="M14.8333 15.2806H16V14.1139H14.8333V15.2806Z" fill="white"/>
<path d="M11.3333 16.4473H12.5V15.2806H11.3333V16.4473Z" fill="white"/>
<path d="M12.5 16.4473H13.6666V15.2806H12.5V16.4473Z" fill="white"/>
<path d="M13.6667 16.4473H14.8334V15.2806H13.6667V16.4473Z" fill="white"/>
<path d="M16 16.4473H17.1666V15.2806H16V16.4473Z" fill="white"/>
<path d="M14.8333 16.4473H16V15.2806H14.8333V16.4473Z" fill="white"/>
<path d="M14.8333 17.6139H16V16.4473H14.8333V17.6139Z" fill="white"/>
<path d="M16 17.6139H17.1666V16.4473H16V17.6139Z" fill="white"/>
<path d="M17.1667 17.6139H18.3334V16.4473H17.1667V17.6139Z" fill="white"/>
<path d="M16 18.7806H17.1666V17.6139H16V18.7806Z" fill="white"/>
<path d="M17.1667 18.7806H18.3334V17.6139H17.1667V18.7806Z" fill="white"/>
<path d="M18.3333 18.7806H19.5V17.6139H18.3333V18.7806Z" fill="white"/>
<path d="M17.1667 19.9473H18.3334V18.7806H17.1667V19.9473Z" fill="white"/>
<path d="M18.3333 19.9473H19.5V18.7806H18.3333V19.9473Z" fill="white"/>
<path d="M19.5 19.9473H20.6666V18.7806H19.5V19.9473Z" fill="white"/>
<path d="M18.3333 21.1139H19.5V19.9473H18.3333V21.1139Z" fill="white"/>
<path d="M19.5 21.1139H20.6666V19.9473H19.5V21.1139Z" fill="white"/>
<path d="M20.6667 21.1139H21.8334V19.9473H20.6667V21.1139Z" fill="white"/>
<path d="M19.5 22.2806H20.6666V21.1139H19.5V22.2806Z" fill="white"/>
<path d="M20.6667 22.2806H21.8334V21.1139H20.6667V22.2806Z" fill="white"/>
<path d="M21.8333 22.2806H23V21.1139H21.8333V22.2806Z" fill="white"/>
<path d="M20.6667 23.4473H21.8334V22.2806H20.6667V23.4473Z" fill="white"/>
<path d="M21.8333 23.4473H23V22.2806H21.8333V23.4473Z" fill="white"/>
<path d="M13.6666 17.6139V18.7806H14.8333V17.6139H13.6666Z" fill="white"/>
<path d="M13.6666 18.7806V19.9473H14.8333V18.7806H13.6666Z" fill="white"/>
<path d="M12.5 17.6139V18.7806H13.6667V17.6139H12.5Z" fill="white"/>
<path d="M12.5 18.7806V19.9473H13.6667V18.7806H12.5Z" fill="white"/>
<path d="M12.5 19.9473V21.1139H13.6667V19.9473H12.5Z" fill="white"/>
<path d="M11.3334 18.7806V19.9473H12.5V18.7806H11.3334Z" fill="white"/>
<path d="M11.3334 19.9473V21.1139H12.5V19.9473H11.3334Z" fill="white"/>
<path d="M11.3334 21.1139V22.2806H12.5V21.1139H11.3334Z" fill="white"/>
<path d="M10.1666 19.9473V21.1139H11.3333V19.9473H10.1666Z" fill="white"/>
<path d="M10.1666 21.1139V22.2806H11.3333V21.1139H10.1666Z" fill="white"/>
<path d="M10.1666 22.2806V23.4473H11.3333V22.2806H10.1666Z" fill="white"/>
<path d="M9 21.1139V22.2806H10.1667V21.1139H9Z" fill="white"/>
<path d="M9 22.2806V23.4473H10.1667V22.2806H9Z" fill="white"/>
<path d="M9 10.6139V11.7806H10.1667V10.6139H9Z" fill="white"/>
<path d="M9 11.7806V12.9473H10.1667V11.7806H9Z" fill="white"/>
<path d="M9 12.9473V14.1139H10.1667V12.9473H9Z" fill="white"/>
<path d="M18.3333 14.1139H19.5V12.9473H18.3333V14.1139Z" fill="white"/>
<path d="M18.3333 15.2806H19.5V14.1139H18.3333V15.2806Z" fill="white"/>
<path d="M17.1667 15.2806H18.3334V14.1139H17.1667V15.2806Z" fill="white"/>
<path d="M17.1667 12.9473H18.3334V11.7806H17.1667V12.9473Z" fill="white"/>
<path d="M17.1667 14.1139H18.3334V12.9473H17.1667V14.1139Z" fill="white"/>
</g>
<defs>
<clipPath id="clip0_4964_69655">
<rect width="14" height="14" fill="white" transform="translate(9 9.44727)"/>
</clipPath>
</defs>
</svg>
