<svg width="32" height="32" viewBox="0 0 32 32" fill="none" xmlns="http://www.w3.org/2000/svg">
<path d="M32 7.21333H28.4533V3.54667H24.84V0H7.16667V3.54667H3.62V7.21333H0V24.88H3.62V28.38H7.16667V32H24.84V28.38H28.4533V24.88H32V7.21333Z" fill="#4544FF"/>
<g clip-path="url(#clip0_173_6960)">
<path d="M22.6667 12H24V10.6667H22.6667V12Z" fill="white"/>
<path d="M21.3327 10.666H22.666V9.33268H21.3327V10.666Z" fill="white"/>
<path d="M20.0007 9.33203H21.334V7.9987H20.0007V9.33203Z" fill="white"/>
<path d="M21.3327 13.332H22.666V11.9987H21.3327V13.332Z" fill="white"/>
<path d="M20.0007 12H21.334V10.6667H20.0007V12Z" fill="white"/>
<path d="M18.6667 10.666H20V9.33268H18.6667V10.666Z" fill="white"/>
<path d="M20.0007 14.666H21.334V13.3327H20.0007V14.666Z" fill="white"/>
<path d="M9.33268 9.33203H10.666V7.9987H9.33268V9.33203Z" fill="white"/>
<path d="M10.6667 9.33203H12V7.9987H10.6667V9.33203Z" fill="white"/>
<path d="M12.0007 9.33203H13.334V7.9987H12.0007V9.33203Z" fill="white"/>
<path d="M9.33268 10.666H10.666V9.33268H9.33268V10.666Z" fill="white"/>
<path d="M10.6667 10.666H12V9.33268H10.6667V10.666Z" fill="white"/>
<path d="M12.0007 10.666H13.334V9.33268H12.0007V10.666Z" fill="white"/>
<path d="M9.33268 12H10.666V10.6667H9.33268V12Z" fill="white"/>
<path d="M10.6667 12H12V10.6667H10.6667V12Z" fill="white"/>
<path d="M12.0007 12H13.334V10.6667H12.0007V12Z" fill="white"/>
<path d="M9.33268 13.332H10.666V11.9987H9.33268V13.332Z" fill="white"/>
<path d="M10.6667 13.332H12V11.9987H10.6667V13.332Z" fill="white"/>
<path d="M12.0007 13.332H13.334V11.9987H12.0007V13.332Z" fill="white"/>
<path d="M13.3327 10.666H14.666V9.33268H13.3327V10.666Z" fill="white"/>
<path d="M13.3327 12H14.666V10.6667H13.3327V12Z" fill="white"/>
<path d="M13.3327 13.332H14.666V11.9987H13.3327V13.332Z" fill="white"/>
<path d="M9.33268 14.666H10.666V13.3327H9.33268V14.666Z" fill="white"/>
<path d="M10.6667 14.666H12V13.3327H10.6667V14.666Z" fill="white"/>
<path d="M12.0007 14.666H13.334V13.3327H12.0007V14.666Z" fill="white"/>
<path d="M13.3327 14.666H14.666V13.3327H13.3327V14.666Z" fill="white"/>
<path d="M14.6667 12H16V10.6667H14.6667V12Z" fill="white"/>
<path d="M14.6667 13.332H16V11.9987H14.6667V13.332Z" fill="white"/>
<path d="M14.6667 14.666H16V13.3327H14.6667V14.666Z" fill="white"/>
<path d="M10.6667 16H12V14.6667H10.6667V16Z" fill="white"/>
<path d="M12.0007 16H13.334V14.6667H12.0007V16Z" fill="white"/>
<path d="M13.3327 16H14.666V14.6667H13.3327V16Z" fill="white"/>
<path d="M16.0007 16H17.334V14.6667H16.0007V16Z" fill="white"/>
<path d="M14.6667 16H16V14.6667H14.6667V16Z" fill="white"/>
<path d="M14.6667 17.332H16V15.9987H14.6667V17.332Z" fill="white"/>
<path d="M16.0007 17.332H17.334V15.9987H16.0007V17.332Z" fill="white"/>
<path d="M17.3327 17.332H18.666V15.9987H17.3327V17.332Z" fill="white"/>
<path d="M16.0007 18.666H17.334V17.3327H16.0007V18.666Z" fill="white"/>
<path d="M17.3327 18.666H18.666V17.3327H17.3327V18.666Z" fill="white"/>
<path d="M18.6667 18.666H20V17.3327H18.6667V18.666Z" fill="white"/>
<path d="M17.3327 20H18.666V18.6667H17.3327V20Z" fill="white"/>
<path d="M18.6667 20H20V18.6667H18.6667V20Z" fill="white"/>
<path d="M20.0007 20H21.334V18.6667H20.0007V20Z" fill="white"/>
<path d="M18.6667 21.332H20V19.9987H18.6667V21.332Z" fill="white"/>
<path d="M20.0007 21.332H21.334V19.9987H20.0007V21.332Z" fill="white"/>
<path d="M21.3327 21.332H22.666V19.9987H21.3327V21.332Z" fill="white"/>
<path d="M20.0007 22.666H21.334V21.3327H20.0007V22.666Z" fill="white"/>
<path d="M21.3327 22.666H22.666V21.3327H21.3327V22.666Z" fill="white"/>
<path d="M22.6667 22.666H24V21.3327H22.6667V22.666Z" fill="white"/>
<path d="M21.3327 24H22.666V22.6667H21.3327V24Z" fill="white"/>
<path d="M22.6667 24H24V22.6667H22.6667V24Z" fill="white"/>
<path d="M13.334 17.3327V18.666H14.6673V17.3327H13.334Z" fill="white"/>
<path d="M13.334 18.6667V20H14.6673V18.6667H13.334Z" fill="white"/>
<path d="M12 17.3327V18.666H13.3333V17.3327H12Z" fill="white"/>
<path d="M12 18.6667V20H13.3333V18.6667H12Z" fill="white"/>
<path d="M12 19.9987V21.332H13.3333V19.9987H12Z" fill="white"/>
<path d="M10.666 18.6667V20H11.9993V18.6667H10.666Z" fill="white"/>
<path d="M10.666 19.9987V21.332H11.9993V19.9987H10.666Z" fill="white"/>
<path d="M10.666 21.3327V22.666H11.9993V21.3327H10.666Z" fill="white"/>
<path d="M9.33398 19.9987V21.332H10.6673V19.9987H9.33398Z" fill="white"/>
<path d="M9.33398 21.3327V22.666H10.6673V21.3327H9.33398Z" fill="white"/>
<path d="M9.33398 22.6667V24H10.6673V22.6667H9.33398Z" fill="white"/>
<path d="M8 21.3327V22.666H9.33333V21.3327H8Z" fill="white"/>
<path d="M8 22.6667V24H9.33333V22.6667H8Z" fill="white"/>
<path d="M8 9.33268V10.666H9.33333V9.33268H8Z" fill="white"/>
<path d="M8 10.6667V12H9.33333V10.6667H8Z" fill="white"/>
<path d="M8 11.9987V13.332H9.33333V11.9987H8Z" fill="white"/>
<path d="M18.6667 13.332H20V11.9987H18.6667V13.332Z" fill="white"/>
<path d="M18.6667 14.666H20V13.3327H18.6667V14.666Z" fill="white"/>
<path d="M17.3327 14.666H18.666V13.3327H17.3327V14.666Z" fill="white"/>
<path d="M17.3327 12H18.666V10.6667H17.3327V12Z" fill="white"/>
<path d="M17.3327 13.332H18.666V11.9987H17.3327V13.332Z" fill="white"/>
</g>
<defs>
<clipPath id="clip0_173_6960">
<rect width="16" height="16" fill="white" transform="translate(8 8)"/>
</clipPath>
</defs>
</svg>
