<svg width="32" height="32" viewBox="0 0 32 32" fill="none" xmlns="http://www.w3.org/2000/svg">
<g clip-path="url(#clip0_173_6926)">
<path d="M32 7.21333H28.4533V3.54667H24.84V0H7.16667V3.54667H3.62V7.21333H0V24.88H3.62V28.38H7.16667V32H24.84V28.38H28.4533V24.88H32V7.21333Z" fill="#4544FF"/>
<path d="M15.815 6.26367H23.4513V8.54678H17.9968V23.7182H16.9059V24.8091H15.815V25.9H11.4513V24.8091H10.3604V23.7182H9.26953V19.3546H10.3604V18.2637H11.4513V17.1728H15.815V6.26367ZM15.815 20.4455H14.7241V19.3546H12.5423V20.4455H11.4513V22.6273H12.5423V23.7182H14.7241V22.6273H15.815V20.4455Z" fill="white"/>
</g>
<defs>
<clipPath id="clip0_173_6926">
<rect width="32" height="32" fill="white"/>
</clipPath>
</defs>
</svg>
